G75*
%MOIN*%
%OFA0B0*%
%FSLAX25Y25*%
%IPPOS*%
%LPD*%
%AMOC8*
5,1,8,0,0,1.08239X$1,22.5*
%
%ADD10C,0.00600*%
%ADD11C,0.00000*%
%ADD12C,0.00400*%
%ADD13C,0.00500*%
%ADD14C,0.02362*%
%ADD15C,0.01000*%
%ADD16R,0.02000X0.01500*%
%ADD17C,0.00800*%
%ADD18R,0.01500X0.04000*%
%ADD19C,0.00300*%
%ADD20C,0.01600*%
D10*
X0021728Y0064642D02*
X0076846Y0064642D01*
X0076846Y0033933D01*
X0366610Y0033933D01*
X0366610Y0064642D01*
X0421728Y0064642D01*
X0421728Y0433933D01*
X0021728Y0433933D01*
X0021728Y0064642D01*
X0195978Y0177683D02*
X0197978Y0177683D01*
X0197978Y0180183D01*
X0207978Y0180183D01*
X0207978Y0177683D01*
X0207978Y0175183D01*
X0197978Y0175183D01*
X0197978Y0177683D01*
X0207978Y0177683D02*
X0209978Y0177683D01*
X0229228Y0175433D02*
X0229228Y0192433D01*
X0229230Y0192493D01*
X0229235Y0192554D01*
X0229244Y0192613D01*
X0229257Y0192672D01*
X0229273Y0192731D01*
X0229293Y0192788D01*
X0229316Y0192843D01*
X0229343Y0192898D01*
X0229372Y0192950D01*
X0229405Y0193001D01*
X0229441Y0193050D01*
X0229479Y0193096D01*
X0229521Y0193140D01*
X0229565Y0193182D01*
X0229611Y0193220D01*
X0229660Y0193256D01*
X0229711Y0193289D01*
X0229763Y0193318D01*
X0229818Y0193345D01*
X0229873Y0193368D01*
X0229930Y0193388D01*
X0229989Y0193404D01*
X0230048Y0193417D01*
X0230107Y0193426D01*
X0230168Y0193431D01*
X0230228Y0193433D01*
X0238228Y0193433D01*
X0238288Y0193431D01*
X0238349Y0193426D01*
X0238408Y0193417D01*
X0238467Y0193404D01*
X0238526Y0193388D01*
X0238583Y0193368D01*
X0238638Y0193345D01*
X0238693Y0193318D01*
X0238745Y0193289D01*
X0238796Y0193256D01*
X0238845Y0193220D01*
X0238891Y0193182D01*
X0238935Y0193140D01*
X0238977Y0193096D01*
X0239015Y0193050D01*
X0239051Y0193001D01*
X0239084Y0192950D01*
X0239113Y0192898D01*
X0239140Y0192843D01*
X0239163Y0192788D01*
X0239183Y0192731D01*
X0239199Y0192672D01*
X0239212Y0192613D01*
X0239221Y0192554D01*
X0239226Y0192493D01*
X0239228Y0192433D01*
X0239228Y0175433D01*
X0239226Y0175373D01*
X0239221Y0175312D01*
X0239212Y0175253D01*
X0239199Y0175194D01*
X0239183Y0175135D01*
X0239163Y0175078D01*
X0239140Y0175023D01*
X0239113Y0174968D01*
X0239084Y0174916D01*
X0239051Y0174865D01*
X0239015Y0174816D01*
X0238977Y0174770D01*
X0238935Y0174726D01*
X0238891Y0174684D01*
X0238845Y0174646D01*
X0238796Y0174610D01*
X0238745Y0174577D01*
X0238693Y0174548D01*
X0238638Y0174521D01*
X0238583Y0174498D01*
X0238526Y0174478D01*
X0238467Y0174462D01*
X0238408Y0174449D01*
X0238349Y0174440D01*
X0238288Y0174435D01*
X0238228Y0174433D01*
X0230228Y0174433D01*
X0230168Y0174435D01*
X0230107Y0174440D01*
X0230048Y0174449D01*
X0229989Y0174462D01*
X0229930Y0174478D01*
X0229873Y0174498D01*
X0229818Y0174521D01*
X0229763Y0174548D01*
X0229711Y0174577D01*
X0229660Y0174610D01*
X0229611Y0174646D01*
X0229565Y0174684D01*
X0229521Y0174726D01*
X0229479Y0174770D01*
X0229441Y0174816D01*
X0229405Y0174865D01*
X0229372Y0174916D01*
X0229343Y0174968D01*
X0229316Y0175023D01*
X0229293Y0175078D01*
X0229273Y0175135D01*
X0229257Y0175194D01*
X0229244Y0175253D01*
X0229235Y0175312D01*
X0229230Y0175373D01*
X0229228Y0175433D01*
X0234228Y0182433D02*
X0234228Y0182933D01*
X0234228Y0184933D02*
X0234228Y0185433D01*
X0242728Y0191433D02*
X0243228Y0190933D01*
X0243228Y0176933D01*
X0242728Y0176433D01*
X0242728Y0174933D01*
X0242730Y0174873D01*
X0242735Y0174812D01*
X0242744Y0174753D01*
X0242757Y0174694D01*
X0242773Y0174635D01*
X0242793Y0174578D01*
X0242816Y0174523D01*
X0242843Y0174468D01*
X0242872Y0174416D01*
X0242905Y0174365D01*
X0242941Y0174316D01*
X0242979Y0174270D01*
X0243021Y0174226D01*
X0243065Y0174184D01*
X0243111Y0174146D01*
X0243160Y0174110D01*
X0243211Y0174077D01*
X0243263Y0174048D01*
X0243318Y0174021D01*
X0243373Y0173998D01*
X0243430Y0173978D01*
X0243489Y0173962D01*
X0243548Y0173949D01*
X0243607Y0173940D01*
X0243668Y0173935D01*
X0243728Y0173933D01*
X0249728Y0173933D01*
X0249788Y0173935D01*
X0249849Y0173940D01*
X0249908Y0173949D01*
X0249967Y0173962D01*
X0250026Y0173978D01*
X0250083Y0173998D01*
X0250138Y0174021D01*
X0250193Y0174048D01*
X0250245Y0174077D01*
X0250296Y0174110D01*
X0250345Y0174146D01*
X0250391Y0174184D01*
X0250435Y0174226D01*
X0250477Y0174270D01*
X0250515Y0174316D01*
X0250551Y0174365D01*
X0250584Y0174416D01*
X0250613Y0174468D01*
X0250640Y0174523D01*
X0250663Y0174578D01*
X0250683Y0174635D01*
X0250699Y0174694D01*
X0250712Y0174753D01*
X0250721Y0174812D01*
X0250726Y0174873D01*
X0250728Y0174933D01*
X0250728Y0176433D01*
X0250228Y0176933D01*
X0250228Y0190933D01*
X0250728Y0191433D01*
X0250728Y0192933D01*
X0250726Y0192993D01*
X0250721Y0193054D01*
X0250712Y0193113D01*
X0250699Y0193172D01*
X0250683Y0193231D01*
X0250663Y0193288D01*
X0250640Y0193343D01*
X0250613Y0193398D01*
X0250584Y0193450D01*
X0250551Y0193501D01*
X0250515Y0193550D01*
X0250477Y0193596D01*
X0250435Y0193640D01*
X0250391Y0193682D01*
X0250345Y0193720D01*
X0250296Y0193756D01*
X0250245Y0193789D01*
X0250193Y0193818D01*
X0250138Y0193845D01*
X0250083Y0193868D01*
X0250026Y0193888D01*
X0249967Y0193904D01*
X0249908Y0193917D01*
X0249849Y0193926D01*
X0249788Y0193931D01*
X0249728Y0193933D01*
X0243728Y0193933D01*
X0243668Y0193931D01*
X0243607Y0193926D01*
X0243548Y0193917D01*
X0243489Y0193904D01*
X0243430Y0193888D01*
X0243373Y0193868D01*
X0243318Y0193845D01*
X0243263Y0193818D01*
X0243211Y0193789D01*
X0243160Y0193756D01*
X0243111Y0193720D01*
X0243065Y0193682D01*
X0243021Y0193640D01*
X0242979Y0193596D01*
X0242941Y0193550D01*
X0242905Y0193501D01*
X0242872Y0193450D01*
X0242843Y0193398D01*
X0242816Y0193343D01*
X0242793Y0193288D01*
X0242773Y0193231D01*
X0242757Y0193172D01*
X0242744Y0193113D01*
X0242735Y0193054D01*
X0242730Y0192993D01*
X0242728Y0192933D01*
X0242728Y0191433D01*
X0255228Y0191433D02*
X0255728Y0190933D01*
X0255728Y0176933D01*
X0255228Y0176433D01*
X0255228Y0174933D01*
X0255230Y0174873D01*
X0255235Y0174812D01*
X0255244Y0174753D01*
X0255257Y0174694D01*
X0255273Y0174635D01*
X0255293Y0174578D01*
X0255316Y0174523D01*
X0255343Y0174468D01*
X0255372Y0174416D01*
X0255405Y0174365D01*
X0255441Y0174316D01*
X0255479Y0174270D01*
X0255521Y0174226D01*
X0255565Y0174184D01*
X0255611Y0174146D01*
X0255660Y0174110D01*
X0255711Y0174077D01*
X0255763Y0174048D01*
X0255818Y0174021D01*
X0255873Y0173998D01*
X0255930Y0173978D01*
X0255989Y0173962D01*
X0256048Y0173949D01*
X0256107Y0173940D01*
X0256168Y0173935D01*
X0256228Y0173933D01*
X0262228Y0173933D01*
X0262288Y0173935D01*
X0262349Y0173940D01*
X0262408Y0173949D01*
X0262467Y0173962D01*
X0262526Y0173978D01*
X0262583Y0173998D01*
X0262638Y0174021D01*
X0262693Y0174048D01*
X0262745Y0174077D01*
X0262796Y0174110D01*
X0262845Y0174146D01*
X0262891Y0174184D01*
X0262935Y0174226D01*
X0262977Y0174270D01*
X0263015Y0174316D01*
X0263051Y0174365D01*
X0263084Y0174416D01*
X0263113Y0174468D01*
X0263140Y0174523D01*
X0263163Y0174578D01*
X0263183Y0174635D01*
X0263199Y0174694D01*
X0263212Y0174753D01*
X0263221Y0174812D01*
X0263226Y0174873D01*
X0263228Y0174933D01*
X0263228Y0176433D01*
X0262728Y0176933D01*
X0262728Y0190933D01*
X0263228Y0191433D01*
X0263228Y0192933D01*
X0263226Y0192993D01*
X0263221Y0193054D01*
X0263212Y0193113D01*
X0263199Y0193172D01*
X0263183Y0193231D01*
X0263163Y0193288D01*
X0263140Y0193343D01*
X0263113Y0193398D01*
X0263084Y0193450D01*
X0263051Y0193501D01*
X0263015Y0193550D01*
X0262977Y0193596D01*
X0262935Y0193640D01*
X0262891Y0193682D01*
X0262845Y0193720D01*
X0262796Y0193756D01*
X0262745Y0193789D01*
X0262693Y0193818D01*
X0262638Y0193845D01*
X0262583Y0193868D01*
X0262526Y0193888D01*
X0262467Y0193904D01*
X0262408Y0193917D01*
X0262349Y0193926D01*
X0262288Y0193931D01*
X0262228Y0193933D01*
X0256228Y0193933D01*
X0256168Y0193931D01*
X0256107Y0193926D01*
X0256048Y0193917D01*
X0255989Y0193904D01*
X0255930Y0193888D01*
X0255873Y0193868D01*
X0255818Y0193845D01*
X0255763Y0193818D01*
X0255711Y0193789D01*
X0255660Y0193756D01*
X0255611Y0193720D01*
X0255565Y0193682D01*
X0255521Y0193640D01*
X0255479Y0193596D01*
X0255441Y0193550D01*
X0255405Y0193501D01*
X0255372Y0193450D01*
X0255343Y0193398D01*
X0255316Y0193343D01*
X0255293Y0193288D01*
X0255273Y0193231D01*
X0255257Y0193172D01*
X0255244Y0193113D01*
X0255235Y0193054D01*
X0255230Y0192993D01*
X0255228Y0192933D01*
X0255228Y0191433D01*
X0269853Y0189308D02*
X0269853Y0172308D01*
X0269855Y0172248D01*
X0269860Y0172187D01*
X0269869Y0172128D01*
X0269882Y0172069D01*
X0269898Y0172010D01*
X0269918Y0171953D01*
X0269941Y0171898D01*
X0269968Y0171843D01*
X0269997Y0171791D01*
X0270030Y0171740D01*
X0270066Y0171691D01*
X0270104Y0171645D01*
X0270146Y0171601D01*
X0270190Y0171559D01*
X0270236Y0171521D01*
X0270285Y0171485D01*
X0270336Y0171452D01*
X0270388Y0171423D01*
X0270443Y0171396D01*
X0270498Y0171373D01*
X0270555Y0171353D01*
X0270614Y0171337D01*
X0270673Y0171324D01*
X0270732Y0171315D01*
X0270793Y0171310D01*
X0270853Y0171308D01*
X0278853Y0171308D01*
X0278913Y0171310D01*
X0278974Y0171315D01*
X0279033Y0171324D01*
X0279092Y0171337D01*
X0279151Y0171353D01*
X0279208Y0171373D01*
X0279263Y0171396D01*
X0279318Y0171423D01*
X0279370Y0171452D01*
X0279421Y0171485D01*
X0279470Y0171521D01*
X0279516Y0171559D01*
X0279560Y0171601D01*
X0279602Y0171645D01*
X0279640Y0171691D01*
X0279676Y0171740D01*
X0279709Y0171791D01*
X0279738Y0171843D01*
X0279765Y0171898D01*
X0279788Y0171953D01*
X0279808Y0172010D01*
X0279824Y0172069D01*
X0279837Y0172128D01*
X0279846Y0172187D01*
X0279851Y0172248D01*
X0279853Y0172308D01*
X0279853Y0189308D01*
X0279851Y0189368D01*
X0279846Y0189429D01*
X0279837Y0189488D01*
X0279824Y0189547D01*
X0279808Y0189606D01*
X0279788Y0189663D01*
X0279765Y0189718D01*
X0279738Y0189773D01*
X0279709Y0189825D01*
X0279676Y0189876D01*
X0279640Y0189925D01*
X0279602Y0189971D01*
X0279560Y0190015D01*
X0279516Y0190057D01*
X0279470Y0190095D01*
X0279421Y0190131D01*
X0279370Y0190164D01*
X0279318Y0190193D01*
X0279263Y0190220D01*
X0279208Y0190243D01*
X0279151Y0190263D01*
X0279092Y0190279D01*
X0279033Y0190292D01*
X0278974Y0190301D01*
X0278913Y0190306D01*
X0278853Y0190308D01*
X0270853Y0190308D01*
X0270793Y0190306D01*
X0270732Y0190301D01*
X0270673Y0190292D01*
X0270614Y0190279D01*
X0270555Y0190263D01*
X0270498Y0190243D01*
X0270443Y0190220D01*
X0270388Y0190193D01*
X0270336Y0190164D01*
X0270285Y0190131D01*
X0270236Y0190095D01*
X0270190Y0190057D01*
X0270146Y0190015D01*
X0270104Y0189971D01*
X0270066Y0189925D01*
X0270030Y0189876D01*
X0269997Y0189825D01*
X0269968Y0189773D01*
X0269941Y0189718D01*
X0269918Y0189663D01*
X0269898Y0189606D01*
X0269882Y0189547D01*
X0269869Y0189488D01*
X0269860Y0189429D01*
X0269855Y0189368D01*
X0269853Y0189308D01*
X0274853Y0182308D02*
X0274853Y0181808D01*
X0274853Y0179808D02*
X0274853Y0179308D01*
X0275728Y0167058D02*
X0292728Y0167058D01*
X0292788Y0167056D01*
X0292849Y0167051D01*
X0292908Y0167042D01*
X0292967Y0167029D01*
X0293026Y0167013D01*
X0293083Y0166993D01*
X0293138Y0166970D01*
X0293193Y0166943D01*
X0293245Y0166914D01*
X0293296Y0166881D01*
X0293345Y0166845D01*
X0293391Y0166807D01*
X0293435Y0166765D01*
X0293477Y0166721D01*
X0293515Y0166675D01*
X0293551Y0166626D01*
X0293584Y0166575D01*
X0293613Y0166523D01*
X0293640Y0166468D01*
X0293663Y0166413D01*
X0293683Y0166356D01*
X0293699Y0166297D01*
X0293712Y0166238D01*
X0293721Y0166179D01*
X0293726Y0166118D01*
X0293728Y0166058D01*
X0293728Y0158058D01*
X0293726Y0157998D01*
X0293721Y0157937D01*
X0293712Y0157878D01*
X0293699Y0157819D01*
X0293683Y0157760D01*
X0293663Y0157703D01*
X0293640Y0157648D01*
X0293613Y0157593D01*
X0293584Y0157541D01*
X0293551Y0157490D01*
X0293515Y0157441D01*
X0293477Y0157395D01*
X0293435Y0157351D01*
X0293391Y0157309D01*
X0293345Y0157271D01*
X0293296Y0157235D01*
X0293245Y0157202D01*
X0293193Y0157173D01*
X0293138Y0157146D01*
X0293083Y0157123D01*
X0293026Y0157103D01*
X0292967Y0157087D01*
X0292908Y0157074D01*
X0292849Y0157065D01*
X0292788Y0157060D01*
X0292728Y0157058D01*
X0275728Y0157058D01*
X0275668Y0157060D01*
X0275607Y0157065D01*
X0275548Y0157074D01*
X0275489Y0157087D01*
X0275430Y0157103D01*
X0275373Y0157123D01*
X0275318Y0157146D01*
X0275263Y0157173D01*
X0275211Y0157202D01*
X0275160Y0157235D01*
X0275111Y0157271D01*
X0275065Y0157309D01*
X0275021Y0157351D01*
X0274979Y0157395D01*
X0274941Y0157441D01*
X0274905Y0157490D01*
X0274872Y0157541D01*
X0274843Y0157593D01*
X0274816Y0157648D01*
X0274793Y0157703D01*
X0274773Y0157760D01*
X0274757Y0157819D01*
X0274744Y0157878D01*
X0274735Y0157937D01*
X0274730Y0157998D01*
X0274728Y0158058D01*
X0274728Y0166058D01*
X0274730Y0166118D01*
X0274735Y0166179D01*
X0274744Y0166238D01*
X0274757Y0166297D01*
X0274773Y0166356D01*
X0274793Y0166413D01*
X0274816Y0166468D01*
X0274843Y0166523D01*
X0274872Y0166575D01*
X0274905Y0166626D01*
X0274941Y0166675D01*
X0274979Y0166721D01*
X0275021Y0166765D01*
X0275065Y0166807D01*
X0275111Y0166845D01*
X0275160Y0166881D01*
X0275211Y0166914D01*
X0275263Y0166943D01*
X0275318Y0166970D01*
X0275373Y0166993D01*
X0275430Y0167013D01*
X0275489Y0167029D01*
X0275548Y0167042D01*
X0275607Y0167051D01*
X0275668Y0167056D01*
X0275728Y0167058D01*
X0282728Y0162058D02*
X0283228Y0162058D01*
X0285228Y0162058D02*
X0285728Y0162058D01*
X0299728Y0164308D02*
X0299728Y0172308D01*
X0299730Y0172368D01*
X0299735Y0172429D01*
X0299744Y0172488D01*
X0299757Y0172547D01*
X0299773Y0172606D01*
X0299793Y0172663D01*
X0299816Y0172718D01*
X0299843Y0172773D01*
X0299872Y0172825D01*
X0299905Y0172876D01*
X0299941Y0172925D01*
X0299979Y0172971D01*
X0300021Y0173015D01*
X0300065Y0173057D01*
X0300111Y0173095D01*
X0300160Y0173131D01*
X0300211Y0173164D01*
X0300263Y0173193D01*
X0300318Y0173220D01*
X0300373Y0173243D01*
X0300430Y0173263D01*
X0300489Y0173279D01*
X0300548Y0173292D01*
X0300607Y0173301D01*
X0300668Y0173306D01*
X0300728Y0173308D01*
X0317728Y0173308D01*
X0317788Y0173306D01*
X0317849Y0173301D01*
X0317908Y0173292D01*
X0317967Y0173279D01*
X0318026Y0173263D01*
X0318083Y0173243D01*
X0318138Y0173220D01*
X0318193Y0173193D01*
X0318245Y0173164D01*
X0318296Y0173131D01*
X0318345Y0173095D01*
X0318391Y0173057D01*
X0318435Y0173015D01*
X0318477Y0172971D01*
X0318515Y0172925D01*
X0318551Y0172876D01*
X0318584Y0172825D01*
X0318613Y0172773D01*
X0318640Y0172718D01*
X0318663Y0172663D01*
X0318683Y0172606D01*
X0318699Y0172547D01*
X0318712Y0172488D01*
X0318721Y0172429D01*
X0318726Y0172368D01*
X0318728Y0172308D01*
X0318728Y0164308D01*
X0318726Y0164248D01*
X0318721Y0164187D01*
X0318712Y0164128D01*
X0318699Y0164069D01*
X0318683Y0164010D01*
X0318663Y0163953D01*
X0318640Y0163898D01*
X0318613Y0163843D01*
X0318584Y0163791D01*
X0318551Y0163740D01*
X0318515Y0163691D01*
X0318477Y0163645D01*
X0318435Y0163601D01*
X0318391Y0163559D01*
X0318345Y0163521D01*
X0318296Y0163485D01*
X0318245Y0163452D01*
X0318193Y0163423D01*
X0318138Y0163396D01*
X0318083Y0163373D01*
X0318026Y0163353D01*
X0317967Y0163337D01*
X0317908Y0163324D01*
X0317849Y0163315D01*
X0317788Y0163310D01*
X0317728Y0163308D01*
X0300728Y0163308D01*
X0300668Y0163310D01*
X0300607Y0163315D01*
X0300548Y0163324D01*
X0300489Y0163337D01*
X0300430Y0163353D01*
X0300373Y0163373D01*
X0300318Y0163396D01*
X0300263Y0163423D01*
X0300211Y0163452D01*
X0300160Y0163485D01*
X0300111Y0163521D01*
X0300065Y0163559D01*
X0300021Y0163601D01*
X0299979Y0163645D01*
X0299941Y0163691D01*
X0299905Y0163740D01*
X0299872Y0163791D01*
X0299843Y0163843D01*
X0299816Y0163898D01*
X0299793Y0163953D01*
X0299773Y0164010D01*
X0299757Y0164069D01*
X0299744Y0164128D01*
X0299735Y0164187D01*
X0299730Y0164248D01*
X0299728Y0164308D01*
X0307728Y0168308D02*
X0308228Y0168308D01*
X0310228Y0168308D02*
X0310728Y0168308D01*
X0314978Y0180558D02*
X0290978Y0180558D01*
X0290818Y0180560D01*
X0290659Y0180566D01*
X0290500Y0180576D01*
X0290341Y0180589D01*
X0290182Y0180607D01*
X0290024Y0180628D01*
X0289867Y0180654D01*
X0289710Y0180683D01*
X0289554Y0180716D01*
X0289399Y0180753D01*
X0289244Y0180793D01*
X0289091Y0180838D01*
X0288939Y0180886D01*
X0288788Y0180938D01*
X0288639Y0180994D01*
X0288491Y0181053D01*
X0288344Y0181116D01*
X0288199Y0181182D01*
X0288056Y0181252D01*
X0287914Y0181326D01*
X0287774Y0181402D01*
X0287636Y0181483D01*
X0287501Y0181566D01*
X0287367Y0181653D01*
X0287235Y0181744D01*
X0287106Y0181837D01*
X0286979Y0181934D01*
X0286854Y0182033D01*
X0286732Y0182136D01*
X0286613Y0182242D01*
X0286496Y0182350D01*
X0286382Y0182462D01*
X0286270Y0182576D01*
X0286162Y0182693D01*
X0286056Y0182812D01*
X0285953Y0182934D01*
X0285854Y0183059D01*
X0285757Y0183186D01*
X0285664Y0183315D01*
X0285573Y0183447D01*
X0285486Y0183581D01*
X0285403Y0183716D01*
X0285322Y0183854D01*
X0285246Y0183994D01*
X0285172Y0184136D01*
X0285102Y0184279D01*
X0285036Y0184424D01*
X0284973Y0184571D01*
X0284914Y0184719D01*
X0284858Y0184868D01*
X0284806Y0185019D01*
X0284758Y0185171D01*
X0284713Y0185324D01*
X0284673Y0185479D01*
X0284636Y0185634D01*
X0284603Y0185790D01*
X0284574Y0185947D01*
X0284548Y0186104D01*
X0284527Y0186262D01*
X0284509Y0186421D01*
X0284496Y0186580D01*
X0284486Y0186739D01*
X0284480Y0186898D01*
X0284478Y0187058D01*
X0284480Y0187218D01*
X0284486Y0187377D01*
X0284496Y0187536D01*
X0284509Y0187695D01*
X0284527Y0187854D01*
X0284548Y0188012D01*
X0284574Y0188169D01*
X0284603Y0188326D01*
X0284636Y0188482D01*
X0284673Y0188637D01*
X0284713Y0188792D01*
X0284758Y0188945D01*
X0284806Y0189097D01*
X0284858Y0189248D01*
X0284914Y0189397D01*
X0284973Y0189545D01*
X0285036Y0189692D01*
X0285102Y0189837D01*
X0285172Y0189980D01*
X0285246Y0190122D01*
X0285322Y0190262D01*
X0285403Y0190400D01*
X0285486Y0190535D01*
X0285573Y0190669D01*
X0285664Y0190801D01*
X0285757Y0190930D01*
X0285854Y0191057D01*
X0285953Y0191182D01*
X0286056Y0191304D01*
X0286162Y0191423D01*
X0286270Y0191540D01*
X0286382Y0191654D01*
X0286496Y0191766D01*
X0286613Y0191874D01*
X0286732Y0191980D01*
X0286854Y0192083D01*
X0286979Y0192182D01*
X0287106Y0192279D01*
X0287235Y0192372D01*
X0287367Y0192463D01*
X0287501Y0192550D01*
X0287636Y0192633D01*
X0287774Y0192714D01*
X0287914Y0192790D01*
X0288056Y0192864D01*
X0288199Y0192934D01*
X0288344Y0193000D01*
X0288491Y0193063D01*
X0288639Y0193122D01*
X0288788Y0193178D01*
X0288939Y0193230D01*
X0289091Y0193278D01*
X0289244Y0193323D01*
X0289399Y0193363D01*
X0289554Y0193400D01*
X0289710Y0193433D01*
X0289867Y0193462D01*
X0290024Y0193488D01*
X0290182Y0193509D01*
X0290341Y0193527D01*
X0290500Y0193540D01*
X0290659Y0193550D01*
X0290818Y0193556D01*
X0290978Y0193558D01*
X0314978Y0193558D01*
X0315138Y0193556D01*
X0315297Y0193550D01*
X0315456Y0193540D01*
X0315615Y0193527D01*
X0315774Y0193509D01*
X0315932Y0193488D01*
X0316089Y0193462D01*
X0316246Y0193433D01*
X0316402Y0193400D01*
X0316557Y0193363D01*
X0316712Y0193323D01*
X0316865Y0193278D01*
X0317017Y0193230D01*
X0317168Y0193178D01*
X0317317Y0193122D01*
X0317465Y0193063D01*
X0317612Y0193000D01*
X0317757Y0192934D01*
X0317900Y0192864D01*
X0318042Y0192790D01*
X0318182Y0192714D01*
X0318320Y0192633D01*
X0318455Y0192550D01*
X0318589Y0192463D01*
X0318721Y0192372D01*
X0318850Y0192279D01*
X0318977Y0192182D01*
X0319102Y0192083D01*
X0319224Y0191980D01*
X0319343Y0191874D01*
X0319460Y0191766D01*
X0319574Y0191654D01*
X0319686Y0191540D01*
X0319794Y0191423D01*
X0319900Y0191304D01*
X0320003Y0191182D01*
X0320102Y0191057D01*
X0320199Y0190930D01*
X0320292Y0190801D01*
X0320383Y0190669D01*
X0320470Y0190535D01*
X0320553Y0190400D01*
X0320634Y0190262D01*
X0320710Y0190122D01*
X0320784Y0189980D01*
X0320854Y0189837D01*
X0320920Y0189692D01*
X0320983Y0189545D01*
X0321042Y0189397D01*
X0321098Y0189248D01*
X0321150Y0189097D01*
X0321198Y0188945D01*
X0321243Y0188792D01*
X0321283Y0188637D01*
X0321320Y0188482D01*
X0321353Y0188326D01*
X0321382Y0188169D01*
X0321408Y0188012D01*
X0321429Y0187854D01*
X0321447Y0187695D01*
X0321460Y0187536D01*
X0321470Y0187377D01*
X0321476Y0187218D01*
X0321478Y0187058D01*
X0321476Y0186898D01*
X0321470Y0186739D01*
X0321460Y0186580D01*
X0321447Y0186421D01*
X0321429Y0186262D01*
X0321408Y0186104D01*
X0321382Y0185947D01*
X0321353Y0185790D01*
X0321320Y0185634D01*
X0321283Y0185479D01*
X0321243Y0185324D01*
X0321198Y0185171D01*
X0321150Y0185019D01*
X0321098Y0184868D01*
X0321042Y0184719D01*
X0320983Y0184571D01*
X0320920Y0184424D01*
X0320854Y0184279D01*
X0320784Y0184136D01*
X0320710Y0183994D01*
X0320634Y0183854D01*
X0320553Y0183716D01*
X0320470Y0183581D01*
X0320383Y0183447D01*
X0320292Y0183315D01*
X0320199Y0183186D01*
X0320102Y0183059D01*
X0320003Y0182934D01*
X0319900Y0182812D01*
X0319794Y0182693D01*
X0319686Y0182576D01*
X0319574Y0182462D01*
X0319460Y0182350D01*
X0319343Y0182242D01*
X0319224Y0182136D01*
X0319102Y0182033D01*
X0318977Y0181934D01*
X0318850Y0181837D01*
X0318721Y0181744D01*
X0318589Y0181653D01*
X0318455Y0181566D01*
X0318320Y0181483D01*
X0318182Y0181402D01*
X0318042Y0181326D01*
X0317900Y0181252D01*
X0317757Y0181182D01*
X0317612Y0181116D01*
X0317465Y0181053D01*
X0317317Y0180994D01*
X0317168Y0180938D01*
X0317017Y0180886D01*
X0316865Y0180838D01*
X0316712Y0180793D01*
X0316557Y0180753D01*
X0316402Y0180716D01*
X0316246Y0180683D01*
X0316089Y0180654D01*
X0315932Y0180628D01*
X0315774Y0180607D01*
X0315615Y0180589D01*
X0315456Y0180576D01*
X0315297Y0180566D01*
X0315138Y0180560D01*
X0314978Y0180558D01*
X0307978Y0187058D02*
X0305478Y0187058D01*
X0305478Y0190058D01*
X0303978Y0190058D02*
X0303978Y0184058D01*
X0301978Y0184058D01*
X0301978Y0190058D01*
X0303978Y0190058D01*
X0305478Y0187058D02*
X0305478Y0184058D01*
X0300478Y0184058D02*
X0300478Y0187058D01*
X0297978Y0187058D01*
X0300478Y0187058D02*
X0300478Y0190058D01*
X0300528Y0204683D02*
X0302928Y0204683D01*
X0310528Y0204683D02*
X0312928Y0204683D01*
X0320528Y0204683D02*
X0322928Y0204683D01*
X0330528Y0204683D02*
X0332928Y0204683D01*
X0340528Y0204683D02*
X0342928Y0204683D01*
X0350528Y0204683D02*
X0352928Y0204683D01*
X0360528Y0204683D02*
X0364728Y0204683D01*
X0364728Y0216483D01*
X0364728Y0218883D01*
X0364728Y0230683D01*
X0361028Y0230683D01*
X0352428Y0230683D02*
X0350528Y0230683D01*
X0342928Y0230683D02*
X0340528Y0230683D01*
X0332928Y0230683D02*
X0330528Y0230683D01*
X0322928Y0230683D02*
X0320528Y0230683D01*
X0312928Y0230683D02*
X0310528Y0230683D01*
X0302928Y0230683D02*
X0300528Y0230683D01*
X0292928Y0230683D02*
X0288728Y0230683D01*
X0288728Y0204683D01*
X0292928Y0204683D01*
X0264228Y0228558D02*
X0264228Y0245558D01*
X0264226Y0245618D01*
X0264221Y0245679D01*
X0264212Y0245738D01*
X0264199Y0245797D01*
X0264183Y0245856D01*
X0264163Y0245913D01*
X0264140Y0245968D01*
X0264113Y0246023D01*
X0264084Y0246075D01*
X0264051Y0246126D01*
X0264015Y0246175D01*
X0263977Y0246221D01*
X0263935Y0246265D01*
X0263891Y0246307D01*
X0263845Y0246345D01*
X0263796Y0246381D01*
X0263745Y0246414D01*
X0263693Y0246443D01*
X0263638Y0246470D01*
X0263583Y0246493D01*
X0263526Y0246513D01*
X0263467Y0246529D01*
X0263408Y0246542D01*
X0263349Y0246551D01*
X0263288Y0246556D01*
X0263228Y0246558D01*
X0255228Y0246558D01*
X0255168Y0246556D01*
X0255107Y0246551D01*
X0255048Y0246542D01*
X0254989Y0246529D01*
X0254930Y0246513D01*
X0254873Y0246493D01*
X0254818Y0246470D01*
X0254763Y0246443D01*
X0254711Y0246414D01*
X0254660Y0246381D01*
X0254611Y0246345D01*
X0254565Y0246307D01*
X0254521Y0246265D01*
X0254479Y0246221D01*
X0254441Y0246175D01*
X0254405Y0246126D01*
X0254372Y0246075D01*
X0254343Y0246023D01*
X0254316Y0245968D01*
X0254293Y0245913D01*
X0254273Y0245856D01*
X0254257Y0245797D01*
X0254244Y0245738D01*
X0254235Y0245679D01*
X0254230Y0245618D01*
X0254228Y0245558D01*
X0254228Y0228558D01*
X0254230Y0228498D01*
X0254235Y0228437D01*
X0254244Y0228378D01*
X0254257Y0228319D01*
X0254273Y0228260D01*
X0254293Y0228203D01*
X0254316Y0228148D01*
X0254343Y0228093D01*
X0254372Y0228041D01*
X0254405Y0227990D01*
X0254441Y0227941D01*
X0254479Y0227895D01*
X0254521Y0227851D01*
X0254565Y0227809D01*
X0254611Y0227771D01*
X0254660Y0227735D01*
X0254711Y0227702D01*
X0254763Y0227673D01*
X0254818Y0227646D01*
X0254873Y0227623D01*
X0254930Y0227603D01*
X0254989Y0227587D01*
X0255048Y0227574D01*
X0255107Y0227565D01*
X0255168Y0227560D01*
X0255228Y0227558D01*
X0263228Y0227558D01*
X0263288Y0227560D01*
X0263349Y0227565D01*
X0263408Y0227574D01*
X0263467Y0227587D01*
X0263526Y0227603D01*
X0263583Y0227623D01*
X0263638Y0227646D01*
X0263693Y0227673D01*
X0263745Y0227702D01*
X0263796Y0227735D01*
X0263845Y0227771D01*
X0263891Y0227809D01*
X0263935Y0227851D01*
X0263977Y0227895D01*
X0264015Y0227941D01*
X0264051Y0227990D01*
X0264084Y0228041D01*
X0264113Y0228093D01*
X0264140Y0228148D01*
X0264163Y0228203D01*
X0264183Y0228260D01*
X0264199Y0228319D01*
X0264212Y0228378D01*
X0264221Y0228437D01*
X0264226Y0228498D01*
X0264228Y0228558D01*
X0259228Y0235558D02*
X0259228Y0236058D01*
X0259228Y0238058D02*
X0259228Y0238558D01*
X0250728Y0236683D02*
X0250728Y0235183D01*
X0250228Y0234683D01*
X0250228Y0220683D01*
X0250728Y0220183D01*
X0250728Y0218683D01*
X0250726Y0218623D01*
X0250721Y0218562D01*
X0250712Y0218503D01*
X0250699Y0218444D01*
X0250683Y0218385D01*
X0250663Y0218328D01*
X0250640Y0218273D01*
X0250613Y0218218D01*
X0250584Y0218166D01*
X0250551Y0218115D01*
X0250515Y0218066D01*
X0250477Y0218020D01*
X0250435Y0217976D01*
X0250391Y0217934D01*
X0250345Y0217896D01*
X0250296Y0217860D01*
X0250245Y0217827D01*
X0250193Y0217798D01*
X0250138Y0217771D01*
X0250083Y0217748D01*
X0250026Y0217728D01*
X0249967Y0217712D01*
X0249908Y0217699D01*
X0249849Y0217690D01*
X0249788Y0217685D01*
X0249728Y0217683D01*
X0243728Y0217683D01*
X0243668Y0217685D01*
X0243607Y0217690D01*
X0243548Y0217699D01*
X0243489Y0217712D01*
X0243430Y0217728D01*
X0243373Y0217748D01*
X0243318Y0217771D01*
X0243263Y0217798D01*
X0243211Y0217827D01*
X0243160Y0217860D01*
X0243111Y0217896D01*
X0243065Y0217934D01*
X0243021Y0217976D01*
X0242979Y0218020D01*
X0242941Y0218066D01*
X0242905Y0218115D01*
X0242872Y0218166D01*
X0242843Y0218218D01*
X0242816Y0218273D01*
X0242793Y0218328D01*
X0242773Y0218385D01*
X0242757Y0218444D01*
X0242744Y0218503D01*
X0242735Y0218562D01*
X0242730Y0218623D01*
X0242728Y0218683D01*
X0242728Y0220183D01*
X0243228Y0220683D01*
X0243228Y0234683D01*
X0242728Y0235183D01*
X0242728Y0236683D01*
X0242730Y0236743D01*
X0242735Y0236804D01*
X0242744Y0236863D01*
X0242757Y0236922D01*
X0242773Y0236981D01*
X0242793Y0237038D01*
X0242816Y0237093D01*
X0242843Y0237148D01*
X0242872Y0237200D01*
X0242905Y0237251D01*
X0242941Y0237300D01*
X0242979Y0237346D01*
X0243021Y0237390D01*
X0243065Y0237432D01*
X0243111Y0237470D01*
X0243160Y0237506D01*
X0243211Y0237539D01*
X0243263Y0237568D01*
X0243318Y0237595D01*
X0243373Y0237618D01*
X0243430Y0237638D01*
X0243489Y0237654D01*
X0243548Y0237667D01*
X0243607Y0237676D01*
X0243668Y0237681D01*
X0243728Y0237683D01*
X0249728Y0237683D01*
X0249788Y0237681D01*
X0249849Y0237676D01*
X0249908Y0237667D01*
X0249967Y0237654D01*
X0250026Y0237638D01*
X0250083Y0237618D01*
X0250138Y0237595D01*
X0250193Y0237568D01*
X0250245Y0237539D01*
X0250296Y0237506D01*
X0250345Y0237470D01*
X0250391Y0237432D01*
X0250435Y0237390D01*
X0250477Y0237346D01*
X0250515Y0237300D01*
X0250551Y0237251D01*
X0250584Y0237200D01*
X0250613Y0237148D01*
X0250640Y0237093D01*
X0250663Y0237038D01*
X0250683Y0236981D01*
X0250699Y0236922D01*
X0250712Y0236863D01*
X0250721Y0236804D01*
X0250726Y0236743D01*
X0250728Y0236683D01*
X0238228Y0236683D02*
X0238228Y0235183D01*
X0237728Y0234683D01*
X0237728Y0220683D01*
X0238228Y0220183D01*
X0238228Y0218683D01*
X0238226Y0218623D01*
X0238221Y0218562D01*
X0238212Y0218503D01*
X0238199Y0218444D01*
X0238183Y0218385D01*
X0238163Y0218328D01*
X0238140Y0218273D01*
X0238113Y0218218D01*
X0238084Y0218166D01*
X0238051Y0218115D01*
X0238015Y0218066D01*
X0237977Y0218020D01*
X0237935Y0217976D01*
X0237891Y0217934D01*
X0237845Y0217896D01*
X0237796Y0217860D01*
X0237745Y0217827D01*
X0237693Y0217798D01*
X0237638Y0217771D01*
X0237583Y0217748D01*
X0237526Y0217728D01*
X0237467Y0217712D01*
X0237408Y0217699D01*
X0237349Y0217690D01*
X0237288Y0217685D01*
X0237228Y0217683D01*
X0231228Y0217683D01*
X0231168Y0217685D01*
X0231107Y0217690D01*
X0231048Y0217699D01*
X0230989Y0217712D01*
X0230930Y0217728D01*
X0230873Y0217748D01*
X0230818Y0217771D01*
X0230763Y0217798D01*
X0230711Y0217827D01*
X0230660Y0217860D01*
X0230611Y0217896D01*
X0230565Y0217934D01*
X0230521Y0217976D01*
X0230479Y0218020D01*
X0230441Y0218066D01*
X0230405Y0218115D01*
X0230372Y0218166D01*
X0230343Y0218218D01*
X0230316Y0218273D01*
X0230293Y0218328D01*
X0230273Y0218385D01*
X0230257Y0218444D01*
X0230244Y0218503D01*
X0230235Y0218562D01*
X0230230Y0218623D01*
X0230228Y0218683D01*
X0230228Y0220183D01*
X0230728Y0220683D01*
X0230728Y0234683D01*
X0230228Y0235183D01*
X0230228Y0236683D01*
X0230230Y0236743D01*
X0230235Y0236804D01*
X0230244Y0236863D01*
X0230257Y0236922D01*
X0230273Y0236981D01*
X0230293Y0237038D01*
X0230316Y0237093D01*
X0230343Y0237148D01*
X0230372Y0237200D01*
X0230405Y0237251D01*
X0230441Y0237300D01*
X0230479Y0237346D01*
X0230521Y0237390D01*
X0230565Y0237432D01*
X0230611Y0237470D01*
X0230660Y0237506D01*
X0230711Y0237539D01*
X0230763Y0237568D01*
X0230818Y0237595D01*
X0230873Y0237618D01*
X0230930Y0237638D01*
X0230989Y0237654D01*
X0231048Y0237667D01*
X0231107Y0237676D01*
X0231168Y0237681D01*
X0231228Y0237683D01*
X0237228Y0237683D01*
X0237288Y0237681D01*
X0237349Y0237676D01*
X0237408Y0237667D01*
X0237467Y0237654D01*
X0237526Y0237638D01*
X0237583Y0237618D01*
X0237638Y0237595D01*
X0237693Y0237568D01*
X0237745Y0237539D01*
X0237796Y0237506D01*
X0237845Y0237470D01*
X0237891Y0237432D01*
X0237935Y0237390D01*
X0237977Y0237346D01*
X0238015Y0237300D01*
X0238051Y0237251D01*
X0238084Y0237200D01*
X0238113Y0237148D01*
X0238140Y0237093D01*
X0238163Y0237038D01*
X0238183Y0236981D01*
X0238199Y0236922D01*
X0238212Y0236863D01*
X0238221Y0236804D01*
X0238226Y0236743D01*
X0238228Y0236683D01*
X0225728Y0224683D02*
X0217728Y0224683D01*
X0217668Y0224681D01*
X0217607Y0224676D01*
X0217548Y0224667D01*
X0217489Y0224654D01*
X0217430Y0224638D01*
X0217373Y0224618D01*
X0217318Y0224595D01*
X0217263Y0224568D01*
X0217211Y0224539D01*
X0217160Y0224506D01*
X0217111Y0224470D01*
X0217065Y0224432D01*
X0217021Y0224390D01*
X0216979Y0224346D01*
X0216941Y0224300D01*
X0216905Y0224251D01*
X0216872Y0224200D01*
X0216843Y0224148D01*
X0216816Y0224093D01*
X0216793Y0224038D01*
X0216773Y0223981D01*
X0216757Y0223922D01*
X0216744Y0223863D01*
X0216735Y0223804D01*
X0216730Y0223743D01*
X0216728Y0223683D01*
X0216728Y0206683D01*
X0216730Y0206623D01*
X0216735Y0206562D01*
X0216744Y0206503D01*
X0216757Y0206444D01*
X0216773Y0206385D01*
X0216793Y0206328D01*
X0216816Y0206273D01*
X0216843Y0206218D01*
X0216872Y0206166D01*
X0216905Y0206115D01*
X0216941Y0206066D01*
X0216979Y0206020D01*
X0217021Y0205976D01*
X0217065Y0205934D01*
X0217111Y0205896D01*
X0217160Y0205860D01*
X0217211Y0205827D01*
X0217263Y0205798D01*
X0217318Y0205771D01*
X0217373Y0205748D01*
X0217430Y0205728D01*
X0217489Y0205712D01*
X0217548Y0205699D01*
X0217607Y0205690D01*
X0217668Y0205685D01*
X0217728Y0205683D01*
X0225728Y0205683D01*
X0225788Y0205685D01*
X0225849Y0205690D01*
X0225908Y0205699D01*
X0225967Y0205712D01*
X0226026Y0205728D01*
X0226083Y0205748D01*
X0226138Y0205771D01*
X0226193Y0205798D01*
X0226245Y0205827D01*
X0226296Y0205860D01*
X0226345Y0205896D01*
X0226391Y0205934D01*
X0226435Y0205976D01*
X0226477Y0206020D01*
X0226515Y0206066D01*
X0226551Y0206115D01*
X0226584Y0206166D01*
X0226613Y0206218D01*
X0226640Y0206273D01*
X0226663Y0206328D01*
X0226683Y0206385D01*
X0226699Y0206444D01*
X0226712Y0206503D01*
X0226721Y0206562D01*
X0226726Y0206623D01*
X0226728Y0206683D01*
X0226728Y0223683D01*
X0226726Y0223743D01*
X0226721Y0223804D01*
X0226712Y0223863D01*
X0226699Y0223922D01*
X0226683Y0223981D01*
X0226663Y0224038D01*
X0226640Y0224093D01*
X0226613Y0224148D01*
X0226584Y0224200D01*
X0226551Y0224251D01*
X0226515Y0224300D01*
X0226477Y0224346D01*
X0226435Y0224390D01*
X0226391Y0224432D01*
X0226345Y0224470D01*
X0226296Y0224506D01*
X0226245Y0224539D01*
X0226193Y0224568D01*
X0226138Y0224595D01*
X0226083Y0224618D01*
X0226026Y0224638D01*
X0225967Y0224654D01*
X0225908Y0224667D01*
X0225849Y0224676D01*
X0225788Y0224681D01*
X0225728Y0224683D01*
X0221728Y0216683D02*
X0221728Y0216183D01*
X0221728Y0214183D02*
X0221728Y0213683D01*
X0216353Y0253933D02*
X0233353Y0253933D01*
X0233413Y0253935D01*
X0233474Y0253940D01*
X0233533Y0253949D01*
X0233592Y0253962D01*
X0233651Y0253978D01*
X0233708Y0253998D01*
X0233763Y0254021D01*
X0233818Y0254048D01*
X0233870Y0254077D01*
X0233921Y0254110D01*
X0233970Y0254146D01*
X0234016Y0254184D01*
X0234060Y0254226D01*
X0234102Y0254270D01*
X0234140Y0254316D01*
X0234176Y0254365D01*
X0234209Y0254416D01*
X0234238Y0254468D01*
X0234265Y0254523D01*
X0234288Y0254578D01*
X0234308Y0254635D01*
X0234324Y0254694D01*
X0234337Y0254753D01*
X0234346Y0254812D01*
X0234351Y0254873D01*
X0234353Y0254933D01*
X0234353Y0262933D01*
X0234351Y0262993D01*
X0234346Y0263054D01*
X0234337Y0263113D01*
X0234324Y0263172D01*
X0234308Y0263231D01*
X0234288Y0263288D01*
X0234265Y0263343D01*
X0234238Y0263398D01*
X0234209Y0263450D01*
X0234176Y0263501D01*
X0234140Y0263550D01*
X0234102Y0263596D01*
X0234060Y0263640D01*
X0234016Y0263682D01*
X0233970Y0263720D01*
X0233921Y0263756D01*
X0233870Y0263789D01*
X0233818Y0263818D01*
X0233763Y0263845D01*
X0233708Y0263868D01*
X0233651Y0263888D01*
X0233592Y0263904D01*
X0233533Y0263917D01*
X0233474Y0263926D01*
X0233413Y0263931D01*
X0233353Y0263933D01*
X0216353Y0263933D01*
X0216293Y0263931D01*
X0216232Y0263926D01*
X0216173Y0263917D01*
X0216114Y0263904D01*
X0216055Y0263888D01*
X0215998Y0263868D01*
X0215943Y0263845D01*
X0215888Y0263818D01*
X0215836Y0263789D01*
X0215785Y0263756D01*
X0215736Y0263720D01*
X0215690Y0263682D01*
X0215646Y0263640D01*
X0215604Y0263596D01*
X0215566Y0263550D01*
X0215530Y0263501D01*
X0215497Y0263450D01*
X0215468Y0263398D01*
X0215441Y0263343D01*
X0215418Y0263288D01*
X0215398Y0263231D01*
X0215382Y0263172D01*
X0215369Y0263113D01*
X0215360Y0263054D01*
X0215355Y0262993D01*
X0215353Y0262933D01*
X0215353Y0254933D01*
X0215355Y0254873D01*
X0215360Y0254812D01*
X0215369Y0254753D01*
X0215382Y0254694D01*
X0215398Y0254635D01*
X0215418Y0254578D01*
X0215441Y0254523D01*
X0215468Y0254468D01*
X0215497Y0254416D01*
X0215530Y0254365D01*
X0215566Y0254316D01*
X0215604Y0254270D01*
X0215646Y0254226D01*
X0215690Y0254184D01*
X0215736Y0254146D01*
X0215785Y0254110D01*
X0215836Y0254077D01*
X0215888Y0254048D01*
X0215943Y0254021D01*
X0215998Y0253998D01*
X0216055Y0253978D01*
X0216114Y0253962D01*
X0216173Y0253949D01*
X0216232Y0253940D01*
X0216293Y0253935D01*
X0216353Y0253933D01*
X0223353Y0258933D02*
X0223853Y0258933D01*
X0225853Y0258933D02*
X0226353Y0258933D01*
X0205978Y0280183D02*
X0199978Y0280183D01*
X0199918Y0280185D01*
X0199857Y0280190D01*
X0199798Y0280199D01*
X0199739Y0280212D01*
X0199680Y0280228D01*
X0199623Y0280248D01*
X0199568Y0280271D01*
X0199513Y0280298D01*
X0199461Y0280327D01*
X0199410Y0280360D01*
X0199361Y0280396D01*
X0199315Y0280434D01*
X0199271Y0280476D01*
X0199229Y0280520D01*
X0199191Y0280566D01*
X0199155Y0280615D01*
X0199122Y0280666D01*
X0199093Y0280718D01*
X0199066Y0280773D01*
X0199043Y0280828D01*
X0199023Y0280885D01*
X0199007Y0280944D01*
X0198994Y0281003D01*
X0198985Y0281062D01*
X0198980Y0281123D01*
X0198978Y0281183D01*
X0198978Y0282683D01*
X0199478Y0283183D01*
X0199478Y0297183D01*
X0198978Y0297683D01*
X0198978Y0299183D01*
X0198980Y0299243D01*
X0198985Y0299304D01*
X0198994Y0299363D01*
X0199007Y0299422D01*
X0199023Y0299481D01*
X0199043Y0299538D01*
X0199066Y0299593D01*
X0199093Y0299648D01*
X0199122Y0299700D01*
X0199155Y0299751D01*
X0199191Y0299800D01*
X0199229Y0299846D01*
X0199271Y0299890D01*
X0199315Y0299932D01*
X0199361Y0299970D01*
X0199410Y0300006D01*
X0199461Y0300039D01*
X0199513Y0300068D01*
X0199568Y0300095D01*
X0199623Y0300118D01*
X0199680Y0300138D01*
X0199739Y0300154D01*
X0199798Y0300167D01*
X0199857Y0300176D01*
X0199918Y0300181D01*
X0199978Y0300183D01*
X0205978Y0300183D01*
X0206038Y0300181D01*
X0206099Y0300176D01*
X0206158Y0300167D01*
X0206217Y0300154D01*
X0206276Y0300138D01*
X0206333Y0300118D01*
X0206388Y0300095D01*
X0206443Y0300068D01*
X0206495Y0300039D01*
X0206546Y0300006D01*
X0206595Y0299970D01*
X0206641Y0299932D01*
X0206685Y0299890D01*
X0206727Y0299846D01*
X0206765Y0299800D01*
X0206801Y0299751D01*
X0206834Y0299700D01*
X0206863Y0299648D01*
X0206890Y0299593D01*
X0206913Y0299538D01*
X0206933Y0299481D01*
X0206949Y0299422D01*
X0206962Y0299363D01*
X0206971Y0299304D01*
X0206976Y0299243D01*
X0206978Y0299183D01*
X0206978Y0297683D01*
X0206478Y0297183D01*
X0206478Y0283183D01*
X0206978Y0282683D01*
X0206978Y0281183D01*
X0206976Y0281123D01*
X0206971Y0281062D01*
X0206962Y0281003D01*
X0206949Y0280944D01*
X0206933Y0280885D01*
X0206913Y0280828D01*
X0206890Y0280773D01*
X0206863Y0280718D01*
X0206834Y0280666D01*
X0206801Y0280615D01*
X0206765Y0280566D01*
X0206727Y0280520D01*
X0206685Y0280476D01*
X0206641Y0280434D01*
X0206595Y0280396D01*
X0206546Y0280360D01*
X0206495Y0280327D01*
X0206443Y0280298D01*
X0206388Y0280271D01*
X0206333Y0280248D01*
X0206276Y0280228D01*
X0206217Y0280212D01*
X0206158Y0280199D01*
X0206099Y0280190D01*
X0206038Y0280185D01*
X0205978Y0280183D01*
X0194478Y0281183D02*
X0194478Y0282683D01*
X0193978Y0283183D01*
X0193978Y0297183D01*
X0194478Y0297683D01*
X0194478Y0299183D01*
X0194476Y0299243D01*
X0194471Y0299304D01*
X0194462Y0299363D01*
X0194449Y0299422D01*
X0194433Y0299481D01*
X0194413Y0299538D01*
X0194390Y0299593D01*
X0194363Y0299648D01*
X0194334Y0299700D01*
X0194301Y0299751D01*
X0194265Y0299800D01*
X0194227Y0299846D01*
X0194185Y0299890D01*
X0194141Y0299932D01*
X0194095Y0299970D01*
X0194046Y0300006D01*
X0193995Y0300039D01*
X0193943Y0300068D01*
X0193888Y0300095D01*
X0193833Y0300118D01*
X0193776Y0300138D01*
X0193717Y0300154D01*
X0193658Y0300167D01*
X0193599Y0300176D01*
X0193538Y0300181D01*
X0193478Y0300183D01*
X0187478Y0300183D01*
X0187418Y0300181D01*
X0187357Y0300176D01*
X0187298Y0300167D01*
X0187239Y0300154D01*
X0187180Y0300138D01*
X0187123Y0300118D01*
X0187068Y0300095D01*
X0187013Y0300068D01*
X0186961Y0300039D01*
X0186910Y0300006D01*
X0186861Y0299970D01*
X0186815Y0299932D01*
X0186771Y0299890D01*
X0186729Y0299846D01*
X0186691Y0299800D01*
X0186655Y0299751D01*
X0186622Y0299700D01*
X0186593Y0299648D01*
X0186566Y0299593D01*
X0186543Y0299538D01*
X0186523Y0299481D01*
X0186507Y0299422D01*
X0186494Y0299363D01*
X0186485Y0299304D01*
X0186480Y0299243D01*
X0186478Y0299183D01*
X0186478Y0297683D01*
X0186978Y0297183D01*
X0186978Y0283183D01*
X0186478Y0282683D01*
X0186478Y0281183D01*
X0186480Y0281123D01*
X0186485Y0281062D01*
X0186494Y0281003D01*
X0186507Y0280944D01*
X0186523Y0280885D01*
X0186543Y0280828D01*
X0186566Y0280773D01*
X0186593Y0280718D01*
X0186622Y0280666D01*
X0186655Y0280615D01*
X0186691Y0280566D01*
X0186729Y0280520D01*
X0186771Y0280476D01*
X0186815Y0280434D01*
X0186861Y0280396D01*
X0186910Y0280360D01*
X0186961Y0280327D01*
X0187013Y0280298D01*
X0187068Y0280271D01*
X0187123Y0280248D01*
X0187180Y0280228D01*
X0187239Y0280212D01*
X0187298Y0280199D01*
X0187357Y0280190D01*
X0187418Y0280185D01*
X0187478Y0280183D01*
X0193478Y0280183D01*
X0193538Y0280185D01*
X0193599Y0280190D01*
X0193658Y0280199D01*
X0193717Y0280212D01*
X0193776Y0280228D01*
X0193833Y0280248D01*
X0193888Y0280271D01*
X0193943Y0280298D01*
X0193995Y0280327D01*
X0194046Y0280360D01*
X0194095Y0280396D01*
X0194141Y0280434D01*
X0194185Y0280476D01*
X0194227Y0280520D01*
X0194265Y0280566D01*
X0194301Y0280615D01*
X0194334Y0280666D01*
X0194363Y0280718D01*
X0194390Y0280773D01*
X0194413Y0280828D01*
X0194433Y0280885D01*
X0194449Y0280944D01*
X0194462Y0281003D01*
X0194471Y0281062D01*
X0194476Y0281123D01*
X0194478Y0281183D01*
X0192728Y0311933D02*
X0200728Y0311933D01*
X0200788Y0311935D01*
X0200849Y0311940D01*
X0200908Y0311949D01*
X0200967Y0311962D01*
X0201026Y0311978D01*
X0201083Y0311998D01*
X0201138Y0312021D01*
X0201193Y0312048D01*
X0201245Y0312077D01*
X0201296Y0312110D01*
X0201345Y0312146D01*
X0201391Y0312184D01*
X0201435Y0312226D01*
X0201477Y0312270D01*
X0201515Y0312316D01*
X0201551Y0312365D01*
X0201584Y0312416D01*
X0201613Y0312468D01*
X0201640Y0312523D01*
X0201663Y0312578D01*
X0201683Y0312635D01*
X0201699Y0312694D01*
X0201712Y0312753D01*
X0201721Y0312812D01*
X0201726Y0312873D01*
X0201728Y0312933D01*
X0201728Y0329933D01*
X0201726Y0329993D01*
X0201721Y0330054D01*
X0201712Y0330113D01*
X0201699Y0330172D01*
X0201683Y0330231D01*
X0201663Y0330288D01*
X0201640Y0330343D01*
X0201613Y0330398D01*
X0201584Y0330450D01*
X0201551Y0330501D01*
X0201515Y0330550D01*
X0201477Y0330596D01*
X0201435Y0330640D01*
X0201391Y0330682D01*
X0201345Y0330720D01*
X0201296Y0330756D01*
X0201245Y0330789D01*
X0201193Y0330818D01*
X0201138Y0330845D01*
X0201083Y0330868D01*
X0201026Y0330888D01*
X0200967Y0330904D01*
X0200908Y0330917D01*
X0200849Y0330926D01*
X0200788Y0330931D01*
X0200728Y0330933D01*
X0192728Y0330933D01*
X0192668Y0330931D01*
X0192607Y0330926D01*
X0192548Y0330917D01*
X0192489Y0330904D01*
X0192430Y0330888D01*
X0192373Y0330868D01*
X0192318Y0330845D01*
X0192263Y0330818D01*
X0192211Y0330789D01*
X0192160Y0330756D01*
X0192111Y0330720D01*
X0192065Y0330682D01*
X0192021Y0330640D01*
X0191979Y0330596D01*
X0191941Y0330550D01*
X0191905Y0330501D01*
X0191872Y0330450D01*
X0191843Y0330398D01*
X0191816Y0330343D01*
X0191793Y0330288D01*
X0191773Y0330231D01*
X0191757Y0330172D01*
X0191744Y0330113D01*
X0191735Y0330054D01*
X0191730Y0329993D01*
X0191728Y0329933D01*
X0191728Y0312933D01*
X0191730Y0312873D01*
X0191735Y0312812D01*
X0191744Y0312753D01*
X0191757Y0312694D01*
X0191773Y0312635D01*
X0191793Y0312578D01*
X0191816Y0312523D01*
X0191843Y0312468D01*
X0191872Y0312416D01*
X0191905Y0312365D01*
X0191941Y0312316D01*
X0191979Y0312270D01*
X0192021Y0312226D01*
X0192065Y0312184D01*
X0192111Y0312146D01*
X0192160Y0312110D01*
X0192211Y0312077D01*
X0192263Y0312048D01*
X0192318Y0312021D01*
X0192373Y0311998D01*
X0192430Y0311978D01*
X0192489Y0311962D01*
X0192548Y0311949D01*
X0192607Y0311940D01*
X0192668Y0311935D01*
X0192728Y0311933D01*
X0196728Y0319933D02*
X0196728Y0320433D01*
X0196728Y0322433D02*
X0196728Y0322933D01*
X0212978Y0326433D02*
X0212978Y0316433D01*
X0215478Y0316433D01*
X0217978Y0316433D01*
X0217978Y0326433D01*
X0215478Y0326433D01*
X0212978Y0326433D01*
X0215478Y0326433D02*
X0215478Y0328433D01*
X0226103Y0331683D02*
X0226103Y0348683D01*
X0226105Y0348743D01*
X0226110Y0348804D01*
X0226119Y0348863D01*
X0226132Y0348922D01*
X0226148Y0348981D01*
X0226168Y0349038D01*
X0226191Y0349093D01*
X0226218Y0349148D01*
X0226247Y0349200D01*
X0226280Y0349251D01*
X0226316Y0349300D01*
X0226354Y0349346D01*
X0226396Y0349390D01*
X0226440Y0349432D01*
X0226486Y0349470D01*
X0226535Y0349506D01*
X0226586Y0349539D01*
X0226638Y0349568D01*
X0226693Y0349595D01*
X0226748Y0349618D01*
X0226805Y0349638D01*
X0226864Y0349654D01*
X0226923Y0349667D01*
X0226982Y0349676D01*
X0227043Y0349681D01*
X0227103Y0349683D01*
X0235103Y0349683D01*
X0235163Y0349681D01*
X0235224Y0349676D01*
X0235283Y0349667D01*
X0235342Y0349654D01*
X0235401Y0349638D01*
X0235458Y0349618D01*
X0235513Y0349595D01*
X0235568Y0349568D01*
X0235620Y0349539D01*
X0235671Y0349506D01*
X0235720Y0349470D01*
X0235766Y0349432D01*
X0235810Y0349390D01*
X0235852Y0349346D01*
X0235890Y0349300D01*
X0235926Y0349251D01*
X0235959Y0349200D01*
X0235988Y0349148D01*
X0236015Y0349093D01*
X0236038Y0349038D01*
X0236058Y0348981D01*
X0236074Y0348922D01*
X0236087Y0348863D01*
X0236096Y0348804D01*
X0236101Y0348743D01*
X0236103Y0348683D01*
X0236103Y0331683D01*
X0236101Y0331623D01*
X0236096Y0331562D01*
X0236087Y0331503D01*
X0236074Y0331444D01*
X0236058Y0331385D01*
X0236038Y0331328D01*
X0236015Y0331273D01*
X0235988Y0331218D01*
X0235959Y0331166D01*
X0235926Y0331115D01*
X0235890Y0331066D01*
X0235852Y0331020D01*
X0235810Y0330976D01*
X0235766Y0330934D01*
X0235720Y0330896D01*
X0235671Y0330860D01*
X0235620Y0330827D01*
X0235568Y0330798D01*
X0235513Y0330771D01*
X0235458Y0330748D01*
X0235401Y0330728D01*
X0235342Y0330712D01*
X0235283Y0330699D01*
X0235224Y0330690D01*
X0235163Y0330685D01*
X0235103Y0330683D01*
X0227103Y0330683D01*
X0227043Y0330685D01*
X0226982Y0330690D01*
X0226923Y0330699D01*
X0226864Y0330712D01*
X0226805Y0330728D01*
X0226748Y0330748D01*
X0226693Y0330771D01*
X0226638Y0330798D01*
X0226586Y0330827D01*
X0226535Y0330860D01*
X0226486Y0330896D01*
X0226440Y0330934D01*
X0226396Y0330976D01*
X0226354Y0331020D01*
X0226316Y0331066D01*
X0226280Y0331115D01*
X0226247Y0331166D01*
X0226218Y0331218D01*
X0226191Y0331273D01*
X0226168Y0331328D01*
X0226148Y0331385D01*
X0226132Y0331444D01*
X0226119Y0331503D01*
X0226110Y0331562D01*
X0226105Y0331623D01*
X0226103Y0331683D01*
X0231103Y0338683D02*
X0231103Y0339183D01*
X0231103Y0341183D02*
X0231103Y0341683D01*
X0251103Y0345558D02*
X0251103Y0328558D01*
X0251105Y0328498D01*
X0251110Y0328437D01*
X0251119Y0328378D01*
X0251132Y0328319D01*
X0251148Y0328260D01*
X0251168Y0328203D01*
X0251191Y0328148D01*
X0251218Y0328093D01*
X0251247Y0328041D01*
X0251280Y0327990D01*
X0251316Y0327941D01*
X0251354Y0327895D01*
X0251396Y0327851D01*
X0251440Y0327809D01*
X0251486Y0327771D01*
X0251535Y0327735D01*
X0251586Y0327702D01*
X0251638Y0327673D01*
X0251693Y0327646D01*
X0251748Y0327623D01*
X0251805Y0327603D01*
X0251864Y0327587D01*
X0251923Y0327574D01*
X0251982Y0327565D01*
X0252043Y0327560D01*
X0252103Y0327558D01*
X0260103Y0327558D01*
X0260163Y0327560D01*
X0260224Y0327565D01*
X0260283Y0327574D01*
X0260342Y0327587D01*
X0260401Y0327603D01*
X0260458Y0327623D01*
X0260513Y0327646D01*
X0260568Y0327673D01*
X0260620Y0327702D01*
X0260671Y0327735D01*
X0260720Y0327771D01*
X0260766Y0327809D01*
X0260810Y0327851D01*
X0260852Y0327895D01*
X0260890Y0327941D01*
X0260926Y0327990D01*
X0260959Y0328041D01*
X0260988Y0328093D01*
X0261015Y0328148D01*
X0261038Y0328203D01*
X0261058Y0328260D01*
X0261074Y0328319D01*
X0261087Y0328378D01*
X0261096Y0328437D01*
X0261101Y0328498D01*
X0261103Y0328558D01*
X0261103Y0345558D01*
X0261101Y0345618D01*
X0261096Y0345679D01*
X0261087Y0345738D01*
X0261074Y0345797D01*
X0261058Y0345856D01*
X0261038Y0345913D01*
X0261015Y0345968D01*
X0260988Y0346023D01*
X0260959Y0346075D01*
X0260926Y0346126D01*
X0260890Y0346175D01*
X0260852Y0346221D01*
X0260810Y0346265D01*
X0260766Y0346307D01*
X0260720Y0346345D01*
X0260671Y0346381D01*
X0260620Y0346414D01*
X0260568Y0346443D01*
X0260513Y0346470D01*
X0260458Y0346493D01*
X0260401Y0346513D01*
X0260342Y0346529D01*
X0260283Y0346542D01*
X0260224Y0346551D01*
X0260163Y0346556D01*
X0260103Y0346558D01*
X0252103Y0346558D01*
X0252043Y0346556D01*
X0251982Y0346551D01*
X0251923Y0346542D01*
X0251864Y0346529D01*
X0251805Y0346513D01*
X0251748Y0346493D01*
X0251693Y0346470D01*
X0251638Y0346443D01*
X0251586Y0346414D01*
X0251535Y0346381D01*
X0251486Y0346345D01*
X0251440Y0346307D01*
X0251396Y0346265D01*
X0251354Y0346221D01*
X0251316Y0346175D01*
X0251280Y0346126D01*
X0251247Y0346075D01*
X0251218Y0346023D01*
X0251191Y0345968D01*
X0251168Y0345913D01*
X0251148Y0345856D01*
X0251132Y0345797D01*
X0251119Y0345738D01*
X0251110Y0345679D01*
X0251105Y0345618D01*
X0251103Y0345558D01*
X0256103Y0338558D02*
X0256103Y0338058D01*
X0256103Y0336058D02*
X0256103Y0335558D01*
X0215478Y0316433D02*
X0215478Y0314433D01*
X0225728Y0157683D02*
X0242728Y0157683D01*
X0242788Y0157681D01*
X0242849Y0157676D01*
X0242908Y0157667D01*
X0242967Y0157654D01*
X0243026Y0157638D01*
X0243083Y0157618D01*
X0243138Y0157595D01*
X0243193Y0157568D01*
X0243245Y0157539D01*
X0243296Y0157506D01*
X0243345Y0157470D01*
X0243391Y0157432D01*
X0243435Y0157390D01*
X0243477Y0157346D01*
X0243515Y0157300D01*
X0243551Y0157251D01*
X0243584Y0157200D01*
X0243613Y0157148D01*
X0243640Y0157093D01*
X0243663Y0157038D01*
X0243683Y0156981D01*
X0243699Y0156922D01*
X0243712Y0156863D01*
X0243721Y0156804D01*
X0243726Y0156743D01*
X0243728Y0156683D01*
X0243728Y0148683D01*
X0243726Y0148623D01*
X0243721Y0148562D01*
X0243712Y0148503D01*
X0243699Y0148444D01*
X0243683Y0148385D01*
X0243663Y0148328D01*
X0243640Y0148273D01*
X0243613Y0148218D01*
X0243584Y0148166D01*
X0243551Y0148115D01*
X0243515Y0148066D01*
X0243477Y0148020D01*
X0243435Y0147976D01*
X0243391Y0147934D01*
X0243345Y0147896D01*
X0243296Y0147860D01*
X0243245Y0147827D01*
X0243193Y0147798D01*
X0243138Y0147771D01*
X0243083Y0147748D01*
X0243026Y0147728D01*
X0242967Y0147712D01*
X0242908Y0147699D01*
X0242849Y0147690D01*
X0242788Y0147685D01*
X0242728Y0147683D01*
X0225728Y0147683D01*
X0225668Y0147685D01*
X0225607Y0147690D01*
X0225548Y0147699D01*
X0225489Y0147712D01*
X0225430Y0147728D01*
X0225373Y0147748D01*
X0225318Y0147771D01*
X0225263Y0147798D01*
X0225211Y0147827D01*
X0225160Y0147860D01*
X0225111Y0147896D01*
X0225065Y0147934D01*
X0225021Y0147976D01*
X0224979Y0148020D01*
X0224941Y0148066D01*
X0224905Y0148115D01*
X0224872Y0148166D01*
X0224843Y0148218D01*
X0224816Y0148273D01*
X0224793Y0148328D01*
X0224773Y0148385D01*
X0224757Y0148444D01*
X0224744Y0148503D01*
X0224735Y0148562D01*
X0224730Y0148623D01*
X0224728Y0148683D01*
X0224728Y0156683D01*
X0224730Y0156743D01*
X0224735Y0156804D01*
X0224744Y0156863D01*
X0224757Y0156922D01*
X0224773Y0156981D01*
X0224793Y0157038D01*
X0224816Y0157093D01*
X0224843Y0157148D01*
X0224872Y0157200D01*
X0224905Y0157251D01*
X0224941Y0157300D01*
X0224979Y0157346D01*
X0225021Y0157390D01*
X0225065Y0157432D01*
X0225111Y0157470D01*
X0225160Y0157506D01*
X0225211Y0157539D01*
X0225263Y0157568D01*
X0225318Y0157595D01*
X0225373Y0157618D01*
X0225430Y0157638D01*
X0225489Y0157654D01*
X0225548Y0157667D01*
X0225607Y0157676D01*
X0225668Y0157681D01*
X0225728Y0157683D01*
X0232728Y0152683D02*
X0233228Y0152683D01*
X0235228Y0152683D02*
X0235728Y0152683D01*
X0249728Y0156683D02*
X0249728Y0148683D01*
X0249730Y0148623D01*
X0249735Y0148562D01*
X0249744Y0148503D01*
X0249757Y0148444D01*
X0249773Y0148385D01*
X0249793Y0148328D01*
X0249816Y0148273D01*
X0249843Y0148218D01*
X0249872Y0148166D01*
X0249905Y0148115D01*
X0249941Y0148066D01*
X0249979Y0148020D01*
X0250021Y0147976D01*
X0250065Y0147934D01*
X0250111Y0147896D01*
X0250160Y0147860D01*
X0250211Y0147827D01*
X0250263Y0147798D01*
X0250318Y0147771D01*
X0250373Y0147748D01*
X0250430Y0147728D01*
X0250489Y0147712D01*
X0250548Y0147699D01*
X0250607Y0147690D01*
X0250668Y0147685D01*
X0250728Y0147683D01*
X0267728Y0147683D01*
X0267788Y0147685D01*
X0267849Y0147690D01*
X0267908Y0147699D01*
X0267967Y0147712D01*
X0268026Y0147728D01*
X0268083Y0147748D01*
X0268138Y0147771D01*
X0268193Y0147798D01*
X0268245Y0147827D01*
X0268296Y0147860D01*
X0268345Y0147896D01*
X0268391Y0147934D01*
X0268435Y0147976D01*
X0268477Y0148020D01*
X0268515Y0148066D01*
X0268551Y0148115D01*
X0268584Y0148166D01*
X0268613Y0148218D01*
X0268640Y0148273D01*
X0268663Y0148328D01*
X0268683Y0148385D01*
X0268699Y0148444D01*
X0268712Y0148503D01*
X0268721Y0148562D01*
X0268726Y0148623D01*
X0268728Y0148683D01*
X0268728Y0156683D01*
X0268726Y0156743D01*
X0268721Y0156804D01*
X0268712Y0156863D01*
X0268699Y0156922D01*
X0268683Y0156981D01*
X0268663Y0157038D01*
X0268640Y0157093D01*
X0268613Y0157148D01*
X0268584Y0157200D01*
X0268551Y0157251D01*
X0268515Y0157300D01*
X0268477Y0157346D01*
X0268435Y0157390D01*
X0268391Y0157432D01*
X0268345Y0157470D01*
X0268296Y0157506D01*
X0268245Y0157539D01*
X0268193Y0157568D01*
X0268138Y0157595D01*
X0268083Y0157618D01*
X0268026Y0157638D01*
X0267967Y0157654D01*
X0267908Y0157667D01*
X0267849Y0157676D01*
X0267788Y0157681D01*
X0267728Y0157683D01*
X0250728Y0157683D01*
X0250668Y0157681D01*
X0250607Y0157676D01*
X0250548Y0157667D01*
X0250489Y0157654D01*
X0250430Y0157638D01*
X0250373Y0157618D01*
X0250318Y0157595D01*
X0250263Y0157568D01*
X0250211Y0157539D01*
X0250160Y0157506D01*
X0250111Y0157470D01*
X0250065Y0157432D01*
X0250021Y0157390D01*
X0249979Y0157346D01*
X0249941Y0157300D01*
X0249905Y0157251D01*
X0249872Y0157200D01*
X0249843Y0157148D01*
X0249816Y0157093D01*
X0249793Y0157038D01*
X0249773Y0156981D01*
X0249757Y0156922D01*
X0249744Y0156863D01*
X0249735Y0156804D01*
X0249730Y0156743D01*
X0249728Y0156683D01*
X0257728Y0152683D02*
X0258228Y0152683D01*
X0260228Y0152683D02*
X0260728Y0152683D01*
X0255978Y0137683D02*
X0249978Y0137683D01*
X0249918Y0137681D01*
X0249857Y0137676D01*
X0249798Y0137667D01*
X0249739Y0137654D01*
X0249680Y0137638D01*
X0249623Y0137618D01*
X0249568Y0137595D01*
X0249513Y0137568D01*
X0249461Y0137539D01*
X0249410Y0137506D01*
X0249361Y0137470D01*
X0249315Y0137432D01*
X0249271Y0137390D01*
X0249229Y0137346D01*
X0249191Y0137300D01*
X0249155Y0137251D01*
X0249122Y0137200D01*
X0249093Y0137148D01*
X0249066Y0137093D01*
X0249043Y0137038D01*
X0249023Y0136981D01*
X0249007Y0136922D01*
X0248994Y0136863D01*
X0248985Y0136804D01*
X0248980Y0136743D01*
X0248978Y0136683D01*
X0248978Y0135183D01*
X0249478Y0134683D01*
X0249478Y0120683D01*
X0248978Y0120183D01*
X0248978Y0118683D01*
X0248980Y0118623D01*
X0248985Y0118562D01*
X0248994Y0118503D01*
X0249007Y0118444D01*
X0249023Y0118385D01*
X0249043Y0118328D01*
X0249066Y0118273D01*
X0249093Y0118218D01*
X0249122Y0118166D01*
X0249155Y0118115D01*
X0249191Y0118066D01*
X0249229Y0118020D01*
X0249271Y0117976D01*
X0249315Y0117934D01*
X0249361Y0117896D01*
X0249410Y0117860D01*
X0249461Y0117827D01*
X0249513Y0117798D01*
X0249568Y0117771D01*
X0249623Y0117748D01*
X0249680Y0117728D01*
X0249739Y0117712D01*
X0249798Y0117699D01*
X0249857Y0117690D01*
X0249918Y0117685D01*
X0249978Y0117683D01*
X0255978Y0117683D01*
X0256038Y0117685D01*
X0256099Y0117690D01*
X0256158Y0117699D01*
X0256217Y0117712D01*
X0256276Y0117728D01*
X0256333Y0117748D01*
X0256388Y0117771D01*
X0256443Y0117798D01*
X0256495Y0117827D01*
X0256546Y0117860D01*
X0256595Y0117896D01*
X0256641Y0117934D01*
X0256685Y0117976D01*
X0256727Y0118020D01*
X0256765Y0118066D01*
X0256801Y0118115D01*
X0256834Y0118166D01*
X0256863Y0118218D01*
X0256890Y0118273D01*
X0256913Y0118328D01*
X0256933Y0118385D01*
X0256949Y0118444D01*
X0256962Y0118503D01*
X0256971Y0118562D01*
X0256976Y0118623D01*
X0256978Y0118683D01*
X0256978Y0120183D01*
X0256478Y0120683D01*
X0256478Y0134683D01*
X0256978Y0135183D01*
X0256978Y0136683D01*
X0256976Y0136743D01*
X0256971Y0136804D01*
X0256962Y0136863D01*
X0256949Y0136922D01*
X0256933Y0136981D01*
X0256913Y0137038D01*
X0256890Y0137093D01*
X0256863Y0137148D01*
X0256834Y0137200D01*
X0256801Y0137251D01*
X0256765Y0137300D01*
X0256727Y0137346D01*
X0256685Y0137390D01*
X0256641Y0137432D01*
X0256595Y0137470D01*
X0256546Y0137506D01*
X0256495Y0137539D01*
X0256443Y0137568D01*
X0256388Y0137595D01*
X0256333Y0137618D01*
X0256276Y0137638D01*
X0256217Y0137654D01*
X0256158Y0137667D01*
X0256099Y0137676D01*
X0256038Y0137681D01*
X0255978Y0137683D01*
X0266728Y0136183D02*
X0266728Y0119183D01*
X0266730Y0119123D01*
X0266735Y0119062D01*
X0266744Y0119003D01*
X0266757Y0118944D01*
X0266773Y0118885D01*
X0266793Y0118828D01*
X0266816Y0118773D01*
X0266843Y0118718D01*
X0266872Y0118666D01*
X0266905Y0118615D01*
X0266941Y0118566D01*
X0266979Y0118520D01*
X0267021Y0118476D01*
X0267065Y0118434D01*
X0267111Y0118396D01*
X0267160Y0118360D01*
X0267211Y0118327D01*
X0267263Y0118298D01*
X0267318Y0118271D01*
X0267373Y0118248D01*
X0267430Y0118228D01*
X0267489Y0118212D01*
X0267548Y0118199D01*
X0267607Y0118190D01*
X0267668Y0118185D01*
X0267728Y0118183D01*
X0275728Y0118183D01*
X0275788Y0118185D01*
X0275849Y0118190D01*
X0275908Y0118199D01*
X0275967Y0118212D01*
X0276026Y0118228D01*
X0276083Y0118248D01*
X0276138Y0118271D01*
X0276193Y0118298D01*
X0276245Y0118327D01*
X0276296Y0118360D01*
X0276345Y0118396D01*
X0276391Y0118434D01*
X0276435Y0118476D01*
X0276477Y0118520D01*
X0276515Y0118566D01*
X0276551Y0118615D01*
X0276584Y0118666D01*
X0276613Y0118718D01*
X0276640Y0118773D01*
X0276663Y0118828D01*
X0276683Y0118885D01*
X0276699Y0118944D01*
X0276712Y0119003D01*
X0276721Y0119062D01*
X0276726Y0119123D01*
X0276728Y0119183D01*
X0276728Y0136183D01*
X0276726Y0136243D01*
X0276721Y0136304D01*
X0276712Y0136363D01*
X0276699Y0136422D01*
X0276683Y0136481D01*
X0276663Y0136538D01*
X0276640Y0136593D01*
X0276613Y0136648D01*
X0276584Y0136700D01*
X0276551Y0136751D01*
X0276515Y0136800D01*
X0276477Y0136846D01*
X0276435Y0136890D01*
X0276391Y0136932D01*
X0276345Y0136970D01*
X0276296Y0137006D01*
X0276245Y0137039D01*
X0276193Y0137068D01*
X0276138Y0137095D01*
X0276083Y0137118D01*
X0276026Y0137138D01*
X0275967Y0137154D01*
X0275908Y0137167D01*
X0275849Y0137176D01*
X0275788Y0137181D01*
X0275728Y0137183D01*
X0267728Y0137183D01*
X0267668Y0137181D01*
X0267607Y0137176D01*
X0267548Y0137167D01*
X0267489Y0137154D01*
X0267430Y0137138D01*
X0267373Y0137118D01*
X0267318Y0137095D01*
X0267263Y0137068D01*
X0267211Y0137039D01*
X0267160Y0137006D01*
X0267111Y0136970D01*
X0267065Y0136932D01*
X0267021Y0136890D01*
X0266979Y0136846D01*
X0266941Y0136800D01*
X0266905Y0136751D01*
X0266872Y0136700D01*
X0266843Y0136648D01*
X0266816Y0136593D01*
X0266793Y0136538D01*
X0266773Y0136481D01*
X0266757Y0136422D01*
X0266744Y0136363D01*
X0266735Y0136304D01*
X0266730Y0136243D01*
X0266728Y0136183D01*
X0271728Y0129183D02*
X0271728Y0128683D01*
X0271728Y0126683D02*
X0271728Y0126183D01*
X0244478Y0120183D02*
X0244478Y0118683D01*
X0244476Y0118623D01*
X0244471Y0118562D01*
X0244462Y0118503D01*
X0244449Y0118444D01*
X0244433Y0118385D01*
X0244413Y0118328D01*
X0244390Y0118273D01*
X0244363Y0118218D01*
X0244334Y0118166D01*
X0244301Y0118115D01*
X0244265Y0118066D01*
X0244227Y0118020D01*
X0244185Y0117976D01*
X0244141Y0117934D01*
X0244095Y0117896D01*
X0244046Y0117860D01*
X0243995Y0117827D01*
X0243943Y0117798D01*
X0243888Y0117771D01*
X0243833Y0117748D01*
X0243776Y0117728D01*
X0243717Y0117712D01*
X0243658Y0117699D01*
X0243599Y0117690D01*
X0243538Y0117685D01*
X0243478Y0117683D01*
X0237478Y0117683D01*
X0237418Y0117685D01*
X0237357Y0117690D01*
X0237298Y0117699D01*
X0237239Y0117712D01*
X0237180Y0117728D01*
X0237123Y0117748D01*
X0237068Y0117771D01*
X0237013Y0117798D01*
X0236961Y0117827D01*
X0236910Y0117860D01*
X0236861Y0117896D01*
X0236815Y0117934D01*
X0236771Y0117976D01*
X0236729Y0118020D01*
X0236691Y0118066D01*
X0236655Y0118115D01*
X0236622Y0118166D01*
X0236593Y0118218D01*
X0236566Y0118273D01*
X0236543Y0118328D01*
X0236523Y0118385D01*
X0236507Y0118444D01*
X0236494Y0118503D01*
X0236485Y0118562D01*
X0236480Y0118623D01*
X0236478Y0118683D01*
X0236478Y0120183D01*
X0236978Y0120683D01*
X0236978Y0134683D01*
X0236478Y0135183D01*
X0236478Y0136683D01*
X0236480Y0136743D01*
X0236485Y0136804D01*
X0236494Y0136863D01*
X0236507Y0136922D01*
X0236523Y0136981D01*
X0236543Y0137038D01*
X0236566Y0137093D01*
X0236593Y0137148D01*
X0236622Y0137200D01*
X0236655Y0137251D01*
X0236691Y0137300D01*
X0236729Y0137346D01*
X0236771Y0137390D01*
X0236815Y0137432D01*
X0236861Y0137470D01*
X0236910Y0137506D01*
X0236961Y0137539D01*
X0237013Y0137568D01*
X0237068Y0137595D01*
X0237123Y0137618D01*
X0237180Y0137638D01*
X0237239Y0137654D01*
X0237298Y0137667D01*
X0237357Y0137676D01*
X0237418Y0137681D01*
X0237478Y0137683D01*
X0243478Y0137683D01*
X0243538Y0137681D01*
X0243599Y0137676D01*
X0243658Y0137667D01*
X0243717Y0137654D01*
X0243776Y0137638D01*
X0243833Y0137618D01*
X0243888Y0137595D01*
X0243943Y0137568D01*
X0243995Y0137539D01*
X0244046Y0137506D01*
X0244095Y0137470D01*
X0244141Y0137432D01*
X0244185Y0137390D01*
X0244227Y0137346D01*
X0244265Y0137300D01*
X0244301Y0137251D01*
X0244334Y0137200D01*
X0244363Y0137148D01*
X0244390Y0137093D01*
X0244413Y0137038D01*
X0244433Y0136981D01*
X0244449Y0136922D01*
X0244462Y0136863D01*
X0244471Y0136804D01*
X0244476Y0136743D01*
X0244478Y0136683D01*
X0244478Y0135183D01*
X0243978Y0134683D01*
X0243978Y0120683D01*
X0244478Y0120183D01*
X0228853Y0114808D02*
X0228853Y0113308D01*
X0228353Y0112808D01*
X0228353Y0098808D01*
X0228853Y0098308D01*
X0228853Y0096808D01*
X0228851Y0096748D01*
X0228846Y0096687D01*
X0228837Y0096628D01*
X0228824Y0096569D01*
X0228808Y0096510D01*
X0228788Y0096453D01*
X0228765Y0096398D01*
X0228738Y0096343D01*
X0228709Y0096291D01*
X0228676Y0096240D01*
X0228640Y0096191D01*
X0228602Y0096145D01*
X0228560Y0096101D01*
X0228516Y0096059D01*
X0228470Y0096021D01*
X0228421Y0095985D01*
X0228370Y0095952D01*
X0228318Y0095923D01*
X0228263Y0095896D01*
X0228208Y0095873D01*
X0228151Y0095853D01*
X0228092Y0095837D01*
X0228033Y0095824D01*
X0227974Y0095815D01*
X0227913Y0095810D01*
X0227853Y0095808D01*
X0221853Y0095808D01*
X0221793Y0095810D01*
X0221732Y0095815D01*
X0221673Y0095824D01*
X0221614Y0095837D01*
X0221555Y0095853D01*
X0221498Y0095873D01*
X0221443Y0095896D01*
X0221388Y0095923D01*
X0221336Y0095952D01*
X0221285Y0095985D01*
X0221236Y0096021D01*
X0221190Y0096059D01*
X0221146Y0096101D01*
X0221104Y0096145D01*
X0221066Y0096191D01*
X0221030Y0096240D01*
X0220997Y0096291D01*
X0220968Y0096343D01*
X0220941Y0096398D01*
X0220918Y0096453D01*
X0220898Y0096510D01*
X0220882Y0096569D01*
X0220869Y0096628D01*
X0220860Y0096687D01*
X0220855Y0096748D01*
X0220853Y0096808D01*
X0220853Y0098308D01*
X0221353Y0098808D01*
X0221353Y0112808D01*
X0220853Y0113308D01*
X0220853Y0114808D01*
X0220855Y0114868D01*
X0220860Y0114929D01*
X0220869Y0114988D01*
X0220882Y0115047D01*
X0220898Y0115106D01*
X0220918Y0115163D01*
X0220941Y0115218D01*
X0220968Y0115273D01*
X0220997Y0115325D01*
X0221030Y0115376D01*
X0221066Y0115425D01*
X0221104Y0115471D01*
X0221146Y0115515D01*
X0221190Y0115557D01*
X0221236Y0115595D01*
X0221285Y0115631D01*
X0221336Y0115664D01*
X0221388Y0115693D01*
X0221443Y0115720D01*
X0221498Y0115743D01*
X0221555Y0115763D01*
X0221614Y0115779D01*
X0221673Y0115792D01*
X0221732Y0115801D01*
X0221793Y0115806D01*
X0221853Y0115808D01*
X0227853Y0115808D01*
X0227913Y0115806D01*
X0227974Y0115801D01*
X0228033Y0115792D01*
X0228092Y0115779D01*
X0228151Y0115763D01*
X0228208Y0115743D01*
X0228263Y0115720D01*
X0228318Y0115693D01*
X0228370Y0115664D01*
X0228421Y0115631D01*
X0228470Y0115595D01*
X0228516Y0115557D01*
X0228560Y0115515D01*
X0228602Y0115471D01*
X0228640Y0115425D01*
X0228676Y0115376D01*
X0228709Y0115325D01*
X0228738Y0115273D01*
X0228765Y0115218D01*
X0228788Y0115163D01*
X0228808Y0115106D01*
X0228824Y0115047D01*
X0228837Y0114988D01*
X0228846Y0114929D01*
X0228851Y0114868D01*
X0228853Y0114808D01*
X0299728Y0145558D02*
X0299728Y0153558D01*
X0299730Y0153618D01*
X0299735Y0153679D01*
X0299744Y0153738D01*
X0299757Y0153797D01*
X0299773Y0153856D01*
X0299793Y0153913D01*
X0299816Y0153968D01*
X0299843Y0154023D01*
X0299872Y0154075D01*
X0299905Y0154126D01*
X0299941Y0154175D01*
X0299979Y0154221D01*
X0300021Y0154265D01*
X0300065Y0154307D01*
X0300111Y0154345D01*
X0300160Y0154381D01*
X0300211Y0154414D01*
X0300263Y0154443D01*
X0300318Y0154470D01*
X0300373Y0154493D01*
X0300430Y0154513D01*
X0300489Y0154529D01*
X0300548Y0154542D01*
X0300607Y0154551D01*
X0300668Y0154556D01*
X0300728Y0154558D01*
X0317728Y0154558D01*
X0317788Y0154556D01*
X0317849Y0154551D01*
X0317908Y0154542D01*
X0317967Y0154529D01*
X0318026Y0154513D01*
X0318083Y0154493D01*
X0318138Y0154470D01*
X0318193Y0154443D01*
X0318245Y0154414D01*
X0318296Y0154381D01*
X0318345Y0154345D01*
X0318391Y0154307D01*
X0318435Y0154265D01*
X0318477Y0154221D01*
X0318515Y0154175D01*
X0318551Y0154126D01*
X0318584Y0154075D01*
X0318613Y0154023D01*
X0318640Y0153968D01*
X0318663Y0153913D01*
X0318683Y0153856D01*
X0318699Y0153797D01*
X0318712Y0153738D01*
X0318721Y0153679D01*
X0318726Y0153618D01*
X0318728Y0153558D01*
X0318728Y0145558D01*
X0318726Y0145498D01*
X0318721Y0145437D01*
X0318712Y0145378D01*
X0318699Y0145319D01*
X0318683Y0145260D01*
X0318663Y0145203D01*
X0318640Y0145148D01*
X0318613Y0145093D01*
X0318584Y0145041D01*
X0318551Y0144990D01*
X0318515Y0144941D01*
X0318477Y0144895D01*
X0318435Y0144851D01*
X0318391Y0144809D01*
X0318345Y0144771D01*
X0318296Y0144735D01*
X0318245Y0144702D01*
X0318193Y0144673D01*
X0318138Y0144646D01*
X0318083Y0144623D01*
X0318026Y0144603D01*
X0317967Y0144587D01*
X0317908Y0144574D01*
X0317849Y0144565D01*
X0317788Y0144560D01*
X0317728Y0144558D01*
X0300728Y0144558D01*
X0300668Y0144560D01*
X0300607Y0144565D01*
X0300548Y0144574D01*
X0300489Y0144587D01*
X0300430Y0144603D01*
X0300373Y0144623D01*
X0300318Y0144646D01*
X0300263Y0144673D01*
X0300211Y0144702D01*
X0300160Y0144735D01*
X0300111Y0144771D01*
X0300065Y0144809D01*
X0300021Y0144851D01*
X0299979Y0144895D01*
X0299941Y0144941D01*
X0299905Y0144990D01*
X0299872Y0145041D01*
X0299843Y0145093D01*
X0299816Y0145148D01*
X0299793Y0145203D01*
X0299773Y0145260D01*
X0299757Y0145319D01*
X0299744Y0145378D01*
X0299735Y0145437D01*
X0299730Y0145498D01*
X0299728Y0145558D01*
X0307728Y0149558D02*
X0308228Y0149558D01*
X0310228Y0149558D02*
X0310728Y0149558D01*
X0304853Y0129808D02*
X0304853Y0122308D01*
X0304979Y0122306D01*
X0305104Y0122300D01*
X0305229Y0122290D01*
X0305354Y0122276D01*
X0305479Y0122259D01*
X0305603Y0122237D01*
X0305726Y0122212D01*
X0305848Y0122182D01*
X0305969Y0122149D01*
X0306089Y0122112D01*
X0306208Y0122072D01*
X0306325Y0122027D01*
X0306442Y0121979D01*
X0306556Y0121927D01*
X0306669Y0121872D01*
X0306780Y0121813D01*
X0306889Y0121751D01*
X0306996Y0121685D01*
X0307101Y0121616D01*
X0307204Y0121544D01*
X0307305Y0121469D01*
X0307403Y0121390D01*
X0307498Y0121308D01*
X0307591Y0121224D01*
X0307681Y0121136D01*
X0307769Y0121046D01*
X0307853Y0120953D01*
X0307935Y0120858D01*
X0308014Y0120760D01*
X0308089Y0120659D01*
X0308161Y0120556D01*
X0308230Y0120451D01*
X0308296Y0120344D01*
X0308358Y0120235D01*
X0308417Y0120124D01*
X0308472Y0120011D01*
X0308524Y0119897D01*
X0308572Y0119780D01*
X0308617Y0119663D01*
X0308657Y0119544D01*
X0308694Y0119424D01*
X0308727Y0119303D01*
X0308757Y0119181D01*
X0308782Y0119058D01*
X0308804Y0118934D01*
X0308821Y0118809D01*
X0308835Y0118684D01*
X0308845Y0118559D01*
X0308851Y0118434D01*
X0308853Y0118308D01*
X0308851Y0118182D01*
X0308845Y0118057D01*
X0308835Y0117932D01*
X0308821Y0117807D01*
X0308804Y0117682D01*
X0308782Y0117558D01*
X0308757Y0117435D01*
X0308727Y0117313D01*
X0308694Y0117192D01*
X0308657Y0117072D01*
X0308617Y0116953D01*
X0308572Y0116836D01*
X0308524Y0116719D01*
X0308472Y0116605D01*
X0308417Y0116492D01*
X0308358Y0116381D01*
X0308296Y0116272D01*
X0308230Y0116165D01*
X0308161Y0116060D01*
X0308089Y0115957D01*
X0308014Y0115856D01*
X0307935Y0115758D01*
X0307853Y0115663D01*
X0307769Y0115570D01*
X0307681Y0115480D01*
X0307591Y0115392D01*
X0307498Y0115308D01*
X0307403Y0115226D01*
X0307305Y0115147D01*
X0307204Y0115072D01*
X0307101Y0115000D01*
X0306996Y0114931D01*
X0306889Y0114865D01*
X0306780Y0114803D01*
X0306669Y0114744D01*
X0306556Y0114689D01*
X0306442Y0114637D01*
X0306325Y0114589D01*
X0306208Y0114544D01*
X0306089Y0114504D01*
X0305969Y0114467D01*
X0305848Y0114434D01*
X0305726Y0114404D01*
X0305603Y0114379D01*
X0305479Y0114357D01*
X0305354Y0114340D01*
X0305229Y0114326D01*
X0305104Y0114316D01*
X0304979Y0114310D01*
X0304853Y0114308D01*
X0304853Y0106808D01*
X0344853Y0106808D01*
X0344853Y0129808D01*
X0304853Y0129808D01*
X0347978Y0126808D02*
X0347978Y0109808D01*
X0347980Y0109748D01*
X0347985Y0109687D01*
X0347994Y0109628D01*
X0348007Y0109569D01*
X0348023Y0109510D01*
X0348043Y0109453D01*
X0348066Y0109398D01*
X0348093Y0109343D01*
X0348122Y0109291D01*
X0348155Y0109240D01*
X0348191Y0109191D01*
X0348229Y0109145D01*
X0348271Y0109101D01*
X0348315Y0109059D01*
X0348361Y0109021D01*
X0348410Y0108985D01*
X0348461Y0108952D01*
X0348513Y0108923D01*
X0348568Y0108896D01*
X0348623Y0108873D01*
X0348680Y0108853D01*
X0348739Y0108837D01*
X0348798Y0108824D01*
X0348857Y0108815D01*
X0348918Y0108810D01*
X0348978Y0108808D01*
X0356978Y0108808D01*
X0357038Y0108810D01*
X0357099Y0108815D01*
X0357158Y0108824D01*
X0357217Y0108837D01*
X0357276Y0108853D01*
X0357333Y0108873D01*
X0357388Y0108896D01*
X0357443Y0108923D01*
X0357495Y0108952D01*
X0357546Y0108985D01*
X0357595Y0109021D01*
X0357641Y0109059D01*
X0357685Y0109101D01*
X0357727Y0109145D01*
X0357765Y0109191D01*
X0357801Y0109240D01*
X0357834Y0109291D01*
X0357863Y0109343D01*
X0357890Y0109398D01*
X0357913Y0109453D01*
X0357933Y0109510D01*
X0357949Y0109569D01*
X0357962Y0109628D01*
X0357971Y0109687D01*
X0357976Y0109748D01*
X0357978Y0109808D01*
X0357978Y0126808D01*
X0357976Y0126868D01*
X0357971Y0126929D01*
X0357962Y0126988D01*
X0357949Y0127047D01*
X0357933Y0127106D01*
X0357913Y0127163D01*
X0357890Y0127218D01*
X0357863Y0127273D01*
X0357834Y0127325D01*
X0357801Y0127376D01*
X0357765Y0127425D01*
X0357727Y0127471D01*
X0357685Y0127515D01*
X0357641Y0127557D01*
X0357595Y0127595D01*
X0357546Y0127631D01*
X0357495Y0127664D01*
X0357443Y0127693D01*
X0357388Y0127720D01*
X0357333Y0127743D01*
X0357276Y0127763D01*
X0357217Y0127779D01*
X0357158Y0127792D01*
X0357099Y0127801D01*
X0357038Y0127806D01*
X0356978Y0127808D01*
X0348978Y0127808D01*
X0348918Y0127806D01*
X0348857Y0127801D01*
X0348798Y0127792D01*
X0348739Y0127779D01*
X0348680Y0127763D01*
X0348623Y0127743D01*
X0348568Y0127720D01*
X0348513Y0127693D01*
X0348461Y0127664D01*
X0348410Y0127631D01*
X0348361Y0127595D01*
X0348315Y0127557D01*
X0348271Y0127515D01*
X0348229Y0127471D01*
X0348191Y0127425D01*
X0348155Y0127376D01*
X0348122Y0127325D01*
X0348093Y0127273D01*
X0348066Y0127218D01*
X0348043Y0127163D01*
X0348023Y0127106D01*
X0348007Y0127047D01*
X0347994Y0126988D01*
X0347985Y0126929D01*
X0347980Y0126868D01*
X0347978Y0126808D01*
X0352978Y0119808D02*
X0352978Y0119308D01*
X0352978Y0117308D02*
X0352978Y0116808D01*
D11*
X0364728Y0216483D02*
X0364659Y0216485D01*
X0364591Y0216491D01*
X0364523Y0216501D01*
X0364456Y0216514D01*
X0364390Y0216532D01*
X0364325Y0216553D01*
X0364261Y0216578D01*
X0364199Y0216606D01*
X0364138Y0216638D01*
X0364079Y0216673D01*
X0364023Y0216712D01*
X0363968Y0216754D01*
X0363917Y0216799D01*
X0363867Y0216847D01*
X0363821Y0216897D01*
X0363778Y0216950D01*
X0363737Y0217006D01*
X0363700Y0217063D01*
X0363667Y0217123D01*
X0363636Y0217185D01*
X0363610Y0217248D01*
X0363587Y0217312D01*
X0363567Y0217378D01*
X0363552Y0217445D01*
X0363540Y0217512D01*
X0363532Y0217580D01*
X0363528Y0217649D01*
X0363528Y0217717D01*
X0363532Y0217786D01*
X0363540Y0217854D01*
X0363552Y0217921D01*
X0363567Y0217988D01*
X0363587Y0218054D01*
X0363610Y0218118D01*
X0363636Y0218181D01*
X0363667Y0218243D01*
X0363700Y0218303D01*
X0363737Y0218360D01*
X0363778Y0218416D01*
X0363821Y0218469D01*
X0363867Y0218519D01*
X0363917Y0218567D01*
X0363968Y0218612D01*
X0364023Y0218654D01*
X0364079Y0218693D01*
X0364138Y0218728D01*
X0364199Y0218760D01*
X0364261Y0218788D01*
X0364325Y0218813D01*
X0364390Y0218834D01*
X0364456Y0218852D01*
X0364523Y0218865D01*
X0364591Y0218875D01*
X0364659Y0218881D01*
X0364728Y0218883D01*
X0384572Y0321433D02*
X0384574Y0321586D01*
X0384580Y0321740D01*
X0384590Y0321893D01*
X0384604Y0322045D01*
X0384622Y0322198D01*
X0384644Y0322349D01*
X0384669Y0322500D01*
X0384699Y0322651D01*
X0384733Y0322801D01*
X0384770Y0322949D01*
X0384811Y0323097D01*
X0384856Y0323243D01*
X0384905Y0323389D01*
X0384958Y0323533D01*
X0385014Y0323675D01*
X0385074Y0323816D01*
X0385138Y0323956D01*
X0385205Y0324094D01*
X0385276Y0324230D01*
X0385351Y0324364D01*
X0385428Y0324496D01*
X0385510Y0324626D01*
X0385594Y0324754D01*
X0385682Y0324880D01*
X0385773Y0325003D01*
X0385867Y0325124D01*
X0385965Y0325242D01*
X0386065Y0325358D01*
X0386169Y0325471D01*
X0386275Y0325582D01*
X0386384Y0325690D01*
X0386496Y0325795D01*
X0386610Y0325896D01*
X0386728Y0325995D01*
X0386847Y0326091D01*
X0386969Y0326184D01*
X0387094Y0326273D01*
X0387221Y0326360D01*
X0387350Y0326442D01*
X0387481Y0326522D01*
X0387614Y0326598D01*
X0387749Y0326671D01*
X0387886Y0326740D01*
X0388025Y0326805D01*
X0388165Y0326867D01*
X0388307Y0326925D01*
X0388450Y0326980D01*
X0388595Y0327031D01*
X0388741Y0327078D01*
X0388888Y0327121D01*
X0389036Y0327160D01*
X0389185Y0327196D01*
X0389335Y0327227D01*
X0389486Y0327255D01*
X0389637Y0327279D01*
X0389790Y0327299D01*
X0389942Y0327315D01*
X0390095Y0327327D01*
X0390248Y0327335D01*
X0390401Y0327339D01*
X0390555Y0327339D01*
X0390708Y0327335D01*
X0390861Y0327327D01*
X0391014Y0327315D01*
X0391166Y0327299D01*
X0391319Y0327279D01*
X0391470Y0327255D01*
X0391621Y0327227D01*
X0391771Y0327196D01*
X0391920Y0327160D01*
X0392068Y0327121D01*
X0392215Y0327078D01*
X0392361Y0327031D01*
X0392506Y0326980D01*
X0392649Y0326925D01*
X0392791Y0326867D01*
X0392931Y0326805D01*
X0393070Y0326740D01*
X0393207Y0326671D01*
X0393342Y0326598D01*
X0393475Y0326522D01*
X0393606Y0326442D01*
X0393735Y0326360D01*
X0393862Y0326273D01*
X0393987Y0326184D01*
X0394109Y0326091D01*
X0394228Y0325995D01*
X0394346Y0325896D01*
X0394460Y0325795D01*
X0394572Y0325690D01*
X0394681Y0325582D01*
X0394787Y0325471D01*
X0394891Y0325358D01*
X0394991Y0325242D01*
X0395089Y0325124D01*
X0395183Y0325003D01*
X0395274Y0324880D01*
X0395362Y0324754D01*
X0395446Y0324626D01*
X0395528Y0324496D01*
X0395605Y0324364D01*
X0395680Y0324230D01*
X0395751Y0324094D01*
X0395818Y0323956D01*
X0395882Y0323816D01*
X0395942Y0323675D01*
X0395998Y0323533D01*
X0396051Y0323389D01*
X0396100Y0323243D01*
X0396145Y0323097D01*
X0396186Y0322949D01*
X0396223Y0322801D01*
X0396257Y0322651D01*
X0396287Y0322500D01*
X0396312Y0322349D01*
X0396334Y0322198D01*
X0396352Y0322045D01*
X0396366Y0321893D01*
X0396376Y0321740D01*
X0396382Y0321586D01*
X0396384Y0321433D01*
X0396382Y0321280D01*
X0396376Y0321126D01*
X0396366Y0320973D01*
X0396352Y0320821D01*
X0396334Y0320668D01*
X0396312Y0320517D01*
X0396287Y0320366D01*
X0396257Y0320215D01*
X0396223Y0320065D01*
X0396186Y0319917D01*
X0396145Y0319769D01*
X0396100Y0319623D01*
X0396051Y0319477D01*
X0395998Y0319333D01*
X0395942Y0319191D01*
X0395882Y0319050D01*
X0395818Y0318910D01*
X0395751Y0318772D01*
X0395680Y0318636D01*
X0395605Y0318502D01*
X0395528Y0318370D01*
X0395446Y0318240D01*
X0395362Y0318112D01*
X0395274Y0317986D01*
X0395183Y0317863D01*
X0395089Y0317742D01*
X0394991Y0317624D01*
X0394891Y0317508D01*
X0394787Y0317395D01*
X0394681Y0317284D01*
X0394572Y0317176D01*
X0394460Y0317071D01*
X0394346Y0316970D01*
X0394228Y0316871D01*
X0394109Y0316775D01*
X0393987Y0316682D01*
X0393862Y0316593D01*
X0393735Y0316506D01*
X0393606Y0316424D01*
X0393475Y0316344D01*
X0393342Y0316268D01*
X0393207Y0316195D01*
X0393070Y0316126D01*
X0392931Y0316061D01*
X0392791Y0315999D01*
X0392649Y0315941D01*
X0392506Y0315886D01*
X0392361Y0315835D01*
X0392215Y0315788D01*
X0392068Y0315745D01*
X0391920Y0315706D01*
X0391771Y0315670D01*
X0391621Y0315639D01*
X0391470Y0315611D01*
X0391319Y0315587D01*
X0391166Y0315567D01*
X0391014Y0315551D01*
X0390861Y0315539D01*
X0390708Y0315531D01*
X0390555Y0315527D01*
X0390401Y0315527D01*
X0390248Y0315531D01*
X0390095Y0315539D01*
X0389942Y0315551D01*
X0389790Y0315567D01*
X0389637Y0315587D01*
X0389486Y0315611D01*
X0389335Y0315639D01*
X0389185Y0315670D01*
X0389036Y0315706D01*
X0388888Y0315745D01*
X0388741Y0315788D01*
X0388595Y0315835D01*
X0388450Y0315886D01*
X0388307Y0315941D01*
X0388165Y0315999D01*
X0388025Y0316061D01*
X0387886Y0316126D01*
X0387749Y0316195D01*
X0387614Y0316268D01*
X0387481Y0316344D01*
X0387350Y0316424D01*
X0387221Y0316506D01*
X0387094Y0316593D01*
X0386969Y0316682D01*
X0386847Y0316775D01*
X0386728Y0316871D01*
X0386610Y0316970D01*
X0386496Y0317071D01*
X0386384Y0317176D01*
X0386275Y0317284D01*
X0386169Y0317395D01*
X0386065Y0317508D01*
X0385965Y0317624D01*
X0385867Y0317742D01*
X0385773Y0317863D01*
X0385682Y0317986D01*
X0385594Y0318112D01*
X0385510Y0318240D01*
X0385428Y0318370D01*
X0385351Y0318502D01*
X0385276Y0318636D01*
X0385205Y0318772D01*
X0385138Y0318910D01*
X0385074Y0319050D01*
X0385014Y0319191D01*
X0384958Y0319333D01*
X0384905Y0319477D01*
X0384856Y0319623D01*
X0384811Y0319769D01*
X0384770Y0319917D01*
X0384733Y0320065D01*
X0384699Y0320215D01*
X0384669Y0320366D01*
X0384644Y0320517D01*
X0384622Y0320668D01*
X0384604Y0320821D01*
X0384590Y0320973D01*
X0384580Y0321126D01*
X0384574Y0321280D01*
X0384572Y0321433D01*
X0402803Y0421433D02*
X0402805Y0421593D01*
X0402811Y0421753D01*
X0402821Y0421913D01*
X0402835Y0422073D01*
X0402853Y0422232D01*
X0402875Y0422391D01*
X0402901Y0422549D01*
X0402930Y0422706D01*
X0402964Y0422863D01*
X0403002Y0423018D01*
X0403043Y0423173D01*
X0403088Y0423327D01*
X0403138Y0423479D01*
X0403190Y0423630D01*
X0403247Y0423780D01*
X0403308Y0423929D01*
X0403372Y0424076D01*
X0403439Y0424221D01*
X0403511Y0424364D01*
X0403585Y0424506D01*
X0403664Y0424646D01*
X0403746Y0424783D01*
X0403831Y0424919D01*
X0403919Y0425052D01*
X0404011Y0425184D01*
X0404106Y0425312D01*
X0404205Y0425439D01*
X0404306Y0425563D01*
X0404411Y0425684D01*
X0404518Y0425803D01*
X0404629Y0425919D01*
X0404742Y0426032D01*
X0404858Y0426143D01*
X0404977Y0426250D01*
X0405098Y0426355D01*
X0405222Y0426456D01*
X0405349Y0426555D01*
X0405477Y0426650D01*
X0405609Y0426742D01*
X0405742Y0426830D01*
X0405878Y0426915D01*
X0406016Y0426997D01*
X0406155Y0427076D01*
X0406297Y0427150D01*
X0406440Y0427222D01*
X0406585Y0427289D01*
X0406732Y0427353D01*
X0406881Y0427414D01*
X0407031Y0427471D01*
X0407182Y0427523D01*
X0407334Y0427573D01*
X0407488Y0427618D01*
X0407643Y0427659D01*
X0407798Y0427697D01*
X0407955Y0427731D01*
X0408112Y0427760D01*
X0408270Y0427786D01*
X0408429Y0427808D01*
X0408588Y0427826D01*
X0408748Y0427840D01*
X0408908Y0427850D01*
X0409068Y0427856D01*
X0409228Y0427858D01*
X0409388Y0427856D01*
X0409548Y0427850D01*
X0409708Y0427840D01*
X0409868Y0427826D01*
X0410027Y0427808D01*
X0410186Y0427786D01*
X0410344Y0427760D01*
X0410501Y0427731D01*
X0410658Y0427697D01*
X0410813Y0427659D01*
X0410968Y0427618D01*
X0411122Y0427573D01*
X0411274Y0427523D01*
X0411425Y0427471D01*
X0411575Y0427414D01*
X0411724Y0427353D01*
X0411871Y0427289D01*
X0412016Y0427222D01*
X0412159Y0427150D01*
X0412301Y0427076D01*
X0412441Y0426997D01*
X0412578Y0426915D01*
X0412714Y0426830D01*
X0412847Y0426742D01*
X0412979Y0426650D01*
X0413107Y0426555D01*
X0413234Y0426456D01*
X0413358Y0426355D01*
X0413479Y0426250D01*
X0413598Y0426143D01*
X0413714Y0426032D01*
X0413827Y0425919D01*
X0413938Y0425803D01*
X0414045Y0425684D01*
X0414150Y0425563D01*
X0414251Y0425439D01*
X0414350Y0425312D01*
X0414445Y0425184D01*
X0414537Y0425052D01*
X0414625Y0424919D01*
X0414710Y0424783D01*
X0414792Y0424645D01*
X0414871Y0424506D01*
X0414945Y0424364D01*
X0415017Y0424221D01*
X0415084Y0424076D01*
X0415148Y0423929D01*
X0415209Y0423780D01*
X0415266Y0423630D01*
X0415318Y0423479D01*
X0415368Y0423327D01*
X0415413Y0423173D01*
X0415454Y0423018D01*
X0415492Y0422863D01*
X0415526Y0422706D01*
X0415555Y0422549D01*
X0415581Y0422391D01*
X0415603Y0422232D01*
X0415621Y0422073D01*
X0415635Y0421913D01*
X0415645Y0421753D01*
X0415651Y0421593D01*
X0415653Y0421433D01*
X0415651Y0421273D01*
X0415645Y0421113D01*
X0415635Y0420953D01*
X0415621Y0420793D01*
X0415603Y0420634D01*
X0415581Y0420475D01*
X0415555Y0420317D01*
X0415526Y0420160D01*
X0415492Y0420003D01*
X0415454Y0419848D01*
X0415413Y0419693D01*
X0415368Y0419539D01*
X0415318Y0419387D01*
X0415266Y0419236D01*
X0415209Y0419086D01*
X0415148Y0418937D01*
X0415084Y0418790D01*
X0415017Y0418645D01*
X0414945Y0418502D01*
X0414871Y0418360D01*
X0414792Y0418220D01*
X0414710Y0418083D01*
X0414625Y0417947D01*
X0414537Y0417814D01*
X0414445Y0417682D01*
X0414350Y0417554D01*
X0414251Y0417427D01*
X0414150Y0417303D01*
X0414045Y0417182D01*
X0413938Y0417063D01*
X0413827Y0416947D01*
X0413714Y0416834D01*
X0413598Y0416723D01*
X0413479Y0416616D01*
X0413358Y0416511D01*
X0413234Y0416410D01*
X0413107Y0416311D01*
X0412979Y0416216D01*
X0412847Y0416124D01*
X0412714Y0416036D01*
X0412578Y0415951D01*
X0412440Y0415869D01*
X0412301Y0415790D01*
X0412159Y0415716D01*
X0412016Y0415644D01*
X0411871Y0415577D01*
X0411724Y0415513D01*
X0411575Y0415452D01*
X0411425Y0415395D01*
X0411274Y0415343D01*
X0411122Y0415293D01*
X0410968Y0415248D01*
X0410813Y0415207D01*
X0410658Y0415169D01*
X0410501Y0415135D01*
X0410344Y0415106D01*
X0410186Y0415080D01*
X0410027Y0415058D01*
X0409868Y0415040D01*
X0409708Y0415026D01*
X0409548Y0415016D01*
X0409388Y0415010D01*
X0409228Y0415008D01*
X0409068Y0415010D01*
X0408908Y0415016D01*
X0408748Y0415026D01*
X0408588Y0415040D01*
X0408429Y0415058D01*
X0408270Y0415080D01*
X0408112Y0415106D01*
X0407955Y0415135D01*
X0407798Y0415169D01*
X0407643Y0415207D01*
X0407488Y0415248D01*
X0407334Y0415293D01*
X0407182Y0415343D01*
X0407031Y0415395D01*
X0406881Y0415452D01*
X0406732Y0415513D01*
X0406585Y0415577D01*
X0406440Y0415644D01*
X0406297Y0415716D01*
X0406155Y0415790D01*
X0406015Y0415869D01*
X0405878Y0415951D01*
X0405742Y0416036D01*
X0405609Y0416124D01*
X0405477Y0416216D01*
X0405349Y0416311D01*
X0405222Y0416410D01*
X0405098Y0416511D01*
X0404977Y0416616D01*
X0404858Y0416723D01*
X0404742Y0416834D01*
X0404629Y0416947D01*
X0404518Y0417063D01*
X0404411Y0417182D01*
X0404306Y0417303D01*
X0404205Y0417427D01*
X0404106Y0417554D01*
X0404011Y0417682D01*
X0403919Y0417814D01*
X0403831Y0417947D01*
X0403746Y0418083D01*
X0403664Y0418221D01*
X0403585Y0418360D01*
X0403511Y0418502D01*
X0403439Y0418645D01*
X0403372Y0418790D01*
X0403308Y0418937D01*
X0403247Y0419086D01*
X0403190Y0419236D01*
X0403138Y0419387D01*
X0403088Y0419539D01*
X0403043Y0419693D01*
X0403002Y0419848D01*
X0402964Y0420003D01*
X0402930Y0420160D01*
X0402901Y0420317D01*
X0402875Y0420475D01*
X0402853Y0420634D01*
X0402835Y0420793D01*
X0402821Y0420953D01*
X0402811Y0421113D01*
X0402805Y0421273D01*
X0402803Y0421433D01*
X0040822Y0390183D02*
X0040824Y0390336D01*
X0040830Y0390490D01*
X0040840Y0390643D01*
X0040854Y0390795D01*
X0040872Y0390948D01*
X0040894Y0391099D01*
X0040919Y0391250D01*
X0040949Y0391401D01*
X0040983Y0391551D01*
X0041020Y0391699D01*
X0041061Y0391847D01*
X0041106Y0391993D01*
X0041155Y0392139D01*
X0041208Y0392283D01*
X0041264Y0392425D01*
X0041324Y0392566D01*
X0041388Y0392706D01*
X0041455Y0392844D01*
X0041526Y0392980D01*
X0041601Y0393114D01*
X0041678Y0393246D01*
X0041760Y0393376D01*
X0041844Y0393504D01*
X0041932Y0393630D01*
X0042023Y0393753D01*
X0042117Y0393874D01*
X0042215Y0393992D01*
X0042315Y0394108D01*
X0042419Y0394221D01*
X0042525Y0394332D01*
X0042634Y0394440D01*
X0042746Y0394545D01*
X0042860Y0394646D01*
X0042978Y0394745D01*
X0043097Y0394841D01*
X0043219Y0394934D01*
X0043344Y0395023D01*
X0043471Y0395110D01*
X0043600Y0395192D01*
X0043731Y0395272D01*
X0043864Y0395348D01*
X0043999Y0395421D01*
X0044136Y0395490D01*
X0044275Y0395555D01*
X0044415Y0395617D01*
X0044557Y0395675D01*
X0044700Y0395730D01*
X0044845Y0395781D01*
X0044991Y0395828D01*
X0045138Y0395871D01*
X0045286Y0395910D01*
X0045435Y0395946D01*
X0045585Y0395977D01*
X0045736Y0396005D01*
X0045887Y0396029D01*
X0046040Y0396049D01*
X0046192Y0396065D01*
X0046345Y0396077D01*
X0046498Y0396085D01*
X0046651Y0396089D01*
X0046805Y0396089D01*
X0046958Y0396085D01*
X0047111Y0396077D01*
X0047264Y0396065D01*
X0047416Y0396049D01*
X0047569Y0396029D01*
X0047720Y0396005D01*
X0047871Y0395977D01*
X0048021Y0395946D01*
X0048170Y0395910D01*
X0048318Y0395871D01*
X0048465Y0395828D01*
X0048611Y0395781D01*
X0048756Y0395730D01*
X0048899Y0395675D01*
X0049041Y0395617D01*
X0049181Y0395555D01*
X0049320Y0395490D01*
X0049457Y0395421D01*
X0049592Y0395348D01*
X0049725Y0395272D01*
X0049856Y0395192D01*
X0049985Y0395110D01*
X0050112Y0395023D01*
X0050237Y0394934D01*
X0050359Y0394841D01*
X0050478Y0394745D01*
X0050596Y0394646D01*
X0050710Y0394545D01*
X0050822Y0394440D01*
X0050931Y0394332D01*
X0051037Y0394221D01*
X0051141Y0394108D01*
X0051241Y0393992D01*
X0051339Y0393874D01*
X0051433Y0393753D01*
X0051524Y0393630D01*
X0051612Y0393504D01*
X0051696Y0393376D01*
X0051778Y0393246D01*
X0051855Y0393114D01*
X0051930Y0392980D01*
X0052001Y0392844D01*
X0052068Y0392706D01*
X0052132Y0392566D01*
X0052192Y0392425D01*
X0052248Y0392283D01*
X0052301Y0392139D01*
X0052350Y0391993D01*
X0052395Y0391847D01*
X0052436Y0391699D01*
X0052473Y0391551D01*
X0052507Y0391401D01*
X0052537Y0391250D01*
X0052562Y0391099D01*
X0052584Y0390948D01*
X0052602Y0390795D01*
X0052616Y0390643D01*
X0052626Y0390490D01*
X0052632Y0390336D01*
X0052634Y0390183D01*
X0052632Y0390030D01*
X0052626Y0389876D01*
X0052616Y0389723D01*
X0052602Y0389571D01*
X0052584Y0389418D01*
X0052562Y0389267D01*
X0052537Y0389116D01*
X0052507Y0388965D01*
X0052473Y0388815D01*
X0052436Y0388667D01*
X0052395Y0388519D01*
X0052350Y0388373D01*
X0052301Y0388227D01*
X0052248Y0388083D01*
X0052192Y0387941D01*
X0052132Y0387800D01*
X0052068Y0387660D01*
X0052001Y0387522D01*
X0051930Y0387386D01*
X0051855Y0387252D01*
X0051778Y0387120D01*
X0051696Y0386990D01*
X0051612Y0386862D01*
X0051524Y0386736D01*
X0051433Y0386613D01*
X0051339Y0386492D01*
X0051241Y0386374D01*
X0051141Y0386258D01*
X0051037Y0386145D01*
X0050931Y0386034D01*
X0050822Y0385926D01*
X0050710Y0385821D01*
X0050596Y0385720D01*
X0050478Y0385621D01*
X0050359Y0385525D01*
X0050237Y0385432D01*
X0050112Y0385343D01*
X0049985Y0385256D01*
X0049856Y0385174D01*
X0049725Y0385094D01*
X0049592Y0385018D01*
X0049457Y0384945D01*
X0049320Y0384876D01*
X0049181Y0384811D01*
X0049041Y0384749D01*
X0048899Y0384691D01*
X0048756Y0384636D01*
X0048611Y0384585D01*
X0048465Y0384538D01*
X0048318Y0384495D01*
X0048170Y0384456D01*
X0048021Y0384420D01*
X0047871Y0384389D01*
X0047720Y0384361D01*
X0047569Y0384337D01*
X0047416Y0384317D01*
X0047264Y0384301D01*
X0047111Y0384289D01*
X0046958Y0384281D01*
X0046805Y0384277D01*
X0046651Y0384277D01*
X0046498Y0384281D01*
X0046345Y0384289D01*
X0046192Y0384301D01*
X0046040Y0384317D01*
X0045887Y0384337D01*
X0045736Y0384361D01*
X0045585Y0384389D01*
X0045435Y0384420D01*
X0045286Y0384456D01*
X0045138Y0384495D01*
X0044991Y0384538D01*
X0044845Y0384585D01*
X0044700Y0384636D01*
X0044557Y0384691D01*
X0044415Y0384749D01*
X0044275Y0384811D01*
X0044136Y0384876D01*
X0043999Y0384945D01*
X0043864Y0385018D01*
X0043731Y0385094D01*
X0043600Y0385174D01*
X0043471Y0385256D01*
X0043344Y0385343D01*
X0043219Y0385432D01*
X0043097Y0385525D01*
X0042978Y0385621D01*
X0042860Y0385720D01*
X0042746Y0385821D01*
X0042634Y0385926D01*
X0042525Y0386034D01*
X0042419Y0386145D01*
X0042315Y0386258D01*
X0042215Y0386374D01*
X0042117Y0386492D01*
X0042023Y0386613D01*
X0041932Y0386736D01*
X0041844Y0386862D01*
X0041760Y0386990D01*
X0041678Y0387120D01*
X0041601Y0387252D01*
X0041526Y0387386D01*
X0041455Y0387522D01*
X0041388Y0387660D01*
X0041324Y0387800D01*
X0041264Y0387941D01*
X0041208Y0388083D01*
X0041155Y0388227D01*
X0041106Y0388373D01*
X0041061Y0388519D01*
X0041020Y0388667D01*
X0040983Y0388815D01*
X0040949Y0388965D01*
X0040919Y0389116D01*
X0040894Y0389267D01*
X0040872Y0389418D01*
X0040854Y0389571D01*
X0040840Y0389723D01*
X0040830Y0389876D01*
X0040824Y0390030D01*
X0040822Y0390183D01*
X0027803Y0421433D02*
X0027805Y0421593D01*
X0027811Y0421753D01*
X0027821Y0421913D01*
X0027835Y0422073D01*
X0027853Y0422232D01*
X0027875Y0422391D01*
X0027901Y0422549D01*
X0027930Y0422706D01*
X0027964Y0422863D01*
X0028002Y0423018D01*
X0028043Y0423173D01*
X0028088Y0423327D01*
X0028138Y0423479D01*
X0028190Y0423630D01*
X0028247Y0423780D01*
X0028308Y0423929D01*
X0028372Y0424076D01*
X0028439Y0424221D01*
X0028511Y0424364D01*
X0028585Y0424506D01*
X0028664Y0424646D01*
X0028746Y0424783D01*
X0028831Y0424919D01*
X0028919Y0425052D01*
X0029011Y0425184D01*
X0029106Y0425312D01*
X0029205Y0425439D01*
X0029306Y0425563D01*
X0029411Y0425684D01*
X0029518Y0425803D01*
X0029629Y0425919D01*
X0029742Y0426032D01*
X0029858Y0426143D01*
X0029977Y0426250D01*
X0030098Y0426355D01*
X0030222Y0426456D01*
X0030349Y0426555D01*
X0030477Y0426650D01*
X0030609Y0426742D01*
X0030742Y0426830D01*
X0030878Y0426915D01*
X0031016Y0426997D01*
X0031155Y0427076D01*
X0031297Y0427150D01*
X0031440Y0427222D01*
X0031585Y0427289D01*
X0031732Y0427353D01*
X0031881Y0427414D01*
X0032031Y0427471D01*
X0032182Y0427523D01*
X0032334Y0427573D01*
X0032488Y0427618D01*
X0032643Y0427659D01*
X0032798Y0427697D01*
X0032955Y0427731D01*
X0033112Y0427760D01*
X0033270Y0427786D01*
X0033429Y0427808D01*
X0033588Y0427826D01*
X0033748Y0427840D01*
X0033908Y0427850D01*
X0034068Y0427856D01*
X0034228Y0427858D01*
X0034388Y0427856D01*
X0034548Y0427850D01*
X0034708Y0427840D01*
X0034868Y0427826D01*
X0035027Y0427808D01*
X0035186Y0427786D01*
X0035344Y0427760D01*
X0035501Y0427731D01*
X0035658Y0427697D01*
X0035813Y0427659D01*
X0035968Y0427618D01*
X0036122Y0427573D01*
X0036274Y0427523D01*
X0036425Y0427471D01*
X0036575Y0427414D01*
X0036724Y0427353D01*
X0036871Y0427289D01*
X0037016Y0427222D01*
X0037159Y0427150D01*
X0037301Y0427076D01*
X0037441Y0426997D01*
X0037578Y0426915D01*
X0037714Y0426830D01*
X0037847Y0426742D01*
X0037979Y0426650D01*
X0038107Y0426555D01*
X0038234Y0426456D01*
X0038358Y0426355D01*
X0038479Y0426250D01*
X0038598Y0426143D01*
X0038714Y0426032D01*
X0038827Y0425919D01*
X0038938Y0425803D01*
X0039045Y0425684D01*
X0039150Y0425563D01*
X0039251Y0425439D01*
X0039350Y0425312D01*
X0039445Y0425184D01*
X0039537Y0425052D01*
X0039625Y0424919D01*
X0039710Y0424783D01*
X0039792Y0424645D01*
X0039871Y0424506D01*
X0039945Y0424364D01*
X0040017Y0424221D01*
X0040084Y0424076D01*
X0040148Y0423929D01*
X0040209Y0423780D01*
X0040266Y0423630D01*
X0040318Y0423479D01*
X0040368Y0423327D01*
X0040413Y0423173D01*
X0040454Y0423018D01*
X0040492Y0422863D01*
X0040526Y0422706D01*
X0040555Y0422549D01*
X0040581Y0422391D01*
X0040603Y0422232D01*
X0040621Y0422073D01*
X0040635Y0421913D01*
X0040645Y0421753D01*
X0040651Y0421593D01*
X0040653Y0421433D01*
X0040651Y0421273D01*
X0040645Y0421113D01*
X0040635Y0420953D01*
X0040621Y0420793D01*
X0040603Y0420634D01*
X0040581Y0420475D01*
X0040555Y0420317D01*
X0040526Y0420160D01*
X0040492Y0420003D01*
X0040454Y0419848D01*
X0040413Y0419693D01*
X0040368Y0419539D01*
X0040318Y0419387D01*
X0040266Y0419236D01*
X0040209Y0419086D01*
X0040148Y0418937D01*
X0040084Y0418790D01*
X0040017Y0418645D01*
X0039945Y0418502D01*
X0039871Y0418360D01*
X0039792Y0418220D01*
X0039710Y0418083D01*
X0039625Y0417947D01*
X0039537Y0417814D01*
X0039445Y0417682D01*
X0039350Y0417554D01*
X0039251Y0417427D01*
X0039150Y0417303D01*
X0039045Y0417182D01*
X0038938Y0417063D01*
X0038827Y0416947D01*
X0038714Y0416834D01*
X0038598Y0416723D01*
X0038479Y0416616D01*
X0038358Y0416511D01*
X0038234Y0416410D01*
X0038107Y0416311D01*
X0037979Y0416216D01*
X0037847Y0416124D01*
X0037714Y0416036D01*
X0037578Y0415951D01*
X0037440Y0415869D01*
X0037301Y0415790D01*
X0037159Y0415716D01*
X0037016Y0415644D01*
X0036871Y0415577D01*
X0036724Y0415513D01*
X0036575Y0415452D01*
X0036425Y0415395D01*
X0036274Y0415343D01*
X0036122Y0415293D01*
X0035968Y0415248D01*
X0035813Y0415207D01*
X0035658Y0415169D01*
X0035501Y0415135D01*
X0035344Y0415106D01*
X0035186Y0415080D01*
X0035027Y0415058D01*
X0034868Y0415040D01*
X0034708Y0415026D01*
X0034548Y0415016D01*
X0034388Y0415010D01*
X0034228Y0415008D01*
X0034068Y0415010D01*
X0033908Y0415016D01*
X0033748Y0415026D01*
X0033588Y0415040D01*
X0033429Y0415058D01*
X0033270Y0415080D01*
X0033112Y0415106D01*
X0032955Y0415135D01*
X0032798Y0415169D01*
X0032643Y0415207D01*
X0032488Y0415248D01*
X0032334Y0415293D01*
X0032182Y0415343D01*
X0032031Y0415395D01*
X0031881Y0415452D01*
X0031732Y0415513D01*
X0031585Y0415577D01*
X0031440Y0415644D01*
X0031297Y0415716D01*
X0031155Y0415790D01*
X0031015Y0415869D01*
X0030878Y0415951D01*
X0030742Y0416036D01*
X0030609Y0416124D01*
X0030477Y0416216D01*
X0030349Y0416311D01*
X0030222Y0416410D01*
X0030098Y0416511D01*
X0029977Y0416616D01*
X0029858Y0416723D01*
X0029742Y0416834D01*
X0029629Y0416947D01*
X0029518Y0417063D01*
X0029411Y0417182D01*
X0029306Y0417303D01*
X0029205Y0417427D01*
X0029106Y0417554D01*
X0029011Y0417682D01*
X0028919Y0417814D01*
X0028831Y0417947D01*
X0028746Y0418083D01*
X0028664Y0418221D01*
X0028585Y0418360D01*
X0028511Y0418502D01*
X0028439Y0418645D01*
X0028372Y0418790D01*
X0028308Y0418937D01*
X0028247Y0419086D01*
X0028190Y0419236D01*
X0028138Y0419387D01*
X0028088Y0419539D01*
X0028043Y0419693D01*
X0028002Y0419848D01*
X0027964Y0420003D01*
X0027930Y0420160D01*
X0027901Y0420317D01*
X0027875Y0420475D01*
X0027853Y0420634D01*
X0027835Y0420793D01*
X0027821Y0420953D01*
X0027811Y0421113D01*
X0027805Y0421273D01*
X0027803Y0421433D01*
X0033785Y0135683D02*
X0033787Y0135847D01*
X0033793Y0136011D01*
X0033803Y0136175D01*
X0033817Y0136339D01*
X0033835Y0136502D01*
X0033857Y0136665D01*
X0033884Y0136827D01*
X0033914Y0136989D01*
X0033948Y0137149D01*
X0033986Y0137309D01*
X0034027Y0137468D01*
X0034073Y0137626D01*
X0034123Y0137782D01*
X0034176Y0137938D01*
X0034233Y0138092D01*
X0034294Y0138244D01*
X0034359Y0138395D01*
X0034428Y0138545D01*
X0034500Y0138692D01*
X0034575Y0138838D01*
X0034655Y0138982D01*
X0034737Y0139124D01*
X0034823Y0139264D01*
X0034913Y0139401D01*
X0035006Y0139537D01*
X0035102Y0139670D01*
X0035202Y0139801D01*
X0035304Y0139929D01*
X0035410Y0140055D01*
X0035519Y0140178D01*
X0035631Y0140298D01*
X0035745Y0140416D01*
X0035863Y0140530D01*
X0035983Y0140642D01*
X0036106Y0140751D01*
X0036232Y0140857D01*
X0036360Y0140959D01*
X0036491Y0141059D01*
X0036624Y0141155D01*
X0036760Y0141248D01*
X0036897Y0141338D01*
X0037037Y0141424D01*
X0037179Y0141506D01*
X0037323Y0141586D01*
X0037469Y0141661D01*
X0037616Y0141733D01*
X0037766Y0141802D01*
X0037917Y0141867D01*
X0038069Y0141928D01*
X0038223Y0141985D01*
X0038379Y0142038D01*
X0038535Y0142088D01*
X0038693Y0142134D01*
X0038852Y0142175D01*
X0039012Y0142213D01*
X0039172Y0142247D01*
X0039334Y0142277D01*
X0039496Y0142304D01*
X0039659Y0142326D01*
X0039822Y0142344D01*
X0039986Y0142358D01*
X0040150Y0142368D01*
X0040314Y0142374D01*
X0040478Y0142376D01*
X0040642Y0142374D01*
X0040806Y0142368D01*
X0040970Y0142358D01*
X0041134Y0142344D01*
X0041297Y0142326D01*
X0041460Y0142304D01*
X0041622Y0142277D01*
X0041784Y0142247D01*
X0041944Y0142213D01*
X0042104Y0142175D01*
X0042263Y0142134D01*
X0042421Y0142088D01*
X0042577Y0142038D01*
X0042733Y0141985D01*
X0042887Y0141928D01*
X0043039Y0141867D01*
X0043190Y0141802D01*
X0043340Y0141733D01*
X0043487Y0141661D01*
X0043633Y0141586D01*
X0043777Y0141506D01*
X0043919Y0141424D01*
X0044059Y0141338D01*
X0044196Y0141248D01*
X0044332Y0141155D01*
X0044465Y0141059D01*
X0044596Y0140959D01*
X0044724Y0140857D01*
X0044850Y0140751D01*
X0044973Y0140642D01*
X0045093Y0140530D01*
X0045211Y0140416D01*
X0045325Y0140298D01*
X0045437Y0140178D01*
X0045546Y0140055D01*
X0045652Y0139929D01*
X0045754Y0139801D01*
X0045854Y0139670D01*
X0045950Y0139537D01*
X0046043Y0139401D01*
X0046133Y0139264D01*
X0046219Y0139124D01*
X0046301Y0138982D01*
X0046381Y0138838D01*
X0046456Y0138692D01*
X0046528Y0138545D01*
X0046597Y0138395D01*
X0046662Y0138244D01*
X0046723Y0138092D01*
X0046780Y0137938D01*
X0046833Y0137782D01*
X0046883Y0137626D01*
X0046929Y0137468D01*
X0046970Y0137309D01*
X0047008Y0137149D01*
X0047042Y0136989D01*
X0047072Y0136827D01*
X0047099Y0136665D01*
X0047121Y0136502D01*
X0047139Y0136339D01*
X0047153Y0136175D01*
X0047163Y0136011D01*
X0047169Y0135847D01*
X0047171Y0135683D01*
X0047169Y0135519D01*
X0047163Y0135355D01*
X0047153Y0135191D01*
X0047139Y0135027D01*
X0047121Y0134864D01*
X0047099Y0134701D01*
X0047072Y0134539D01*
X0047042Y0134377D01*
X0047008Y0134217D01*
X0046970Y0134057D01*
X0046929Y0133898D01*
X0046883Y0133740D01*
X0046833Y0133584D01*
X0046780Y0133428D01*
X0046723Y0133274D01*
X0046662Y0133122D01*
X0046597Y0132971D01*
X0046528Y0132821D01*
X0046456Y0132674D01*
X0046381Y0132528D01*
X0046301Y0132384D01*
X0046219Y0132242D01*
X0046133Y0132102D01*
X0046043Y0131965D01*
X0045950Y0131829D01*
X0045854Y0131696D01*
X0045754Y0131565D01*
X0045652Y0131437D01*
X0045546Y0131311D01*
X0045437Y0131188D01*
X0045325Y0131068D01*
X0045211Y0130950D01*
X0045093Y0130836D01*
X0044973Y0130724D01*
X0044850Y0130615D01*
X0044724Y0130509D01*
X0044596Y0130407D01*
X0044465Y0130307D01*
X0044332Y0130211D01*
X0044196Y0130118D01*
X0044059Y0130028D01*
X0043919Y0129942D01*
X0043777Y0129860D01*
X0043633Y0129780D01*
X0043487Y0129705D01*
X0043340Y0129633D01*
X0043190Y0129564D01*
X0043039Y0129499D01*
X0042887Y0129438D01*
X0042733Y0129381D01*
X0042577Y0129328D01*
X0042421Y0129278D01*
X0042263Y0129232D01*
X0042104Y0129191D01*
X0041944Y0129153D01*
X0041784Y0129119D01*
X0041622Y0129089D01*
X0041460Y0129062D01*
X0041297Y0129040D01*
X0041134Y0129022D01*
X0040970Y0129008D01*
X0040806Y0128998D01*
X0040642Y0128992D01*
X0040478Y0128990D01*
X0040314Y0128992D01*
X0040150Y0128998D01*
X0039986Y0129008D01*
X0039822Y0129022D01*
X0039659Y0129040D01*
X0039496Y0129062D01*
X0039334Y0129089D01*
X0039172Y0129119D01*
X0039012Y0129153D01*
X0038852Y0129191D01*
X0038693Y0129232D01*
X0038535Y0129278D01*
X0038379Y0129328D01*
X0038223Y0129381D01*
X0038069Y0129438D01*
X0037917Y0129499D01*
X0037766Y0129564D01*
X0037616Y0129633D01*
X0037469Y0129705D01*
X0037323Y0129780D01*
X0037179Y0129860D01*
X0037037Y0129942D01*
X0036897Y0130028D01*
X0036760Y0130118D01*
X0036624Y0130211D01*
X0036491Y0130307D01*
X0036360Y0130407D01*
X0036232Y0130509D01*
X0036106Y0130615D01*
X0035983Y0130724D01*
X0035863Y0130836D01*
X0035745Y0130950D01*
X0035631Y0131068D01*
X0035519Y0131188D01*
X0035410Y0131311D01*
X0035304Y0131437D01*
X0035202Y0131565D01*
X0035102Y0131696D01*
X0035006Y0131829D01*
X0034913Y0131965D01*
X0034823Y0132102D01*
X0034737Y0132242D01*
X0034655Y0132384D01*
X0034575Y0132528D01*
X0034500Y0132674D01*
X0034428Y0132821D01*
X0034359Y0132971D01*
X0034294Y0133122D01*
X0034233Y0133274D01*
X0034176Y0133428D01*
X0034123Y0133584D01*
X0034073Y0133740D01*
X0034027Y0133898D01*
X0033986Y0134057D01*
X0033948Y0134217D01*
X0033914Y0134377D01*
X0033884Y0134539D01*
X0033857Y0134701D01*
X0033835Y0134864D01*
X0033817Y0135027D01*
X0033803Y0135191D01*
X0033793Y0135355D01*
X0033787Y0135519D01*
X0033785Y0135683D01*
X0033785Y0094683D02*
X0033787Y0094847D01*
X0033793Y0095011D01*
X0033803Y0095175D01*
X0033817Y0095339D01*
X0033835Y0095502D01*
X0033857Y0095665D01*
X0033884Y0095827D01*
X0033914Y0095989D01*
X0033948Y0096149D01*
X0033986Y0096309D01*
X0034027Y0096468D01*
X0034073Y0096626D01*
X0034123Y0096782D01*
X0034176Y0096938D01*
X0034233Y0097092D01*
X0034294Y0097244D01*
X0034359Y0097395D01*
X0034428Y0097545D01*
X0034500Y0097692D01*
X0034575Y0097838D01*
X0034655Y0097982D01*
X0034737Y0098124D01*
X0034823Y0098264D01*
X0034913Y0098401D01*
X0035006Y0098537D01*
X0035102Y0098670D01*
X0035202Y0098801D01*
X0035304Y0098929D01*
X0035410Y0099055D01*
X0035519Y0099178D01*
X0035631Y0099298D01*
X0035745Y0099416D01*
X0035863Y0099530D01*
X0035983Y0099642D01*
X0036106Y0099751D01*
X0036232Y0099857D01*
X0036360Y0099959D01*
X0036491Y0100059D01*
X0036624Y0100155D01*
X0036760Y0100248D01*
X0036897Y0100338D01*
X0037037Y0100424D01*
X0037179Y0100506D01*
X0037323Y0100586D01*
X0037469Y0100661D01*
X0037616Y0100733D01*
X0037766Y0100802D01*
X0037917Y0100867D01*
X0038069Y0100928D01*
X0038223Y0100985D01*
X0038379Y0101038D01*
X0038535Y0101088D01*
X0038693Y0101134D01*
X0038852Y0101175D01*
X0039012Y0101213D01*
X0039172Y0101247D01*
X0039334Y0101277D01*
X0039496Y0101304D01*
X0039659Y0101326D01*
X0039822Y0101344D01*
X0039986Y0101358D01*
X0040150Y0101368D01*
X0040314Y0101374D01*
X0040478Y0101376D01*
X0040642Y0101374D01*
X0040806Y0101368D01*
X0040970Y0101358D01*
X0041134Y0101344D01*
X0041297Y0101326D01*
X0041460Y0101304D01*
X0041622Y0101277D01*
X0041784Y0101247D01*
X0041944Y0101213D01*
X0042104Y0101175D01*
X0042263Y0101134D01*
X0042421Y0101088D01*
X0042577Y0101038D01*
X0042733Y0100985D01*
X0042887Y0100928D01*
X0043039Y0100867D01*
X0043190Y0100802D01*
X0043340Y0100733D01*
X0043487Y0100661D01*
X0043633Y0100586D01*
X0043777Y0100506D01*
X0043919Y0100424D01*
X0044059Y0100338D01*
X0044196Y0100248D01*
X0044332Y0100155D01*
X0044465Y0100059D01*
X0044596Y0099959D01*
X0044724Y0099857D01*
X0044850Y0099751D01*
X0044973Y0099642D01*
X0045093Y0099530D01*
X0045211Y0099416D01*
X0045325Y0099298D01*
X0045437Y0099178D01*
X0045546Y0099055D01*
X0045652Y0098929D01*
X0045754Y0098801D01*
X0045854Y0098670D01*
X0045950Y0098537D01*
X0046043Y0098401D01*
X0046133Y0098264D01*
X0046219Y0098124D01*
X0046301Y0097982D01*
X0046381Y0097838D01*
X0046456Y0097692D01*
X0046528Y0097545D01*
X0046597Y0097395D01*
X0046662Y0097244D01*
X0046723Y0097092D01*
X0046780Y0096938D01*
X0046833Y0096782D01*
X0046883Y0096626D01*
X0046929Y0096468D01*
X0046970Y0096309D01*
X0047008Y0096149D01*
X0047042Y0095989D01*
X0047072Y0095827D01*
X0047099Y0095665D01*
X0047121Y0095502D01*
X0047139Y0095339D01*
X0047153Y0095175D01*
X0047163Y0095011D01*
X0047169Y0094847D01*
X0047171Y0094683D01*
X0047169Y0094519D01*
X0047163Y0094355D01*
X0047153Y0094191D01*
X0047139Y0094027D01*
X0047121Y0093864D01*
X0047099Y0093701D01*
X0047072Y0093539D01*
X0047042Y0093377D01*
X0047008Y0093217D01*
X0046970Y0093057D01*
X0046929Y0092898D01*
X0046883Y0092740D01*
X0046833Y0092584D01*
X0046780Y0092428D01*
X0046723Y0092274D01*
X0046662Y0092122D01*
X0046597Y0091971D01*
X0046528Y0091821D01*
X0046456Y0091674D01*
X0046381Y0091528D01*
X0046301Y0091384D01*
X0046219Y0091242D01*
X0046133Y0091102D01*
X0046043Y0090965D01*
X0045950Y0090829D01*
X0045854Y0090696D01*
X0045754Y0090565D01*
X0045652Y0090437D01*
X0045546Y0090311D01*
X0045437Y0090188D01*
X0045325Y0090068D01*
X0045211Y0089950D01*
X0045093Y0089836D01*
X0044973Y0089724D01*
X0044850Y0089615D01*
X0044724Y0089509D01*
X0044596Y0089407D01*
X0044465Y0089307D01*
X0044332Y0089211D01*
X0044196Y0089118D01*
X0044059Y0089028D01*
X0043919Y0088942D01*
X0043777Y0088860D01*
X0043633Y0088780D01*
X0043487Y0088705D01*
X0043340Y0088633D01*
X0043190Y0088564D01*
X0043039Y0088499D01*
X0042887Y0088438D01*
X0042733Y0088381D01*
X0042577Y0088328D01*
X0042421Y0088278D01*
X0042263Y0088232D01*
X0042104Y0088191D01*
X0041944Y0088153D01*
X0041784Y0088119D01*
X0041622Y0088089D01*
X0041460Y0088062D01*
X0041297Y0088040D01*
X0041134Y0088022D01*
X0040970Y0088008D01*
X0040806Y0087998D01*
X0040642Y0087992D01*
X0040478Y0087990D01*
X0040314Y0087992D01*
X0040150Y0087998D01*
X0039986Y0088008D01*
X0039822Y0088022D01*
X0039659Y0088040D01*
X0039496Y0088062D01*
X0039334Y0088089D01*
X0039172Y0088119D01*
X0039012Y0088153D01*
X0038852Y0088191D01*
X0038693Y0088232D01*
X0038535Y0088278D01*
X0038379Y0088328D01*
X0038223Y0088381D01*
X0038069Y0088438D01*
X0037917Y0088499D01*
X0037766Y0088564D01*
X0037616Y0088633D01*
X0037469Y0088705D01*
X0037323Y0088780D01*
X0037179Y0088860D01*
X0037037Y0088942D01*
X0036897Y0089028D01*
X0036760Y0089118D01*
X0036624Y0089211D01*
X0036491Y0089307D01*
X0036360Y0089407D01*
X0036232Y0089509D01*
X0036106Y0089615D01*
X0035983Y0089724D01*
X0035863Y0089836D01*
X0035745Y0089950D01*
X0035631Y0090068D01*
X0035519Y0090188D01*
X0035410Y0090311D01*
X0035304Y0090437D01*
X0035202Y0090565D01*
X0035102Y0090696D01*
X0035006Y0090829D01*
X0034913Y0090965D01*
X0034823Y0091102D01*
X0034737Y0091242D01*
X0034655Y0091384D01*
X0034575Y0091528D01*
X0034500Y0091674D01*
X0034428Y0091821D01*
X0034359Y0091971D01*
X0034294Y0092122D01*
X0034233Y0092274D01*
X0034176Y0092428D01*
X0034123Y0092584D01*
X0034073Y0092740D01*
X0034027Y0092898D01*
X0033986Y0093057D01*
X0033948Y0093217D01*
X0033914Y0093377D01*
X0033884Y0093539D01*
X0033857Y0093701D01*
X0033835Y0093864D01*
X0033817Y0094027D01*
X0033803Y0094191D01*
X0033793Y0094355D01*
X0033787Y0094519D01*
X0033785Y0094683D01*
D12*
X0095939Y0174232D02*
X0099009Y0174232D01*
X0100543Y0175767D02*
X0101311Y0174999D01*
X0102845Y0174999D01*
X0103613Y0175767D01*
X0105147Y0175767D02*
X0105915Y0174999D01*
X0107449Y0174999D01*
X0108216Y0175767D01*
X0108216Y0178836D01*
X0107449Y0179603D01*
X0105915Y0179603D01*
X0105147Y0178836D01*
X0105147Y0175767D01*
X0103613Y0178836D02*
X0102845Y0179603D01*
X0101311Y0179603D01*
X0100543Y0178836D01*
X0100543Y0175767D01*
X0094405Y0176534D02*
X0094405Y0179603D01*
X0094405Y0176534D02*
X0092870Y0174999D01*
X0091335Y0176534D01*
X0091335Y0179603D01*
X0089801Y0179603D02*
X0086731Y0179603D01*
X0086731Y0177301D01*
X0088266Y0178068D01*
X0089033Y0178068D01*
X0089801Y0177301D01*
X0089801Y0175767D01*
X0089033Y0174999D01*
X0087499Y0174999D01*
X0086731Y0175767D01*
X0109751Y0174999D02*
X0109751Y0179603D01*
X0112820Y0174999D01*
X0112820Y0179603D01*
X0114355Y0179603D02*
X0114355Y0176534D01*
X0115890Y0174999D01*
X0117424Y0176534D01*
X0117424Y0179603D01*
X0118959Y0179603D02*
X0118959Y0174999D01*
X0122028Y0174999D01*
X0123563Y0174999D02*
X0123563Y0179603D01*
X0125865Y0179603D01*
X0126632Y0178836D01*
X0126632Y0177301D01*
X0125865Y0176534D01*
X0123563Y0176534D01*
X0125098Y0176534D02*
X0126632Y0174999D01*
X0129701Y0174999D02*
X0129701Y0179603D01*
X0128167Y0179603D02*
X0131236Y0179603D01*
X0132771Y0179603D02*
X0132771Y0174999D01*
X0135840Y0174999D01*
X0137375Y0174999D02*
X0137375Y0179603D01*
X0139677Y0179603D01*
X0140444Y0178836D01*
X0140444Y0177301D01*
X0139677Y0176534D01*
X0137375Y0176534D01*
X0138909Y0176534D02*
X0140444Y0174999D01*
X0135840Y0179603D02*
X0132771Y0179603D01*
X0132771Y0177301D02*
X0134305Y0177301D01*
X0122028Y0179603D02*
X0118959Y0179603D01*
X0118959Y0177301D02*
X0120494Y0177301D01*
X0119726Y0268749D02*
X0119726Y0273353D01*
X0121261Y0273353D02*
X0121261Y0270284D01*
X0122796Y0268749D01*
X0124330Y0270284D01*
X0124330Y0273353D01*
X0125865Y0273353D02*
X0125865Y0268749D01*
X0128934Y0268749D01*
X0130469Y0268749D02*
X0130469Y0273353D01*
X0132771Y0273353D01*
X0133538Y0272586D01*
X0133538Y0271051D01*
X0132771Y0270284D01*
X0130469Y0270284D01*
X0132003Y0270284D02*
X0133538Y0268749D01*
X0136607Y0268749D02*
X0136607Y0273353D01*
X0135073Y0273353D02*
X0138142Y0273353D01*
X0139677Y0273353D02*
X0139677Y0268749D01*
X0142746Y0268749D01*
X0144281Y0268749D02*
X0144281Y0273353D01*
X0146583Y0273353D01*
X0147350Y0272586D01*
X0147350Y0271051D01*
X0146583Y0270284D01*
X0144281Y0270284D01*
X0145815Y0270284D02*
X0147350Y0268749D01*
X0142746Y0273353D02*
X0139677Y0273353D01*
X0139677Y0271051D02*
X0141211Y0271051D01*
X0128934Y0273353D02*
X0125865Y0273353D01*
X0125865Y0271051D02*
X0127399Y0271051D01*
X0119726Y0268749D02*
X0116657Y0273353D01*
X0116657Y0268749D01*
X0115122Y0269517D02*
X0114355Y0268749D01*
X0112820Y0268749D01*
X0112053Y0269517D01*
X0112053Y0272586D01*
X0112820Y0273353D01*
X0114355Y0273353D01*
X0115122Y0272586D01*
X0115122Y0269517D01*
X0110518Y0269517D02*
X0109751Y0268749D01*
X0108216Y0268749D01*
X0107449Y0269517D01*
X0107449Y0272586D01*
X0108216Y0273353D01*
X0109751Y0273353D01*
X0110518Y0272586D01*
X0105915Y0267982D02*
X0102845Y0267982D01*
X0101311Y0270284D02*
X0101311Y0273353D01*
X0101311Y0270284D02*
X0099776Y0268749D01*
X0098241Y0270284D01*
X0098241Y0273353D01*
X0096707Y0272586D02*
X0096707Y0271818D01*
X0095939Y0271051D01*
X0096707Y0270284D01*
X0096707Y0269517D01*
X0095939Y0268749D01*
X0094405Y0268749D01*
X0093637Y0269517D01*
X0092103Y0269517D02*
X0092103Y0268749D01*
X0091335Y0268749D01*
X0091335Y0269517D01*
X0092103Y0269517D01*
X0089801Y0269517D02*
X0089033Y0268749D01*
X0087499Y0268749D01*
X0086731Y0269517D01*
X0088266Y0271051D02*
X0089033Y0271051D01*
X0089801Y0270284D01*
X0089801Y0269517D01*
X0089033Y0271051D02*
X0089801Y0271818D01*
X0089801Y0272586D01*
X0089033Y0273353D01*
X0087499Y0273353D01*
X0086731Y0272586D01*
X0093637Y0272586D02*
X0094405Y0273353D01*
X0095939Y0273353D01*
X0096707Y0272586D01*
X0095939Y0271051D02*
X0095172Y0271051D01*
X0195775Y0271655D02*
X0195775Y0273990D01*
X0195775Y0272822D02*
X0199278Y0272822D01*
X0199278Y0275246D02*
X0195775Y0275246D01*
X0195775Y0277581D01*
X0195775Y0278837D02*
X0196943Y0280004D01*
X0195775Y0281172D01*
X0199278Y0281172D01*
X0199278Y0282428D02*
X0195775Y0282428D01*
X0195775Y0284179D01*
X0196359Y0284763D01*
X0197527Y0284763D01*
X0198111Y0284179D01*
X0198111Y0282428D01*
X0199278Y0286019D02*
X0196943Y0288354D01*
X0196359Y0288354D01*
X0195775Y0287770D01*
X0195775Y0286603D01*
X0196359Y0286019D01*
X0199278Y0286019D02*
X0199278Y0288354D01*
X0199862Y0289610D02*
X0199862Y0291945D01*
X0199278Y0293201D02*
X0195775Y0293201D01*
X0195775Y0294952D01*
X0196359Y0295536D01*
X0197527Y0295536D01*
X0198111Y0294952D01*
X0198111Y0293201D01*
X0198111Y0294369D02*
X0199278Y0295536D01*
X0199278Y0296792D02*
X0196943Y0299127D01*
X0196359Y0299127D01*
X0195775Y0298543D01*
X0195775Y0297376D01*
X0196359Y0296792D01*
X0199278Y0296792D02*
X0199278Y0299127D01*
X0208275Y0297960D02*
X0209443Y0296792D01*
X0208859Y0295536D02*
X0210027Y0295536D01*
X0210611Y0294952D01*
X0210611Y0293201D01*
X0211778Y0293201D02*
X0208275Y0293201D01*
X0208275Y0294952D01*
X0208859Y0295536D01*
X0210611Y0294369D02*
X0211778Y0295536D01*
X0211778Y0296792D02*
X0211778Y0299127D01*
X0211778Y0297960D02*
X0208275Y0297960D01*
X0212362Y0291945D02*
X0212362Y0289610D01*
X0211778Y0288354D02*
X0211778Y0286019D01*
X0209443Y0288354D01*
X0208859Y0288354D01*
X0208275Y0287770D01*
X0208275Y0286603D01*
X0208859Y0286019D01*
X0208859Y0284763D02*
X0210027Y0284763D01*
X0210611Y0284179D01*
X0210611Y0282428D01*
X0211778Y0282428D02*
X0208275Y0282428D01*
X0208275Y0284179D01*
X0208859Y0284763D01*
X0208275Y0281172D02*
X0211778Y0281172D01*
X0211778Y0278837D02*
X0208275Y0278837D01*
X0209443Y0280004D01*
X0208275Y0281172D01*
X0208275Y0277581D02*
X0208275Y0275246D01*
X0211778Y0275246D01*
X0211778Y0277581D01*
X0210027Y0276413D02*
X0210027Y0275246D01*
X0208275Y0273990D02*
X0208275Y0271655D01*
X0208275Y0272822D02*
X0211778Y0272822D01*
X0199278Y0275246D02*
X0199278Y0277581D01*
X0199278Y0278837D02*
X0195775Y0278837D01*
X0197527Y0276413D02*
X0197527Y0275246D01*
X0225425Y0234583D02*
X0227761Y0234583D01*
X0228928Y0233415D01*
X0227761Y0232247D01*
X0225425Y0232247D01*
X0226009Y0230992D02*
X0226593Y0230992D01*
X0227177Y0230408D01*
X0227761Y0230992D01*
X0228345Y0230992D01*
X0228928Y0230408D01*
X0228928Y0229240D01*
X0228345Y0228656D01*
X0227177Y0229824D02*
X0227177Y0230408D01*
X0226009Y0230992D02*
X0225425Y0230408D01*
X0225425Y0229240D01*
X0226009Y0228656D01*
X0229512Y0227401D02*
X0229512Y0225065D01*
X0228345Y0223809D02*
X0228928Y0223226D01*
X0228928Y0222058D01*
X0228345Y0221474D01*
X0228928Y0220218D02*
X0227761Y0219051D01*
X0227761Y0219635D02*
X0227761Y0217883D01*
X0228928Y0217883D02*
X0225425Y0217883D01*
X0225425Y0219635D01*
X0226009Y0220218D01*
X0227177Y0220218D01*
X0227761Y0219635D01*
X0226009Y0221474D02*
X0225425Y0222058D01*
X0225425Y0223226D01*
X0226009Y0223809D01*
X0226593Y0223809D01*
X0227177Y0223226D01*
X0227761Y0223809D01*
X0228345Y0223809D01*
X0227177Y0223226D02*
X0227177Y0222642D01*
X0237925Y0223226D02*
X0239677Y0221474D01*
X0239677Y0223809D01*
X0241428Y0223226D02*
X0237925Y0223226D01*
X0238509Y0220218D02*
X0239677Y0220218D01*
X0240261Y0219635D01*
X0240261Y0217883D01*
X0241428Y0217883D02*
X0237925Y0217883D01*
X0237925Y0219635D01*
X0238509Y0220218D01*
X0240261Y0219051D02*
X0241428Y0220218D01*
X0242012Y0225065D02*
X0242012Y0227401D01*
X0240845Y0228656D02*
X0241428Y0229240D01*
X0241428Y0230408D01*
X0240845Y0230992D01*
X0240261Y0230992D01*
X0239677Y0230408D01*
X0239677Y0229824D01*
X0239677Y0230408D02*
X0239093Y0230992D01*
X0238509Y0230992D01*
X0237925Y0230408D01*
X0237925Y0229240D01*
X0238509Y0228656D01*
X0237925Y0232247D02*
X0240261Y0232247D01*
X0241428Y0233415D01*
X0240261Y0234583D01*
X0237925Y0234583D01*
X0252025Y0191710D02*
X0255528Y0191710D01*
X0255528Y0192877D02*
X0255528Y0190542D01*
X0255528Y0189286D02*
X0254361Y0188119D01*
X0254361Y0188702D02*
X0254361Y0186951D01*
X0255528Y0186951D02*
X0252025Y0186951D01*
X0252025Y0188702D01*
X0252609Y0189286D01*
X0253777Y0189286D01*
X0254361Y0188702D01*
X0253193Y0190542D02*
X0252025Y0191710D01*
X0256112Y0185695D02*
X0256112Y0183360D01*
X0255528Y0182104D02*
X0255528Y0179769D01*
X0255528Y0180936D02*
X0252025Y0180936D01*
X0253193Y0179769D01*
X0252609Y0178513D02*
X0253777Y0178513D01*
X0254361Y0177929D01*
X0254361Y0176178D01*
X0255528Y0176178D02*
X0252025Y0176178D01*
X0252025Y0177929D01*
X0252609Y0178513D01*
X0252025Y0174922D02*
X0255528Y0174922D01*
X0255528Y0172587D02*
X0252025Y0172587D01*
X0253193Y0173754D01*
X0252025Y0174922D01*
X0252025Y0171331D02*
X0252025Y0168996D01*
X0255528Y0168996D01*
X0255528Y0171331D01*
X0253777Y0170163D02*
X0253777Y0168996D01*
X0252025Y0167740D02*
X0252025Y0165405D01*
X0252025Y0166572D02*
X0255528Y0166572D01*
X0264525Y0166572D02*
X0268028Y0166572D01*
X0268028Y0168996D02*
X0268028Y0171331D01*
X0268028Y0172587D02*
X0264525Y0172587D01*
X0265693Y0173754D01*
X0264525Y0174922D01*
X0268028Y0174922D01*
X0268028Y0176178D02*
X0264525Y0176178D01*
X0264525Y0177929D01*
X0265109Y0178513D01*
X0266277Y0178513D01*
X0266861Y0177929D01*
X0266861Y0176178D01*
X0268028Y0179769D02*
X0268028Y0182104D01*
X0268028Y0180936D02*
X0264525Y0180936D01*
X0265693Y0179769D01*
X0268612Y0183360D02*
X0268612Y0185695D01*
X0268028Y0186951D02*
X0264525Y0186951D01*
X0264525Y0188702D01*
X0265109Y0189286D01*
X0266277Y0189286D01*
X0266861Y0188702D01*
X0266861Y0186951D01*
X0266861Y0188119D02*
X0268028Y0189286D01*
X0268028Y0190542D02*
X0265693Y0192877D01*
X0265109Y0192877D01*
X0264525Y0192293D01*
X0264525Y0191126D01*
X0265109Y0190542D01*
X0268028Y0190542D02*
X0268028Y0192877D01*
X0264525Y0171331D02*
X0264525Y0168996D01*
X0268028Y0168996D01*
X0266277Y0168996D02*
X0266277Y0170163D01*
X0264525Y0167740D02*
X0264525Y0165405D01*
X0260611Y0136627D02*
X0258275Y0136627D01*
X0258275Y0134292D02*
X0260611Y0134292D01*
X0261778Y0135460D01*
X0260611Y0136627D01*
X0261195Y0133036D02*
X0261778Y0132452D01*
X0261778Y0131285D01*
X0261195Y0130701D01*
X0260027Y0130701D02*
X0259443Y0131869D01*
X0259443Y0132452D01*
X0260027Y0133036D01*
X0261195Y0133036D01*
X0260027Y0130701D02*
X0258275Y0130701D01*
X0258275Y0133036D01*
X0262362Y0129445D02*
X0262362Y0127110D01*
X0261778Y0125854D02*
X0261778Y0123519D01*
X0259443Y0125854D01*
X0258859Y0125854D01*
X0258275Y0125270D01*
X0258275Y0124103D01*
X0258859Y0123519D01*
X0258859Y0122263D02*
X0260027Y0122263D01*
X0260611Y0121679D01*
X0260611Y0119928D01*
X0261778Y0119928D02*
X0258275Y0119928D01*
X0258275Y0121679D01*
X0258859Y0122263D01*
X0260611Y0121095D02*
X0261778Y0122263D01*
X0249278Y0122263D02*
X0248111Y0121095D01*
X0248111Y0121679D02*
X0248111Y0119928D01*
X0249278Y0119928D02*
X0245775Y0119928D01*
X0245775Y0121679D01*
X0246359Y0122263D01*
X0247527Y0122263D01*
X0248111Y0121679D01*
X0249278Y0123519D02*
X0249278Y0125854D01*
X0249278Y0124686D02*
X0245775Y0124686D01*
X0246943Y0123519D01*
X0249862Y0127110D02*
X0249862Y0129445D01*
X0248695Y0130701D02*
X0249278Y0131285D01*
X0249278Y0132452D01*
X0248695Y0133036D01*
X0247527Y0133036D01*
X0246943Y0132452D01*
X0246943Y0131869D01*
X0247527Y0130701D01*
X0245775Y0130701D01*
X0245775Y0133036D01*
X0245775Y0134292D02*
X0248111Y0134292D01*
X0249278Y0135460D01*
X0248111Y0136627D01*
X0245775Y0136627D01*
X0216634Y0101934D02*
X0218970Y0099599D01*
X0219553Y0099599D01*
X0219553Y0098343D02*
X0218386Y0097176D01*
X0218386Y0097760D02*
X0218386Y0096008D01*
X0219553Y0096008D02*
X0216050Y0096008D01*
X0216050Y0097760D01*
X0216634Y0098343D01*
X0217802Y0098343D01*
X0218386Y0097760D01*
X0216050Y0099599D02*
X0216050Y0101934D01*
X0216634Y0101934D01*
X0377634Y0296948D02*
X0379169Y0296948D01*
X0379936Y0297715D01*
X0379936Y0301552D01*
X0381470Y0300785D02*
X0382238Y0301552D01*
X0383772Y0301552D01*
X0384540Y0300785D01*
X0383772Y0299250D02*
X0382238Y0299250D01*
X0381470Y0300017D01*
X0381470Y0300785D01*
X0383005Y0302319D02*
X0383005Y0296181D01*
X0382238Y0296948D02*
X0383772Y0296948D01*
X0384540Y0297715D01*
X0384540Y0298483D01*
X0383772Y0299250D01*
X0386074Y0299250D02*
X0388376Y0299250D01*
X0389144Y0298483D01*
X0389144Y0297715D01*
X0388376Y0296948D01*
X0386842Y0296948D01*
X0386074Y0297715D01*
X0386074Y0299250D01*
X0387609Y0300785D01*
X0389144Y0301552D01*
X0382238Y0296948D02*
X0381470Y0297715D01*
X0377634Y0296948D02*
X0376867Y0297715D01*
X0376867Y0301552D01*
X0068190Y0401800D02*
X0068190Y0406404D01*
X0065121Y0406404D02*
X0068190Y0401800D01*
X0065121Y0401800D02*
X0065121Y0406404D01*
X0063587Y0406404D02*
X0062052Y0406404D01*
X0062819Y0406404D02*
X0062819Y0401800D01*
X0062052Y0401800D02*
X0063587Y0401800D01*
X0060517Y0401033D02*
X0057448Y0401033D01*
X0055913Y0401800D02*
X0054379Y0403335D01*
X0055146Y0403335D02*
X0052844Y0403335D01*
X0052844Y0401800D02*
X0052844Y0406404D01*
X0055146Y0406404D01*
X0055913Y0405637D01*
X0055913Y0404102D01*
X0055146Y0403335D01*
X0051309Y0401800D02*
X0048240Y0401800D01*
X0048240Y0406404D01*
X0051309Y0406404D01*
X0049775Y0404102D02*
X0048240Y0404102D01*
X0046705Y0401800D02*
X0046705Y0406404D01*
X0043636Y0406404D02*
X0043636Y0401800D01*
X0045171Y0403335D01*
X0046705Y0401800D01*
X0042102Y0402568D02*
X0042102Y0405637D01*
X0041334Y0406404D01*
X0039800Y0406404D01*
X0039032Y0405637D01*
X0039032Y0402568D01*
X0039800Y0401800D01*
X0041334Y0401800D01*
X0042102Y0402568D01*
X0037498Y0404102D02*
X0037498Y0405637D01*
X0036730Y0406404D01*
X0034428Y0406404D01*
X0034428Y0401800D01*
X0034428Y0403335D02*
X0036730Y0403335D01*
X0037498Y0404102D01*
D13*
X0020744Y0400813D02*
X0071138Y0400813D01*
X0071138Y0379553D01*
X0020744Y0379553D01*
X0020744Y0400813D01*
X0078942Y0426067D02*
X0079576Y0425433D01*
X0080210Y0426067D01*
X0080210Y0427335D01*
X0081152Y0427335D02*
X0082103Y0427335D01*
X0082420Y0427018D01*
X0082420Y0426701D01*
X0082103Y0426384D01*
X0081152Y0426384D01*
X0081152Y0425433D02*
X0081152Y0427335D01*
X0082103Y0426384D02*
X0082420Y0426067D01*
X0082420Y0425750D01*
X0082103Y0425433D01*
X0081152Y0425433D01*
X0083362Y0425433D02*
X0083362Y0426701D01*
X0083996Y0427335D01*
X0084630Y0426701D01*
X0084630Y0425433D01*
X0084630Y0426384D02*
X0083362Y0426384D01*
X0085572Y0427335D02*
X0086840Y0427335D01*
X0086206Y0427335D02*
X0086206Y0425433D01*
X0087782Y0425116D02*
X0089050Y0425116D01*
X0089992Y0425433D02*
X0090626Y0425433D01*
X0090309Y0425433D02*
X0090309Y0427335D01*
X0089992Y0427335D02*
X0090626Y0427335D01*
X0091465Y0427335D02*
X0092733Y0425433D01*
X0092733Y0427335D01*
X0091465Y0427335D02*
X0091465Y0425433D01*
X0093675Y0425116D02*
X0094943Y0425116D01*
X0095885Y0425433D02*
X0097152Y0425433D01*
X0098095Y0425433D02*
X0099362Y0425433D01*
X0100304Y0425433D02*
X0101255Y0425433D01*
X0101572Y0425750D01*
X0101572Y0427018D01*
X0101255Y0427335D01*
X0100304Y0427335D01*
X0100304Y0425433D01*
X0098728Y0426384D02*
X0098095Y0426384D01*
X0098095Y0427335D02*
X0098095Y0425433D01*
X0098095Y0427335D02*
X0099362Y0427335D01*
X0095885Y0427335D02*
X0095885Y0425433D01*
X0089378Y0416712D02*
X0088744Y0416078D01*
X0088744Y0416395D02*
X0088744Y0415444D01*
X0089378Y0415444D02*
X0087477Y0415444D01*
X0087477Y0416395D01*
X0087794Y0416712D01*
X0088428Y0416712D01*
X0088744Y0416395D01*
X0089695Y0414502D02*
X0089695Y0413234D01*
X0089378Y0412292D02*
X0087477Y0412292D01*
X0087477Y0411025D02*
X0089378Y0412292D01*
X0089378Y0411025D02*
X0087477Y0411025D01*
X0087477Y0410185D02*
X0087477Y0409551D01*
X0087477Y0409868D02*
X0089378Y0409868D01*
X0089378Y0409551D02*
X0089378Y0410185D01*
X0089378Y0407975D02*
X0087477Y0407975D01*
X0087477Y0407341D02*
X0087477Y0408609D01*
X0088111Y0406399D02*
X0089378Y0406399D01*
X0088428Y0406399D02*
X0088428Y0405132D01*
X0088111Y0405132D02*
X0087477Y0405765D01*
X0088111Y0406399D01*
X0088111Y0405132D02*
X0089378Y0405132D01*
X0089061Y0404189D02*
X0089378Y0403873D01*
X0089378Y0402922D01*
X0087477Y0402922D01*
X0087477Y0403873D01*
X0087794Y0404189D01*
X0088111Y0404189D01*
X0088428Y0403873D01*
X0088428Y0402922D01*
X0088428Y0403873D02*
X0088744Y0404189D01*
X0089061Y0404189D01*
X0088744Y0401980D02*
X0087477Y0401980D01*
X0088744Y0401980D02*
X0089378Y0401346D01*
X0088744Y0400712D01*
X0087477Y0400712D01*
X0092591Y0375056D02*
X0092591Y0366916D01*
X0093608Y0367933D02*
X0094626Y0368951D01*
X0094626Y0369968D01*
X0093608Y0370986D01*
X0091573Y0370986D01*
X0090556Y0372003D01*
X0090556Y0373021D01*
X0091573Y0374038D01*
X0093608Y0374038D01*
X0094626Y0373021D01*
X0096633Y0372003D02*
X0098668Y0374038D01*
X0098668Y0367933D01*
X0096633Y0367933D02*
X0100703Y0367933D01*
X0093608Y0367933D02*
X0091573Y0367933D01*
X0090556Y0368951D01*
X0088548Y0368951D02*
X0088548Y0374038D01*
X0084478Y0374038D02*
X0084478Y0368951D01*
X0085496Y0367933D01*
X0087531Y0367933D01*
X0088548Y0368951D01*
X0084228Y0367683D02*
X0329228Y0367683D01*
X0329228Y0277683D01*
X0084228Y0277683D01*
X0084228Y0367683D01*
X0078942Y0426067D02*
X0078942Y0427335D01*
X0141989Y0420451D02*
X0142623Y0421085D01*
X0142623Y0419183D01*
X0141989Y0419183D02*
X0143257Y0419183D01*
X0144199Y0419183D02*
X0145467Y0420451D01*
X0145467Y0420768D01*
X0145150Y0421085D01*
X0144516Y0421085D01*
X0144199Y0420768D01*
X0144199Y0419183D02*
X0145467Y0419183D01*
X0146409Y0419817D02*
X0147043Y0419183D01*
X0147677Y0419817D01*
X0147677Y0421085D01*
X0146409Y0421085D02*
X0146409Y0419817D01*
X0148619Y0418866D02*
X0149886Y0418866D01*
X0150829Y0419500D02*
X0150829Y0420768D01*
X0151146Y0421085D01*
X0151779Y0421085D01*
X0152096Y0420768D01*
X0152096Y0419500D01*
X0151779Y0419183D01*
X0151146Y0419183D01*
X0150829Y0419500D01*
X0153038Y0419183D02*
X0153038Y0421085D01*
X0154306Y0419183D01*
X0154306Y0421085D01*
X0155248Y0420768D02*
X0155248Y0419500D01*
X0155565Y0419183D01*
X0156199Y0419183D01*
X0156516Y0419500D01*
X0156516Y0420768D01*
X0156199Y0421085D01*
X0155565Y0421085D01*
X0155248Y0420768D01*
X0157458Y0421085D02*
X0158726Y0421085D01*
X0159668Y0421085D02*
X0159668Y0419183D01*
X0159668Y0420134D02*
X0160302Y0420134D01*
X0159668Y0421085D02*
X0160936Y0421085D01*
X0161878Y0418866D02*
X0163146Y0418866D01*
X0164088Y0419183D02*
X0164088Y0421085D01*
X0164088Y0419183D02*
X0165356Y0419183D01*
X0166298Y0419183D02*
X0167565Y0419183D01*
X0168508Y0419183D02*
X0169458Y0419183D01*
X0169775Y0419500D01*
X0169775Y0420768D01*
X0169458Y0421085D01*
X0168508Y0421085D01*
X0168508Y0419183D01*
X0166932Y0420134D02*
X0166298Y0420134D01*
X0166298Y0421085D02*
X0166298Y0419183D01*
X0166298Y0421085D02*
X0167565Y0421085D01*
X0158092Y0420134D02*
X0157458Y0420134D01*
X0157458Y0419183D02*
X0157458Y0421085D01*
X0155003Y0411020D02*
X0154369Y0410386D01*
X0154369Y0410703D02*
X0154369Y0409752D01*
X0155003Y0409752D02*
X0153102Y0409752D01*
X0153102Y0410703D01*
X0153419Y0411020D01*
X0154053Y0411020D01*
X0154369Y0410703D01*
X0155320Y0408810D02*
X0155320Y0407543D01*
X0154053Y0405967D02*
X0154053Y0405333D01*
X0155003Y0405333D02*
X0153102Y0405333D01*
X0153102Y0406600D01*
X0153102Y0404391D02*
X0153102Y0403123D01*
X0155003Y0403123D01*
X0154053Y0403123D02*
X0154053Y0403757D01*
X0154686Y0402181D02*
X0153419Y0402181D01*
X0153102Y0401864D01*
X0153102Y0401230D01*
X0153419Y0400913D01*
X0154686Y0400913D01*
X0155003Y0401230D01*
X0155003Y0401864D01*
X0154686Y0402181D01*
X0155003Y0399971D02*
X0153102Y0399971D01*
X0153102Y0398703D02*
X0155003Y0399971D01*
X0155003Y0398703D02*
X0153102Y0398703D01*
X0153419Y0397761D02*
X0153102Y0397444D01*
X0153102Y0396810D01*
X0153419Y0396493D01*
X0154686Y0396493D01*
X0155003Y0396810D01*
X0155003Y0397444D01*
X0154686Y0397761D01*
X0153419Y0397761D01*
X0155320Y0395551D02*
X0155320Y0394283D01*
X0154369Y0393341D02*
X0155003Y0392707D01*
X0154369Y0392073D01*
X0153102Y0392073D01*
X0153419Y0391131D02*
X0153102Y0390814D01*
X0153102Y0390180D01*
X0153419Y0389864D01*
X0153419Y0391131D02*
X0153736Y0391131D01*
X0155003Y0389864D01*
X0155003Y0391131D01*
X0155003Y0388921D02*
X0155003Y0387654D01*
X0155003Y0388288D02*
X0153102Y0388288D01*
X0153736Y0387654D01*
X0154369Y0393341D02*
X0153102Y0393341D01*
X0161481Y0392868D02*
X0161798Y0393185D01*
X0162432Y0393185D01*
X0162749Y0392868D01*
X0162749Y0392551D01*
X0162432Y0392234D01*
X0162749Y0391917D01*
X0162749Y0391600D01*
X0162432Y0391283D01*
X0161798Y0391283D01*
X0161481Y0391600D01*
X0162115Y0392234D02*
X0162432Y0392234D01*
X0163691Y0391600D02*
X0164008Y0391600D01*
X0164008Y0391283D01*
X0163691Y0391283D01*
X0163691Y0391600D01*
X0164796Y0391600D02*
X0165113Y0391283D01*
X0165747Y0391283D01*
X0166064Y0391600D01*
X0166064Y0391917D01*
X0165747Y0392234D01*
X0165430Y0392234D01*
X0165747Y0392234D02*
X0166064Y0392551D01*
X0166064Y0392868D01*
X0165747Y0393185D01*
X0165113Y0393185D01*
X0164796Y0392868D01*
X0167006Y0393185D02*
X0167006Y0391917D01*
X0167640Y0391283D01*
X0168274Y0391917D01*
X0168274Y0393185D01*
X0169216Y0390966D02*
X0170484Y0390966D01*
X0171426Y0391600D02*
X0171743Y0391283D01*
X0172377Y0391283D01*
X0172694Y0391600D01*
X0172694Y0392868D01*
X0172377Y0393185D01*
X0171743Y0393185D01*
X0171426Y0392868D01*
X0171426Y0391600D01*
X0173636Y0391600D02*
X0173953Y0391283D01*
X0174587Y0391283D01*
X0174903Y0391600D01*
X0174903Y0393185D01*
X0175846Y0393185D02*
X0177113Y0393185D01*
X0176479Y0393185D02*
X0176479Y0391283D01*
X0178055Y0390966D02*
X0179323Y0390966D01*
X0180265Y0391283D02*
X0180265Y0393185D01*
X0181216Y0393185D01*
X0181533Y0392868D01*
X0181533Y0392234D01*
X0181216Y0391917D01*
X0180265Y0391917D01*
X0180899Y0391917D02*
X0181533Y0391283D01*
X0173636Y0391600D02*
X0173636Y0393185D01*
X0178338Y0400433D02*
X0178021Y0400750D01*
X0178338Y0400433D02*
X0178972Y0400433D01*
X0179289Y0400750D01*
X0179289Y0401067D01*
X0178972Y0401384D01*
X0178655Y0401384D01*
X0178972Y0401384D02*
X0179289Y0401701D01*
X0179289Y0402018D01*
X0178972Y0402335D01*
X0178338Y0402335D01*
X0178021Y0402018D01*
X0180231Y0400750D02*
X0180548Y0400750D01*
X0180548Y0400433D01*
X0180231Y0400433D01*
X0180231Y0400750D01*
X0181336Y0400750D02*
X0181653Y0400433D01*
X0182287Y0400433D01*
X0182604Y0400750D01*
X0182604Y0401067D01*
X0182287Y0401384D01*
X0181970Y0401384D01*
X0182287Y0401384D02*
X0182604Y0401701D01*
X0182604Y0402018D01*
X0182287Y0402335D01*
X0181653Y0402335D01*
X0181336Y0402018D01*
X0183546Y0402335D02*
X0183546Y0401067D01*
X0184180Y0400433D01*
X0184814Y0401067D01*
X0184814Y0402335D01*
X0185756Y0400116D02*
X0187024Y0400116D01*
X0187966Y0400750D02*
X0188283Y0400433D01*
X0188917Y0400433D01*
X0189234Y0400750D01*
X0189234Y0402018D01*
X0188917Y0402335D01*
X0188283Y0402335D01*
X0187966Y0402018D01*
X0187966Y0400750D01*
X0190176Y0400750D02*
X0190493Y0400433D01*
X0191127Y0400433D01*
X0191444Y0400750D01*
X0191444Y0402335D01*
X0192386Y0402335D02*
X0193653Y0402335D01*
X0193020Y0402335D02*
X0193020Y0400433D01*
X0194596Y0400116D02*
X0195863Y0400116D01*
X0196805Y0400433D02*
X0196805Y0402335D01*
X0196805Y0400433D02*
X0198073Y0400433D01*
X0199015Y0400433D02*
X0200283Y0400433D01*
X0201225Y0400433D02*
X0201225Y0402335D01*
X0202176Y0402335D01*
X0202493Y0402018D01*
X0202493Y0400750D01*
X0202176Y0400433D01*
X0201225Y0400433D01*
X0199649Y0401384D02*
X0199015Y0401384D01*
X0199015Y0402335D02*
X0199015Y0400433D01*
X0199015Y0402335D02*
X0200283Y0402335D01*
X0190176Y0402335D02*
X0190176Y0400750D01*
X0191937Y0425683D02*
X0191186Y0426434D01*
X0191937Y0425683D02*
X0193438Y0425683D01*
X0194189Y0426434D01*
X0194189Y0429436D01*
X0193438Y0430187D01*
X0191937Y0430187D01*
X0191186Y0429436D01*
X0191186Y0428686D01*
X0191937Y0427935D01*
X0194189Y0427935D01*
X0197603Y0430187D02*
X0200606Y0430187D01*
X0199105Y0430187D02*
X0199105Y0425683D01*
X0202207Y0425683D02*
X0202207Y0430187D01*
X0204459Y0430187D01*
X0205210Y0429436D01*
X0205210Y0427935D01*
X0204459Y0427184D01*
X0202207Y0427184D01*
X0206811Y0426434D02*
X0207562Y0425683D01*
X0209063Y0425683D01*
X0209814Y0426434D01*
X0209814Y0427184D01*
X0209063Y0427935D01*
X0206811Y0427935D01*
X0206811Y0426434D01*
X0206811Y0427935D02*
X0208312Y0429436D01*
X0209814Y0430187D01*
X0213228Y0430187D02*
X0216231Y0430187D01*
X0214730Y0430187D02*
X0214730Y0425683D01*
X0217832Y0425683D02*
X0217832Y0430187D01*
X0220084Y0430187D01*
X0220835Y0429436D01*
X0220835Y0427935D01*
X0220084Y0427184D01*
X0217832Y0427184D01*
X0222436Y0426434D02*
X0223187Y0425683D01*
X0224688Y0425683D01*
X0225439Y0426434D01*
X0225439Y0427935D01*
X0224688Y0428686D01*
X0223937Y0428686D01*
X0222436Y0427935D01*
X0222436Y0430187D01*
X0225439Y0430187D01*
X0228853Y0430187D02*
X0231856Y0430187D01*
X0230355Y0430187D02*
X0230355Y0425683D01*
X0233457Y0425683D02*
X0233457Y0430187D01*
X0235709Y0430187D01*
X0236460Y0429436D01*
X0236460Y0427935D01*
X0235709Y0427184D01*
X0233457Y0427184D01*
X0238061Y0426434D02*
X0241064Y0429436D01*
X0241064Y0430187D01*
X0238061Y0430187D01*
X0238061Y0426434D02*
X0238061Y0425683D01*
X0244478Y0430187D02*
X0247481Y0430187D01*
X0245980Y0430187D02*
X0245980Y0425683D01*
X0249082Y0425683D02*
X0249082Y0430187D01*
X0251334Y0430187D01*
X0252085Y0429436D01*
X0252085Y0427935D01*
X0251334Y0427184D01*
X0249082Y0427184D01*
X0253686Y0427935D02*
X0256689Y0427935D01*
X0255938Y0425683D02*
X0255938Y0430187D01*
X0253686Y0427935D01*
X0260103Y0430187D02*
X0263106Y0430187D01*
X0261605Y0430187D02*
X0261605Y0425683D01*
X0264707Y0425683D02*
X0264707Y0430187D01*
X0266959Y0430187D01*
X0267710Y0429436D01*
X0267710Y0427935D01*
X0266959Y0427184D01*
X0264707Y0427184D01*
X0269311Y0425683D02*
X0272314Y0428686D01*
X0272314Y0429436D01*
X0271563Y0430187D01*
X0270062Y0430187D01*
X0269311Y0429436D01*
X0269311Y0425683D02*
X0272314Y0425683D01*
X0277230Y0425683D02*
X0277230Y0430187D01*
X0278731Y0430187D02*
X0275728Y0430187D01*
X0280332Y0430187D02*
X0280332Y0425683D01*
X0280332Y0427184D02*
X0282584Y0427184D01*
X0283335Y0427935D01*
X0283335Y0429436D01*
X0282584Y0430187D01*
X0280332Y0430187D01*
X0284936Y0429436D02*
X0285687Y0430187D01*
X0287188Y0430187D01*
X0287939Y0429436D01*
X0287939Y0428686D01*
X0287188Y0427935D01*
X0287939Y0427184D01*
X0287939Y0426434D01*
X0287188Y0425683D01*
X0285687Y0425683D01*
X0284936Y0426434D01*
X0286437Y0427935D02*
X0287188Y0427935D01*
X0287145Y0417187D02*
X0289397Y0417187D01*
X0290148Y0416436D01*
X0290148Y0414935D01*
X0289397Y0414184D01*
X0287145Y0414184D01*
X0287145Y0412683D02*
X0287145Y0417187D01*
X0285544Y0417187D02*
X0282542Y0417187D01*
X0284043Y0417187D02*
X0284043Y0412683D01*
X0291749Y0413434D02*
X0291749Y0414184D01*
X0292500Y0414935D01*
X0294001Y0414935D01*
X0294752Y0414184D01*
X0294752Y0413434D01*
X0294001Y0412683D01*
X0292500Y0412683D01*
X0291749Y0413434D01*
X0292500Y0414935D02*
X0291749Y0415686D01*
X0291749Y0416436D01*
X0292500Y0417187D01*
X0294001Y0417187D01*
X0294752Y0416436D01*
X0294752Y0415686D01*
X0294001Y0414935D01*
X0306978Y0425683D02*
X0309981Y0425683D01*
X0308480Y0425683D02*
X0308480Y0430187D01*
X0306978Y0428686D01*
X0311582Y0429436D02*
X0312333Y0430187D01*
X0313834Y0430187D01*
X0314585Y0429436D01*
X0314585Y0428686D01*
X0311582Y0425683D01*
X0314585Y0425683D01*
X0316186Y0427184D02*
X0317687Y0425683D01*
X0319189Y0427184D01*
X0319189Y0430187D01*
X0316186Y0430187D02*
X0316186Y0427184D01*
X0320790Y0424932D02*
X0323793Y0424932D01*
X0325394Y0426434D02*
X0326145Y0425683D01*
X0327646Y0425683D01*
X0328397Y0426434D01*
X0328397Y0429436D01*
X0327646Y0430187D01*
X0326145Y0430187D01*
X0325394Y0429436D01*
X0325394Y0426434D01*
X0329998Y0426434D02*
X0329998Y0430187D01*
X0333001Y0430187D02*
X0333001Y0426434D01*
X0332250Y0425683D01*
X0330749Y0425683D01*
X0329998Y0426434D01*
X0334602Y0430187D02*
X0337604Y0430187D01*
X0336103Y0430187D02*
X0336103Y0425683D01*
X0339206Y0424932D02*
X0342208Y0424932D01*
X0345311Y0425683D02*
X0345311Y0430187D01*
X0343810Y0430187D02*
X0346812Y0430187D01*
X0348414Y0430187D02*
X0350666Y0430187D01*
X0351416Y0429436D01*
X0351416Y0427935D01*
X0350666Y0427184D01*
X0348414Y0427184D01*
X0348414Y0425683D02*
X0348414Y0430187D01*
X0355974Y0423143D02*
X0355974Y0421875D01*
X0356291Y0421558D01*
X0356924Y0421558D01*
X0357241Y0421875D01*
X0358184Y0421558D02*
X0358184Y0422826D01*
X0358817Y0423460D01*
X0359451Y0422826D01*
X0359451Y0421558D01*
X0360393Y0421558D02*
X0360393Y0423460D01*
X0361661Y0421558D01*
X0361661Y0423460D01*
X0362603Y0423460D02*
X0362603Y0421558D01*
X0362603Y0422509D02*
X0363871Y0422509D01*
X0363871Y0423460D02*
X0363871Y0421558D01*
X0364813Y0421241D02*
X0366081Y0421241D01*
X0367023Y0421558D02*
X0367023Y0423460D01*
X0367974Y0423460D01*
X0368291Y0423143D01*
X0368291Y0422509D01*
X0367974Y0422192D01*
X0367023Y0422192D01*
X0367657Y0422192D02*
X0368291Y0421558D01*
X0359451Y0422509D02*
X0358184Y0422509D01*
X0357241Y0423143D02*
X0356924Y0423460D01*
X0356291Y0423460D01*
X0355974Y0423143D01*
X0351434Y0414310D02*
X0350483Y0414310D01*
X0350483Y0412408D01*
X0351434Y0412408D01*
X0351751Y0412725D01*
X0351751Y0413993D01*
X0351434Y0414310D01*
X0349541Y0414310D02*
X0348273Y0414310D01*
X0348273Y0412408D01*
X0349541Y0412408D01*
X0348907Y0413359D02*
X0348273Y0413359D01*
X0347331Y0412408D02*
X0346063Y0412408D01*
X0346063Y0414310D01*
X0345121Y0412091D02*
X0343853Y0412091D01*
X0342911Y0412408D02*
X0342911Y0414310D01*
X0342911Y0413359D02*
X0341643Y0413359D01*
X0341643Y0412408D02*
X0341643Y0414310D01*
X0340701Y0414310D02*
X0340701Y0412408D01*
X0339434Y0414310D01*
X0339434Y0412408D01*
X0338491Y0412408D02*
X0338491Y0413676D01*
X0337858Y0414310D01*
X0337224Y0413676D01*
X0337224Y0412408D01*
X0337224Y0413359D02*
X0338491Y0413359D01*
X0336282Y0413993D02*
X0335965Y0414310D01*
X0335331Y0414310D01*
X0335014Y0413993D01*
X0335014Y0412725D01*
X0335331Y0412408D01*
X0335965Y0412408D01*
X0336282Y0412725D01*
X0335965Y0404935D02*
X0335331Y0404935D01*
X0335014Y0404618D01*
X0335014Y0403350D01*
X0335331Y0403033D01*
X0335965Y0403033D01*
X0336282Y0403350D01*
X0337224Y0403033D02*
X0337224Y0404301D01*
X0337858Y0404935D01*
X0338491Y0404301D01*
X0338491Y0403033D01*
X0339434Y0403033D02*
X0339434Y0404935D01*
X0340701Y0403033D01*
X0340701Y0404935D01*
X0341643Y0404935D02*
X0341643Y0403033D01*
X0342911Y0403033D01*
X0343853Y0402716D02*
X0345121Y0402716D01*
X0346063Y0403033D02*
X0347331Y0403033D01*
X0348273Y0403033D02*
X0349541Y0403033D01*
X0350483Y0403033D02*
X0351434Y0403033D01*
X0351751Y0403350D01*
X0351751Y0404618D01*
X0351434Y0404935D01*
X0350483Y0404935D01*
X0350483Y0403033D01*
X0348907Y0403984D02*
X0348273Y0403984D01*
X0348273Y0404935D02*
X0348273Y0403033D01*
X0348273Y0404935D02*
X0349541Y0404935D01*
X0346063Y0404935D02*
X0346063Y0403033D01*
X0338491Y0403984D02*
X0337224Y0403984D01*
X0336282Y0404618D02*
X0335965Y0404935D01*
X0333191Y0402018D02*
X0332874Y0402335D01*
X0331923Y0402335D01*
X0331923Y0400433D01*
X0332874Y0400433D01*
X0333191Y0400750D01*
X0333191Y0402018D01*
X0330981Y0402335D02*
X0329713Y0402335D01*
X0329713Y0400433D01*
X0330981Y0400433D01*
X0330347Y0401384D02*
X0329713Y0401384D01*
X0328771Y0400433D02*
X0327503Y0400433D01*
X0327503Y0402335D01*
X0326561Y0400116D02*
X0325293Y0400116D01*
X0323717Y0400433D02*
X0323717Y0402335D01*
X0323083Y0402335D02*
X0324351Y0402335D01*
X0322141Y0402335D02*
X0322141Y0400750D01*
X0321824Y0400433D01*
X0321190Y0400433D01*
X0320873Y0400750D01*
X0320873Y0402335D01*
X0319931Y0402018D02*
X0319614Y0402335D01*
X0318980Y0402335D01*
X0318663Y0402018D01*
X0318663Y0400750D01*
X0318980Y0400433D01*
X0319614Y0400433D01*
X0319931Y0400750D01*
X0319931Y0402018D01*
X0317721Y0400116D02*
X0316454Y0400116D01*
X0315511Y0401067D02*
X0314878Y0400433D01*
X0314244Y0401067D01*
X0314244Y0402335D01*
X0313302Y0402018D02*
X0312985Y0402335D01*
X0312351Y0402335D01*
X0312034Y0402018D01*
X0313302Y0402018D02*
X0313302Y0401701D01*
X0312034Y0400433D01*
X0313302Y0400433D01*
X0311092Y0400433D02*
X0309824Y0400433D01*
X0310458Y0400433D02*
X0310458Y0402335D01*
X0309824Y0401701D01*
X0315511Y0401067D02*
X0315511Y0402335D01*
X0311914Y0393185D02*
X0312231Y0392868D01*
X0312231Y0392234D01*
X0311914Y0391917D01*
X0310963Y0391917D01*
X0311597Y0391917D02*
X0312231Y0391283D01*
X0310963Y0391283D02*
X0310963Y0393185D01*
X0311914Y0393185D01*
X0310021Y0390966D02*
X0308753Y0390966D01*
X0307177Y0391283D02*
X0307177Y0393185D01*
X0306543Y0393185D02*
X0307811Y0393185D01*
X0305601Y0393185D02*
X0305601Y0391600D01*
X0305284Y0391283D01*
X0304650Y0391283D01*
X0304333Y0391600D01*
X0304333Y0393185D01*
X0303391Y0392868D02*
X0303074Y0393185D01*
X0302440Y0393185D01*
X0302123Y0392868D01*
X0302123Y0391600D01*
X0302440Y0391283D01*
X0303074Y0391283D01*
X0303391Y0391600D01*
X0303391Y0392868D01*
X0301181Y0390966D02*
X0299913Y0390966D01*
X0298971Y0391917D02*
X0298337Y0391283D01*
X0297704Y0391917D01*
X0297704Y0393185D01*
X0296761Y0392868D02*
X0296445Y0393185D01*
X0295811Y0393185D01*
X0295494Y0392868D01*
X0296761Y0392868D02*
X0296761Y0392551D01*
X0295494Y0391283D01*
X0296761Y0391283D01*
X0294552Y0391283D02*
X0293284Y0391283D01*
X0293918Y0391283D02*
X0293918Y0393185D01*
X0293284Y0392551D01*
X0298971Y0391917D02*
X0298971Y0393185D01*
X0257086Y0400750D02*
X0257086Y0402018D01*
X0256769Y0402335D01*
X0255818Y0402335D01*
X0255818Y0400433D01*
X0256769Y0400433D01*
X0257086Y0400750D01*
X0254876Y0400433D02*
X0253608Y0400433D01*
X0253608Y0402335D01*
X0254876Y0402335D01*
X0254242Y0401384D02*
X0253608Y0401384D01*
X0252666Y0400433D02*
X0251398Y0400433D01*
X0251398Y0402335D01*
X0250456Y0400116D02*
X0249188Y0400116D01*
X0247612Y0400433D02*
X0247612Y0402335D01*
X0246978Y0402335D02*
X0248246Y0402335D01*
X0246036Y0402335D02*
X0246036Y0400750D01*
X0245719Y0400433D01*
X0245085Y0400433D01*
X0244768Y0400750D01*
X0244768Y0402335D01*
X0243826Y0402018D02*
X0243509Y0402335D01*
X0242875Y0402335D01*
X0242559Y0402018D01*
X0242559Y0400750D01*
X0242875Y0400433D01*
X0243509Y0400433D01*
X0243826Y0400750D01*
X0243826Y0402018D01*
X0241616Y0400116D02*
X0240349Y0400116D01*
X0239407Y0401067D02*
X0238773Y0400433D01*
X0238139Y0401067D01*
X0238139Y0402335D01*
X0237197Y0402335D02*
X0235929Y0402335D01*
X0235929Y0401384D01*
X0236563Y0401701D01*
X0236880Y0401701D01*
X0237197Y0401384D01*
X0237197Y0400750D01*
X0236880Y0400433D01*
X0236246Y0400433D01*
X0235929Y0400750D01*
X0239407Y0401067D02*
X0239407Y0402335D01*
X0235809Y0393185D02*
X0236126Y0392868D01*
X0236126Y0392234D01*
X0235809Y0391917D01*
X0234858Y0391917D01*
X0235492Y0391917D02*
X0236126Y0391283D01*
X0234858Y0391283D02*
X0234858Y0393185D01*
X0235809Y0393185D01*
X0233916Y0390966D02*
X0232648Y0390966D01*
X0231072Y0391283D02*
X0231072Y0393185D01*
X0230438Y0393185D02*
X0231706Y0393185D01*
X0229496Y0393185D02*
X0229496Y0391600D01*
X0229179Y0391283D01*
X0228545Y0391283D01*
X0228228Y0391600D01*
X0228228Y0393185D01*
X0227286Y0392868D02*
X0226969Y0393185D01*
X0226335Y0393185D01*
X0226018Y0392868D01*
X0226018Y0391600D01*
X0226335Y0391283D01*
X0226969Y0391283D01*
X0227286Y0391600D01*
X0227286Y0392868D01*
X0225076Y0390966D02*
X0223809Y0390966D01*
X0222866Y0391917D02*
X0222866Y0393185D01*
X0221599Y0393185D02*
X0221599Y0391917D01*
X0222233Y0391283D01*
X0222866Y0391917D01*
X0220657Y0392234D02*
X0220657Y0391600D01*
X0220340Y0391283D01*
X0219706Y0391283D01*
X0219389Y0391600D01*
X0219389Y0392234D02*
X0220023Y0392551D01*
X0220340Y0392551D01*
X0220657Y0392234D01*
X0220657Y0393185D02*
X0219389Y0393185D01*
X0219389Y0392234D01*
X0188834Y0427184D02*
X0186582Y0427184D01*
X0186582Y0425683D02*
X0186582Y0430187D01*
X0188834Y0430187D01*
X0189585Y0429436D01*
X0189585Y0427935D01*
X0188834Y0427184D01*
X0184981Y0430187D02*
X0181978Y0430187D01*
X0183480Y0430187D02*
X0183480Y0425683D01*
X0186725Y0345809D02*
X0185975Y0345059D01*
X0185975Y0343557D01*
X0186725Y0342807D01*
X0189728Y0342807D01*
X0190478Y0343557D01*
X0190478Y0345059D01*
X0189728Y0345809D01*
X0191229Y0341205D02*
X0191229Y0338203D01*
X0190478Y0336601D02*
X0190478Y0333599D01*
X0187476Y0336601D01*
X0186725Y0336601D01*
X0185975Y0335851D01*
X0185975Y0334349D01*
X0186725Y0333599D01*
X0186725Y0331997D02*
X0188226Y0331997D01*
X0188977Y0331247D01*
X0188977Y0328995D01*
X0190478Y0328995D02*
X0185975Y0328995D01*
X0185975Y0331247D01*
X0186725Y0331997D01*
X0185975Y0327393D02*
X0190478Y0327393D01*
X0190478Y0324391D02*
X0185975Y0324391D01*
X0187476Y0325892D01*
X0185975Y0327393D01*
X0185975Y0322790D02*
X0185975Y0319787D01*
X0190478Y0319787D01*
X0190478Y0322790D01*
X0188226Y0321288D02*
X0188226Y0319787D01*
X0185975Y0318186D02*
X0185975Y0315183D01*
X0185975Y0316684D02*
X0190478Y0316684D01*
X0206725Y0316683D02*
X0206725Y0319686D01*
X0206725Y0318184D02*
X0211228Y0318184D01*
X0211228Y0321287D02*
X0206725Y0321287D01*
X0206725Y0324290D01*
X0206725Y0325891D02*
X0208226Y0327392D01*
X0206725Y0328893D01*
X0211228Y0328893D01*
X0211228Y0330495D02*
X0206725Y0330495D01*
X0206725Y0332747D01*
X0207475Y0333497D01*
X0208976Y0333497D01*
X0209727Y0332747D01*
X0209727Y0330495D01*
X0211228Y0335099D02*
X0208226Y0338101D01*
X0207475Y0338101D01*
X0206725Y0337351D01*
X0206725Y0335849D01*
X0207475Y0335099D01*
X0211228Y0335099D02*
X0211228Y0338101D01*
X0211979Y0339703D02*
X0211979Y0342705D01*
X0211228Y0345808D02*
X0206725Y0345808D01*
X0206725Y0344307D02*
X0206725Y0347309D01*
X0206725Y0325891D02*
X0211228Y0325891D01*
X0211228Y0324290D02*
X0211228Y0321287D01*
X0208976Y0321287D02*
X0208976Y0322788D01*
X0237350Y0338476D02*
X0238100Y0337725D01*
X0241103Y0337725D01*
X0241853Y0338476D01*
X0241853Y0339977D01*
X0241103Y0340728D01*
X0241103Y0342329D02*
X0241853Y0343080D01*
X0241853Y0344581D01*
X0241103Y0345332D01*
X0240352Y0345332D01*
X0239601Y0344581D01*
X0239601Y0343830D01*
X0239601Y0344581D02*
X0238851Y0345332D01*
X0238100Y0345332D01*
X0237350Y0344581D01*
X0237350Y0343080D01*
X0238100Y0342329D01*
X0238100Y0340728D02*
X0237350Y0339977D01*
X0237350Y0338476D01*
X0262350Y0336852D02*
X0262350Y0335351D01*
X0263100Y0334600D01*
X0266103Y0334600D01*
X0266853Y0335351D01*
X0266853Y0336852D01*
X0266103Y0337603D01*
X0264601Y0339204D02*
X0264601Y0342207D01*
X0262350Y0341456D02*
X0266853Y0341456D01*
X0264601Y0339204D02*
X0262350Y0341456D01*
X0263100Y0337603D02*
X0262350Y0336852D01*
X0243875Y0269687D02*
X0242374Y0269687D01*
X0241623Y0268936D01*
X0241623Y0265934D01*
X0242374Y0265183D01*
X0243875Y0265183D01*
X0244626Y0265934D01*
X0244626Y0268936D02*
X0243875Y0269687D01*
X0240022Y0269687D02*
X0240022Y0266684D01*
X0238520Y0265183D01*
X0237019Y0266684D01*
X0237019Y0269687D01*
X0235418Y0268936D02*
X0235418Y0268186D01*
X0234667Y0267435D01*
X0235418Y0266684D01*
X0235418Y0265934D01*
X0234667Y0265183D01*
X0233166Y0265183D01*
X0232415Y0265934D01*
X0233916Y0267435D02*
X0234667Y0267435D01*
X0235418Y0268936D02*
X0234667Y0269687D01*
X0233166Y0269687D01*
X0232415Y0268936D01*
X0230814Y0264432D02*
X0227811Y0264432D01*
X0226210Y0265934D02*
X0226210Y0266684D01*
X0225459Y0267435D01*
X0223207Y0267435D01*
X0223207Y0265934D01*
X0223958Y0265183D01*
X0225459Y0265183D01*
X0226210Y0265934D01*
X0224709Y0268936D02*
X0223207Y0267435D01*
X0224709Y0268936D02*
X0226210Y0269687D01*
X0221606Y0268936D02*
X0220855Y0269687D01*
X0219354Y0269687D01*
X0218603Y0268936D01*
X0218603Y0265934D01*
X0219354Y0265183D01*
X0220855Y0265183D01*
X0221606Y0265934D01*
X0213657Y0266423D02*
X0087673Y0266423D01*
X0087673Y0187683D01*
X0213657Y0187683D01*
X0213657Y0266423D01*
X0214728Y0234955D02*
X0215478Y0234205D01*
X0215478Y0232703D01*
X0214728Y0231953D01*
X0211725Y0231953D01*
X0210975Y0232703D01*
X0210975Y0234205D01*
X0211725Y0234955D01*
X0210975Y0230351D02*
X0213977Y0230351D01*
X0215478Y0228850D01*
X0213977Y0227349D01*
X0210975Y0227349D01*
X0211725Y0225747D02*
X0212476Y0225747D01*
X0213226Y0224997D01*
X0213977Y0225747D01*
X0214728Y0225747D01*
X0215478Y0224997D01*
X0215478Y0223495D01*
X0214728Y0222745D01*
X0213226Y0224246D02*
X0213226Y0224997D01*
X0211725Y0225747D02*
X0210975Y0224997D01*
X0210975Y0223495D01*
X0211725Y0222745D01*
X0216229Y0221143D02*
X0216229Y0218141D01*
X0214728Y0216540D02*
X0213226Y0216540D01*
X0212476Y0215789D01*
X0212476Y0215038D01*
X0213226Y0213537D01*
X0210975Y0213537D01*
X0210975Y0216540D01*
X0214728Y0216540D02*
X0215478Y0215789D01*
X0215478Y0214288D01*
X0214728Y0213537D01*
X0214728Y0211936D02*
X0215478Y0211185D01*
X0215478Y0209684D01*
X0214728Y0208933D01*
X0211725Y0208933D01*
X0210975Y0209684D01*
X0210975Y0211185D01*
X0211725Y0211936D01*
X0240475Y0187580D02*
X0244978Y0187580D01*
X0244978Y0186079D02*
X0244978Y0189082D01*
X0241976Y0186079D02*
X0240475Y0187580D01*
X0241225Y0184478D02*
X0240475Y0183727D01*
X0240475Y0182226D01*
X0241225Y0181475D01*
X0244228Y0181475D01*
X0244978Y0182226D01*
X0244978Y0183727D01*
X0244228Y0184478D01*
X0245729Y0179874D02*
X0245729Y0176871D01*
X0244978Y0175270D02*
X0244978Y0172267D01*
X0244978Y0173769D02*
X0240475Y0173769D01*
X0241976Y0172267D01*
X0242726Y0170666D02*
X0243477Y0169915D01*
X0243477Y0167663D01*
X0244978Y0167663D02*
X0240475Y0167663D01*
X0240475Y0169915D01*
X0241225Y0170666D01*
X0242726Y0170666D01*
X0240475Y0166062D02*
X0244978Y0166062D01*
X0244793Y0163437D02*
X0241790Y0163437D01*
X0241790Y0161185D01*
X0243291Y0161936D01*
X0244042Y0161936D01*
X0244793Y0161185D01*
X0244793Y0159684D01*
X0244042Y0158933D01*
X0242541Y0158933D01*
X0241790Y0159684D01*
X0242726Y0159957D02*
X0242726Y0158456D01*
X0240475Y0158456D02*
X0244978Y0158456D01*
X0244978Y0161458D01*
X0244978Y0163059D02*
X0240475Y0163059D01*
X0241976Y0164561D01*
X0240475Y0166062D01*
X0240475Y0161458D02*
X0240475Y0158456D01*
X0240189Y0158182D02*
X0237186Y0158182D01*
X0235585Y0158933D02*
X0232582Y0158933D01*
X0234084Y0158933D02*
X0234084Y0163437D01*
X0232582Y0161936D01*
X0230981Y0162686D02*
X0230230Y0163437D01*
X0228729Y0163437D01*
X0227978Y0162686D01*
X0227978Y0159684D01*
X0228729Y0158933D01*
X0230230Y0158933D01*
X0230981Y0159684D01*
X0240475Y0156854D02*
X0240475Y0153852D01*
X0240475Y0155353D02*
X0244978Y0155353D01*
X0247895Y0158933D02*
X0249397Y0160434D01*
X0249397Y0163437D01*
X0250998Y0162686D02*
X0250998Y0159684D01*
X0251749Y0158933D01*
X0253250Y0158933D01*
X0254001Y0159684D01*
X0253729Y0158933D02*
X0255230Y0158933D01*
X0255981Y0159684D01*
X0257582Y0158933D02*
X0260585Y0161936D01*
X0260585Y0162686D01*
X0259834Y0163437D01*
X0258333Y0163437D01*
X0257582Y0162686D01*
X0255981Y0162686D02*
X0255230Y0163437D01*
X0253729Y0163437D01*
X0252978Y0162686D01*
X0252978Y0159684D01*
X0253729Y0158933D01*
X0254001Y0162686D02*
X0253250Y0163437D01*
X0251749Y0163437D01*
X0250998Y0162686D01*
X0246394Y0163437D02*
X0246394Y0160434D01*
X0247895Y0158933D01*
X0257582Y0158933D02*
X0260585Y0158933D01*
X0262186Y0158182D02*
X0265189Y0158182D01*
X0266870Y0158309D02*
X0267620Y0157558D01*
X0269122Y0157558D01*
X0269872Y0158309D01*
X0269042Y0158933D02*
X0267541Y0158933D01*
X0266790Y0159684D01*
X0266870Y0158309D02*
X0266870Y0161311D01*
X0267620Y0162062D01*
X0269122Y0162062D01*
X0269872Y0161311D01*
X0269793Y0161185D02*
X0269793Y0159684D01*
X0269042Y0158933D01*
X0269793Y0161185D02*
X0269042Y0161936D01*
X0268291Y0161936D01*
X0266790Y0161185D01*
X0266790Y0163437D01*
X0269793Y0163437D01*
X0271394Y0163437D02*
X0271394Y0160434D01*
X0272895Y0158933D01*
X0274397Y0160434D01*
X0274397Y0163437D01*
X0275998Y0162686D02*
X0275998Y0159684D01*
X0276749Y0158933D01*
X0278250Y0158933D01*
X0279001Y0159684D01*
X0279080Y0157558D02*
X0279080Y0162062D01*
X0279001Y0162686D02*
X0278250Y0163437D01*
X0276749Y0163437D01*
X0275998Y0162686D01*
X0276078Y0162062D02*
X0279080Y0157558D01*
X0280681Y0156807D02*
X0283684Y0156807D01*
X0285285Y0158309D02*
X0286036Y0157558D01*
X0287537Y0157558D01*
X0288288Y0158309D01*
X0288288Y0159059D01*
X0287537Y0159810D01*
X0286036Y0159810D01*
X0285285Y0160561D01*
X0285285Y0161311D01*
X0286036Y0162062D01*
X0287537Y0162062D01*
X0288288Y0161311D01*
X0289889Y0162062D02*
X0292141Y0162062D01*
X0292892Y0161311D01*
X0292892Y0159810D01*
X0292141Y0159059D01*
X0289889Y0159059D01*
X0289889Y0157558D02*
X0289889Y0162062D01*
X0294493Y0162062D02*
X0294493Y0157558D01*
X0297496Y0157558D01*
X0299097Y0157558D02*
X0300598Y0157558D01*
X0299848Y0157558D02*
X0299848Y0162062D01*
X0300598Y0162062D02*
X0299097Y0162062D01*
X0302166Y0162062D02*
X0305169Y0162062D01*
X0303668Y0162062D02*
X0303668Y0157558D01*
X0306770Y0156807D02*
X0309773Y0156807D01*
X0311374Y0158309D02*
X0311374Y0161311D01*
X0312125Y0162062D01*
X0313626Y0162062D01*
X0314377Y0161311D01*
X0314377Y0158309D02*
X0313626Y0157558D01*
X0312125Y0157558D01*
X0311374Y0158309D01*
X0317496Y0168433D02*
X0318130Y0168433D01*
X0318447Y0168750D01*
X0318130Y0169408D02*
X0318447Y0169725D01*
X0318447Y0170018D02*
X0318130Y0170335D01*
X0317496Y0170335D01*
X0317179Y0170018D01*
X0317179Y0168750D01*
X0317496Y0168433D01*
X0317496Y0169408D02*
X0318130Y0169408D01*
X0317496Y0169408D02*
X0317179Y0169725D01*
X0317179Y0170993D01*
X0317496Y0171310D01*
X0318130Y0171310D01*
X0318447Y0170993D01*
X0318624Y0171808D02*
X0321627Y0171808D01*
X0321599Y0171310D02*
X0322866Y0169408D01*
X0322866Y0171310D01*
X0323809Y0171310D02*
X0323809Y0169408D01*
X0323809Y0170335D02*
X0323809Y0168433D01*
X0325076Y0168433D01*
X0325076Y0169408D02*
X0325076Y0171310D01*
X0325076Y0170359D02*
X0323809Y0170359D01*
X0322866Y0170335D02*
X0322866Y0168433D01*
X0321599Y0170335D01*
X0321599Y0168433D01*
X0320657Y0168433D02*
X0320657Y0169701D01*
X0320023Y0170335D01*
X0319389Y0169701D01*
X0319389Y0168433D01*
X0319389Y0169384D02*
X0320657Y0169384D01*
X0320657Y0169408D02*
X0320657Y0170676D01*
X0320023Y0171310D01*
X0319389Y0170676D01*
X0319389Y0169408D01*
X0319389Y0170359D02*
X0320657Y0170359D01*
X0321599Y0169408D02*
X0321599Y0171310D01*
X0320126Y0171808D02*
X0320126Y0176312D01*
X0318624Y0174811D01*
X0317023Y0175561D02*
X0317023Y0172559D01*
X0316272Y0171808D01*
X0314771Y0171808D01*
X0314020Y0172559D01*
X0314020Y0175561D01*
X0314771Y0176312D01*
X0316272Y0176312D01*
X0317023Y0175561D01*
X0315522Y0173309D02*
X0317023Y0171808D01*
X0326018Y0169091D02*
X0327286Y0169091D01*
X0327286Y0168116D02*
X0326018Y0168116D01*
X0328228Y0168750D02*
X0328228Y0170018D01*
X0328545Y0170335D01*
X0329179Y0170335D01*
X0329496Y0170018D01*
X0329496Y0168750D01*
X0329179Y0168433D01*
X0328545Y0168433D01*
X0328228Y0168750D01*
X0328545Y0169408D02*
X0329179Y0169408D01*
X0329496Y0169725D01*
X0329496Y0170993D01*
X0329179Y0171310D01*
X0328545Y0171310D01*
X0328228Y0170993D01*
X0328228Y0169725D01*
X0328545Y0169408D01*
X0330438Y0169725D02*
X0330755Y0169408D01*
X0331389Y0169408D01*
X0331706Y0169725D01*
X0331706Y0171310D01*
X0332648Y0171310D02*
X0333916Y0171310D01*
X0333282Y0171310D02*
X0333282Y0169408D01*
X0333282Y0170335D02*
X0333282Y0168433D01*
X0334858Y0168116D02*
X0336126Y0168116D01*
X0336126Y0169091D02*
X0334858Y0169091D01*
X0333916Y0170335D02*
X0332648Y0170335D01*
X0331706Y0170335D02*
X0331706Y0168750D01*
X0331389Y0168433D01*
X0330755Y0168433D01*
X0330438Y0168750D01*
X0330438Y0170335D01*
X0330438Y0169725D02*
X0330438Y0171310D01*
X0337068Y0171310D02*
X0337068Y0169408D01*
X0337068Y0169067D02*
X0338019Y0169067D01*
X0338336Y0169384D01*
X0338336Y0170018D01*
X0338019Y0170335D01*
X0337068Y0170335D01*
X0337068Y0168433D01*
X0337702Y0169067D02*
X0338336Y0168433D01*
X0338336Y0169408D02*
X0337702Y0170042D01*
X0338019Y0170042D02*
X0337068Y0170042D01*
X0338019Y0170042D02*
X0338336Y0170359D01*
X0338336Y0170993D01*
X0338019Y0171310D01*
X0337068Y0171310D01*
X0338904Y0174041D02*
X0338904Y0187427D01*
X0357014Y0187427D01*
X0357014Y0174041D01*
X0338904Y0174041D01*
X0357801Y0192152D02*
X0357803Y0192191D01*
X0357809Y0192230D01*
X0357819Y0192268D01*
X0357832Y0192305D01*
X0357849Y0192340D01*
X0357869Y0192374D01*
X0357893Y0192405D01*
X0357920Y0192434D01*
X0357949Y0192460D01*
X0357981Y0192483D01*
X0358015Y0192503D01*
X0358051Y0192519D01*
X0358088Y0192531D01*
X0358127Y0192540D01*
X0358166Y0192545D01*
X0358205Y0192546D01*
X0358244Y0192543D01*
X0358283Y0192536D01*
X0358320Y0192525D01*
X0358357Y0192511D01*
X0358392Y0192493D01*
X0358425Y0192472D01*
X0358456Y0192447D01*
X0358484Y0192420D01*
X0358509Y0192390D01*
X0358531Y0192357D01*
X0358550Y0192323D01*
X0358565Y0192287D01*
X0358577Y0192249D01*
X0358585Y0192211D01*
X0358589Y0192172D01*
X0358589Y0192132D01*
X0358585Y0192093D01*
X0358577Y0192055D01*
X0358565Y0192017D01*
X0358550Y0191981D01*
X0358531Y0191947D01*
X0358509Y0191914D01*
X0358484Y0191884D01*
X0358456Y0191857D01*
X0358425Y0191832D01*
X0358392Y0191811D01*
X0358357Y0191793D01*
X0358320Y0191779D01*
X0358283Y0191768D01*
X0358244Y0191761D01*
X0358205Y0191758D01*
X0358166Y0191759D01*
X0358127Y0191764D01*
X0358088Y0191773D01*
X0358051Y0191785D01*
X0358015Y0191801D01*
X0357981Y0191821D01*
X0357949Y0191844D01*
X0357920Y0191870D01*
X0357893Y0191899D01*
X0357869Y0191930D01*
X0357849Y0191964D01*
X0357832Y0191999D01*
X0357819Y0192036D01*
X0357809Y0192074D01*
X0357803Y0192113D01*
X0357801Y0192152D01*
X0358195Y0192152D02*
X0358197Y0192191D01*
X0358203Y0192230D01*
X0358213Y0192268D01*
X0358226Y0192305D01*
X0358243Y0192340D01*
X0358263Y0192374D01*
X0358287Y0192405D01*
X0358314Y0192434D01*
X0358343Y0192460D01*
X0358375Y0192483D01*
X0358409Y0192503D01*
X0358445Y0192519D01*
X0358482Y0192531D01*
X0358521Y0192540D01*
X0358560Y0192545D01*
X0358599Y0192546D01*
X0358638Y0192543D01*
X0358677Y0192536D01*
X0358714Y0192525D01*
X0358751Y0192511D01*
X0358786Y0192493D01*
X0358819Y0192472D01*
X0358850Y0192447D01*
X0358878Y0192420D01*
X0358903Y0192390D01*
X0358925Y0192357D01*
X0358944Y0192323D01*
X0358959Y0192287D01*
X0358971Y0192249D01*
X0358979Y0192211D01*
X0358983Y0192172D01*
X0358983Y0192132D01*
X0358979Y0192093D01*
X0358971Y0192055D01*
X0358959Y0192017D01*
X0358944Y0191981D01*
X0358925Y0191947D01*
X0358903Y0191914D01*
X0358878Y0191884D01*
X0358850Y0191857D01*
X0358819Y0191832D01*
X0358786Y0191811D01*
X0358751Y0191793D01*
X0358714Y0191779D01*
X0358677Y0191768D01*
X0358638Y0191761D01*
X0358599Y0191758D01*
X0358560Y0191759D01*
X0358521Y0191764D01*
X0358482Y0191773D01*
X0358445Y0191785D01*
X0358409Y0191801D01*
X0358375Y0191821D01*
X0358343Y0191844D01*
X0358314Y0191870D01*
X0358287Y0191899D01*
X0358263Y0191930D01*
X0358243Y0191964D01*
X0358226Y0191999D01*
X0358213Y0192036D01*
X0358203Y0192074D01*
X0358197Y0192113D01*
X0358195Y0192152D01*
X0357709Y0192152D02*
X0357711Y0192211D01*
X0357717Y0192269D01*
X0357727Y0192327D01*
X0357740Y0192384D01*
X0357758Y0192441D01*
X0357779Y0192496D01*
X0357804Y0192549D01*
X0357832Y0192600D01*
X0357863Y0192650D01*
X0357898Y0192697D01*
X0357936Y0192742D01*
X0357977Y0192785D01*
X0358021Y0192824D01*
X0358067Y0192860D01*
X0358115Y0192894D01*
X0358166Y0192924D01*
X0358219Y0192950D01*
X0358273Y0192973D01*
X0358328Y0192992D01*
X0358385Y0193008D01*
X0358443Y0193020D01*
X0358501Y0193028D01*
X0358560Y0193032D01*
X0358618Y0193032D01*
X0358677Y0193028D01*
X0358735Y0193020D01*
X0358793Y0193008D01*
X0358850Y0192992D01*
X0358905Y0192973D01*
X0358959Y0192950D01*
X0359012Y0192924D01*
X0359063Y0192894D01*
X0359111Y0192860D01*
X0359157Y0192824D01*
X0359201Y0192785D01*
X0359242Y0192742D01*
X0359280Y0192697D01*
X0359315Y0192650D01*
X0359346Y0192600D01*
X0359374Y0192549D01*
X0359399Y0192496D01*
X0359420Y0192441D01*
X0359438Y0192384D01*
X0359451Y0192327D01*
X0359461Y0192269D01*
X0359467Y0192211D01*
X0359469Y0192152D01*
X0359467Y0192093D01*
X0359461Y0192035D01*
X0359451Y0191977D01*
X0359438Y0191920D01*
X0359420Y0191863D01*
X0359399Y0191808D01*
X0359374Y0191755D01*
X0359346Y0191704D01*
X0359315Y0191654D01*
X0359280Y0191607D01*
X0359242Y0191562D01*
X0359201Y0191519D01*
X0359157Y0191480D01*
X0359111Y0191444D01*
X0359063Y0191410D01*
X0359012Y0191380D01*
X0358959Y0191354D01*
X0358905Y0191331D01*
X0358850Y0191312D01*
X0358793Y0191296D01*
X0358735Y0191284D01*
X0358677Y0191276D01*
X0358618Y0191272D01*
X0358560Y0191272D01*
X0358501Y0191276D01*
X0358443Y0191284D01*
X0358385Y0191296D01*
X0358328Y0191312D01*
X0358273Y0191331D01*
X0358219Y0191354D01*
X0358166Y0191380D01*
X0358115Y0191410D01*
X0358067Y0191444D01*
X0358021Y0191480D01*
X0357977Y0191519D01*
X0357936Y0191562D01*
X0357898Y0191607D01*
X0357863Y0191654D01*
X0357832Y0191704D01*
X0357804Y0191755D01*
X0357779Y0191808D01*
X0357758Y0191863D01*
X0357740Y0191920D01*
X0357727Y0191977D01*
X0357717Y0192035D01*
X0357711Y0192093D01*
X0357709Y0192152D01*
X0358588Y0192152D02*
X0358590Y0192191D01*
X0358596Y0192230D01*
X0358606Y0192268D01*
X0358619Y0192305D01*
X0358636Y0192340D01*
X0358656Y0192374D01*
X0358680Y0192405D01*
X0358707Y0192434D01*
X0358736Y0192460D01*
X0358768Y0192483D01*
X0358802Y0192503D01*
X0358838Y0192519D01*
X0358875Y0192531D01*
X0358914Y0192540D01*
X0358953Y0192545D01*
X0358992Y0192546D01*
X0359031Y0192543D01*
X0359070Y0192536D01*
X0359107Y0192525D01*
X0359144Y0192511D01*
X0359179Y0192493D01*
X0359212Y0192472D01*
X0359243Y0192447D01*
X0359271Y0192420D01*
X0359296Y0192390D01*
X0359318Y0192357D01*
X0359337Y0192323D01*
X0359352Y0192287D01*
X0359364Y0192249D01*
X0359372Y0192211D01*
X0359376Y0192172D01*
X0359376Y0192132D01*
X0359372Y0192093D01*
X0359364Y0192055D01*
X0359352Y0192017D01*
X0359337Y0191981D01*
X0359318Y0191947D01*
X0359296Y0191914D01*
X0359271Y0191884D01*
X0359243Y0191857D01*
X0359212Y0191832D01*
X0359179Y0191811D01*
X0359144Y0191793D01*
X0359107Y0191779D01*
X0359070Y0191768D01*
X0359031Y0191761D01*
X0358992Y0191758D01*
X0358953Y0191759D01*
X0358914Y0191764D01*
X0358875Y0191773D01*
X0358838Y0191785D01*
X0358802Y0191801D01*
X0358768Y0191821D01*
X0358736Y0191844D01*
X0358707Y0191870D01*
X0358680Y0191899D01*
X0358656Y0191930D01*
X0358636Y0191964D01*
X0358619Y0191999D01*
X0358606Y0192036D01*
X0358596Y0192074D01*
X0358590Y0192113D01*
X0358588Y0192152D01*
X0379018Y0192250D02*
X0379335Y0191933D01*
X0379969Y0191933D01*
X0380286Y0192250D01*
X0380286Y0192567D01*
X0379969Y0192884D01*
X0379335Y0192884D01*
X0379018Y0193201D01*
X0379018Y0193518D01*
X0379335Y0193835D01*
X0379969Y0193835D01*
X0380286Y0193518D01*
X0381228Y0193201D02*
X0381862Y0193835D01*
X0381862Y0191933D01*
X0381228Y0191933D02*
X0382496Y0191933D01*
X0363728Y0123457D02*
X0363728Y0120454D01*
X0363728Y0121955D02*
X0359225Y0121955D01*
X0360726Y0120454D01*
X0364479Y0118853D02*
X0364479Y0115850D01*
X0362978Y0114249D02*
X0363728Y0113498D01*
X0363728Y0111997D01*
X0362978Y0111246D01*
X0361476Y0111246D02*
X0360726Y0112748D01*
X0360726Y0113498D01*
X0361476Y0114249D01*
X0362978Y0114249D01*
X0361476Y0111246D02*
X0359225Y0111246D01*
X0359225Y0114249D01*
X0359225Y0109645D02*
X0359225Y0106642D01*
X0361476Y0106642D01*
X0360726Y0108144D01*
X0360726Y0108894D01*
X0361476Y0109645D01*
X0362978Y0109645D01*
X0363728Y0108894D01*
X0363728Y0107393D01*
X0362978Y0106642D01*
X0362978Y0105041D02*
X0363728Y0104290D01*
X0363728Y0102789D01*
X0362978Y0102038D01*
X0361476Y0102038D02*
X0360726Y0103540D01*
X0360726Y0104290D01*
X0361476Y0105041D01*
X0362978Y0105041D01*
X0361476Y0102038D02*
X0359225Y0102038D01*
X0359225Y0105041D01*
X0364479Y0100437D02*
X0364479Y0097434D01*
X0362978Y0095833D02*
X0363728Y0095082D01*
X0363728Y0093581D01*
X0362978Y0092831D01*
X0359975Y0092831D01*
X0359225Y0093581D01*
X0359225Y0095082D01*
X0359975Y0095833D01*
X0367753Y0063933D02*
X0367753Y0033933D01*
X0367478Y0033933D02*
X0077478Y0033933D01*
X0077478Y0063933D01*
X0073978Y0087683D02*
X0020478Y0087683D01*
X0020478Y0142683D01*
X0073978Y0142683D01*
X0073978Y0087683D01*
X0087673Y0093933D02*
X0213657Y0093933D01*
X0213657Y0172673D01*
X0087673Y0172673D01*
X0087673Y0093933D01*
X0177502Y0168933D02*
X0177502Y0173437D01*
X0176001Y0173437D02*
X0179003Y0173437D01*
X0180605Y0173437D02*
X0180605Y0168933D01*
X0183607Y0168933D01*
X0185209Y0168933D02*
X0185209Y0173437D01*
X0186710Y0171936D01*
X0188211Y0173437D01*
X0188211Y0168933D01*
X0189813Y0168933D02*
X0189813Y0173437D01*
X0192065Y0173437D01*
X0192815Y0172686D01*
X0192815Y0171185D01*
X0192065Y0170434D01*
X0189813Y0170434D01*
X0194417Y0168933D02*
X0197419Y0168933D01*
X0195918Y0168933D02*
X0195918Y0173437D01*
X0194417Y0171936D01*
X0199020Y0168182D02*
X0202023Y0168182D01*
X0205126Y0168933D02*
X0205126Y0173437D01*
X0206627Y0173437D02*
X0203624Y0173437D01*
X0183607Y0173437D02*
X0180605Y0173437D01*
X0180605Y0171185D02*
X0182106Y0171185D01*
X0264100Y0175309D02*
X0264850Y0174558D01*
X0267853Y0174558D01*
X0268603Y0175309D01*
X0268603Y0176810D01*
X0267853Y0177561D01*
X0264850Y0177561D01*
X0264100Y0176810D01*
X0264100Y0175309D01*
X0264850Y0179162D02*
X0264100Y0179913D01*
X0264100Y0181414D01*
X0264850Y0182165D01*
X0264850Y0183766D02*
X0267853Y0183766D01*
X0268603Y0184517D01*
X0268603Y0186018D01*
X0267853Y0186768D01*
X0268603Y0188370D02*
X0268603Y0191372D01*
X0268603Y0189871D02*
X0264100Y0189871D01*
X0265601Y0188370D01*
X0264850Y0186768D02*
X0264100Y0186018D01*
X0264100Y0184517D01*
X0264850Y0183766D01*
X0267102Y0182165D02*
X0267853Y0182165D01*
X0268603Y0181414D01*
X0268603Y0179913D01*
X0267853Y0179162D01*
X0266351Y0179913D02*
X0265601Y0179162D01*
X0264850Y0179162D01*
X0266351Y0179913D02*
X0266351Y0181414D01*
X0267102Y0182165D01*
X0269354Y0192974D02*
X0269354Y0195976D01*
X0267853Y0197578D02*
X0268603Y0198328D01*
X0268603Y0199830D01*
X0267853Y0200580D01*
X0267853Y0197578D02*
X0264850Y0197578D01*
X0264100Y0198328D01*
X0264100Y0199830D01*
X0264850Y0200580D01*
X0266225Y0220788D02*
X0269228Y0220788D01*
X0269978Y0221539D01*
X0269978Y0223040D01*
X0269228Y0223791D01*
X0269228Y0225392D02*
X0269978Y0226143D01*
X0269978Y0227644D01*
X0269228Y0228395D01*
X0266225Y0228395D01*
X0265475Y0227644D01*
X0265475Y0226143D01*
X0266225Y0225392D01*
X0266976Y0225392D01*
X0267726Y0226143D01*
X0267726Y0228395D01*
X0270729Y0229996D02*
X0270729Y0232999D01*
X0269228Y0234600D02*
X0269978Y0235351D01*
X0269978Y0236852D01*
X0269228Y0237603D01*
X0268477Y0237603D01*
X0267726Y0236852D01*
X0267726Y0236101D01*
X0267726Y0236852D02*
X0266976Y0237603D01*
X0266225Y0237603D01*
X0265475Y0236852D01*
X0265475Y0235351D01*
X0266225Y0234600D01*
X0265475Y0239204D02*
X0268477Y0239204D01*
X0269978Y0240705D01*
X0268477Y0242207D01*
X0265475Y0242207D01*
X0266225Y0223791D02*
X0265475Y0223040D01*
X0265475Y0221539D01*
X0266225Y0220788D01*
X0278729Y0172812D02*
X0277978Y0172061D01*
X0277978Y0169059D01*
X0278729Y0168308D01*
X0280230Y0168308D01*
X0280981Y0169059D01*
X0280981Y0172061D01*
X0280230Y0172812D01*
X0278729Y0172812D01*
X0282582Y0172061D02*
X0282582Y0171311D01*
X0283333Y0170560D01*
X0284834Y0170560D01*
X0285585Y0169809D01*
X0285585Y0169059D01*
X0284834Y0168308D01*
X0283333Y0168308D01*
X0282582Y0169059D01*
X0282582Y0172061D02*
X0283333Y0172812D01*
X0284834Y0172812D01*
X0285585Y0172061D01*
X0287186Y0172061D02*
X0287186Y0169059D01*
X0287937Y0168308D01*
X0289438Y0168308D01*
X0290189Y0169059D01*
X0291790Y0168308D02*
X0294793Y0171311D01*
X0294793Y0172061D01*
X0294042Y0172812D01*
X0292541Y0172812D01*
X0291790Y0172061D01*
X0290189Y0172061D02*
X0289438Y0172812D01*
X0287937Y0172812D01*
X0287186Y0172061D01*
X0291790Y0168308D02*
X0294793Y0168308D01*
X0296394Y0167557D02*
X0299397Y0167557D01*
X0300998Y0169059D02*
X0300998Y0172061D01*
X0301749Y0172812D01*
X0303250Y0172812D01*
X0304001Y0172061D01*
X0304001Y0169059D02*
X0303250Y0168308D01*
X0301749Y0168308D01*
X0300998Y0169059D01*
X0300565Y0143312D02*
X0297563Y0143312D01*
X0297563Y0141060D01*
X0299064Y0141811D01*
X0299815Y0141811D01*
X0300565Y0141060D01*
X0300565Y0139559D01*
X0299815Y0138808D01*
X0298313Y0138808D01*
X0297563Y0139559D01*
X0299100Y0140003D02*
X0299850Y0140753D01*
X0301351Y0140753D01*
X0302102Y0140003D01*
X0302102Y0137751D01*
X0302917Y0138808D02*
X0302167Y0139559D01*
X0302102Y0139252D02*
X0303603Y0140753D01*
X0303668Y0141811D02*
X0302167Y0141060D01*
X0302167Y0143312D01*
X0305169Y0143312D01*
X0304418Y0141811D02*
X0305169Y0141060D01*
X0305169Y0139559D01*
X0304418Y0138808D01*
X0302917Y0138808D01*
X0303603Y0137751D02*
X0299100Y0137751D01*
X0299100Y0140003D01*
X0295961Y0139559D02*
X0295211Y0138808D01*
X0293709Y0138808D01*
X0292959Y0139559D01*
X0292959Y0141060D02*
X0294460Y0141811D01*
X0295211Y0141811D01*
X0295961Y0141060D01*
X0295961Y0139559D01*
X0292959Y0141060D02*
X0292959Y0143312D01*
X0295961Y0143312D01*
X0291357Y0138057D02*
X0288355Y0138057D01*
X0286753Y0139559D02*
X0286003Y0138808D01*
X0284501Y0138808D01*
X0283751Y0139559D01*
X0283751Y0142561D01*
X0284501Y0143312D01*
X0286003Y0143312D01*
X0286753Y0142561D01*
X0280977Y0132832D02*
X0277975Y0132832D01*
X0280977Y0132832D02*
X0282478Y0131330D01*
X0280977Y0129829D01*
X0277975Y0129829D01*
X0277975Y0128228D02*
X0277975Y0125225D01*
X0280226Y0125225D01*
X0279476Y0126726D01*
X0279476Y0127477D01*
X0280226Y0128228D01*
X0281728Y0128228D01*
X0282478Y0127477D01*
X0282478Y0125976D01*
X0281728Y0125225D01*
X0283229Y0123624D02*
X0283229Y0120621D01*
X0282478Y0116017D02*
X0281728Y0116017D01*
X0278725Y0119020D01*
X0277975Y0119020D01*
X0277975Y0116017D01*
X0278725Y0114416D02*
X0277975Y0113665D01*
X0277975Y0112164D01*
X0278725Y0111413D01*
X0281728Y0111413D01*
X0282478Y0112164D01*
X0282478Y0113665D01*
X0281728Y0114416D01*
X0294702Y0114301D02*
X0294702Y0113033D01*
X0295653Y0113033D01*
X0295336Y0113667D01*
X0295336Y0113984D01*
X0295653Y0114301D01*
X0296286Y0114301D01*
X0296603Y0113984D01*
X0296603Y0113350D01*
X0296286Y0113033D01*
X0296920Y0112091D02*
X0296920Y0110823D01*
X0296603Y0109881D02*
X0295969Y0109247D01*
X0295969Y0109564D02*
X0295969Y0108614D01*
X0296603Y0108614D02*
X0294702Y0108614D01*
X0294702Y0109564D01*
X0295019Y0109881D01*
X0295653Y0109881D01*
X0295969Y0109564D01*
X0299100Y0110061D02*
X0299100Y0107058D01*
X0301351Y0107058D01*
X0300601Y0108559D01*
X0300601Y0109310D01*
X0301351Y0110061D01*
X0302853Y0110061D01*
X0303603Y0109310D01*
X0303603Y0107809D01*
X0302853Y0107058D01*
X0302853Y0111662D02*
X0303603Y0112413D01*
X0303603Y0113914D01*
X0302853Y0114665D01*
X0301351Y0114665D01*
X0300601Y0113914D01*
X0300601Y0113163D01*
X0301351Y0111662D01*
X0299100Y0111662D01*
X0299100Y0114665D01*
X0299100Y0116266D02*
X0301351Y0116266D01*
X0300601Y0117767D01*
X0300601Y0118518D01*
X0301351Y0119268D01*
X0302853Y0119268D01*
X0303603Y0118518D01*
X0303603Y0117017D01*
X0302853Y0116266D01*
X0299100Y0116266D02*
X0299100Y0119268D01*
X0299100Y0120870D02*
X0299100Y0123872D01*
X0299100Y0122371D02*
X0303603Y0122371D01*
X0303603Y0125474D02*
X0303603Y0126975D01*
X0303603Y0126224D02*
X0299100Y0126224D01*
X0299100Y0125474D02*
X0299100Y0126975D01*
X0299100Y0128543D02*
X0300601Y0130044D01*
X0299100Y0131546D01*
X0303603Y0131546D01*
X0303603Y0133147D02*
X0299100Y0133147D01*
X0299100Y0136150D01*
X0301351Y0134648D02*
X0301351Y0133147D01*
X0303603Y0133147D02*
X0303603Y0136150D01*
X0306770Y0138057D02*
X0309773Y0138057D01*
X0311374Y0138808D02*
X0314377Y0141811D01*
X0314377Y0142561D01*
X0313626Y0143312D01*
X0312125Y0143312D01*
X0311374Y0142561D01*
X0311374Y0138808D02*
X0314377Y0138808D01*
X0304418Y0141811D02*
X0303668Y0141811D01*
X0303603Y0128543D02*
X0299100Y0128543D01*
X0296603Y0127243D02*
X0296286Y0127560D01*
X0296603Y0127243D02*
X0296603Y0126610D01*
X0296286Y0126293D01*
X0295019Y0126293D01*
X0294702Y0126610D01*
X0294702Y0127243D01*
X0295019Y0127560D01*
X0295019Y0125350D02*
X0294702Y0125034D01*
X0294702Y0124400D01*
X0295019Y0124083D01*
X0296286Y0124083D01*
X0296603Y0124400D01*
X0296603Y0125034D01*
X0296286Y0125350D01*
X0295969Y0123141D02*
X0296603Y0122507D01*
X0295969Y0121873D01*
X0294702Y0121873D01*
X0294702Y0123141D02*
X0295969Y0123141D01*
X0296920Y0120931D02*
X0296920Y0119663D01*
X0296286Y0118721D02*
X0296603Y0118404D01*
X0296603Y0117770D01*
X0296286Y0117453D01*
X0295653Y0117453D02*
X0295336Y0118087D01*
X0295336Y0118404D01*
X0295653Y0118721D01*
X0296286Y0118721D01*
X0295653Y0117453D02*
X0294702Y0117453D01*
X0294702Y0118721D01*
X0294702Y0116511D02*
X0294702Y0115243D01*
X0295653Y0115243D01*
X0295336Y0115877D01*
X0295336Y0116194D01*
X0295653Y0116511D01*
X0296286Y0116511D01*
X0296603Y0116194D01*
X0296603Y0115560D01*
X0296286Y0115243D01*
X0276078Y0157558D02*
X0276078Y0162062D01*
X0274476Y0160561D02*
X0274476Y0157558D01*
X0274476Y0159810D02*
X0271474Y0159810D01*
X0271474Y0160561D02*
X0271474Y0157558D01*
X0271474Y0160561D02*
X0272975Y0162062D01*
X0274476Y0160561D01*
X0366069Y0302535D02*
X0416463Y0302535D01*
X0416463Y0340331D01*
X0366069Y0340331D01*
X0366069Y0302535D01*
X0366081Y0403466D02*
X0364813Y0403466D01*
X0363871Y0403783D02*
X0362603Y0403783D01*
X0362603Y0405685D01*
X0361661Y0405685D02*
X0361661Y0403783D01*
X0360393Y0405685D01*
X0360393Y0403783D01*
X0359451Y0403783D02*
X0359451Y0405051D01*
X0358817Y0405685D01*
X0358184Y0405051D01*
X0358184Y0403783D01*
X0358184Y0404734D02*
X0359451Y0404734D01*
X0357241Y0405368D02*
X0356924Y0405685D01*
X0356291Y0405685D01*
X0355974Y0405368D01*
X0355974Y0404100D01*
X0356291Y0403783D01*
X0356924Y0403783D01*
X0357241Y0404100D01*
X0367023Y0404417D02*
X0367974Y0404417D01*
X0368291Y0404734D01*
X0368291Y0405368D01*
X0367974Y0405685D01*
X0367023Y0405685D01*
X0367023Y0403783D01*
X0367657Y0404417D02*
X0368291Y0403783D01*
D14*
X0096374Y0185872D03*
X0096374Y0092122D03*
D15*
X0218728Y0214183D02*
X0221728Y0214183D01*
X0224728Y0214183D01*
X0224728Y0216183D02*
X0221728Y0216183D01*
X0218728Y0216183D01*
X0231228Y0184933D02*
X0234228Y0184933D01*
X0237228Y0184933D01*
X0237228Y0182933D02*
X0234228Y0182933D01*
X0231228Y0182933D01*
X0233228Y0155683D02*
X0233228Y0152683D01*
X0233228Y0149683D01*
X0235228Y0149683D02*
X0235228Y0152683D01*
X0235228Y0155683D01*
X0258228Y0155683D02*
X0258228Y0152683D01*
X0258228Y0149683D01*
X0260228Y0149683D02*
X0260228Y0152683D01*
X0260228Y0155683D01*
X0283228Y0159058D02*
X0283228Y0162058D01*
X0283228Y0165058D01*
X0285228Y0165058D02*
X0285228Y0162058D01*
X0285228Y0159058D01*
X0277853Y0179808D02*
X0274853Y0179808D01*
X0271853Y0179808D01*
X0271853Y0181808D02*
X0274853Y0181808D01*
X0277853Y0181808D01*
X0308228Y0171308D02*
X0308228Y0168308D01*
X0308228Y0165308D01*
X0310228Y0165308D02*
X0310228Y0168308D01*
X0310228Y0171308D01*
X0310228Y0152558D02*
X0310228Y0149558D01*
X0310228Y0146558D01*
X0308228Y0146558D02*
X0308228Y0149558D01*
X0308228Y0152558D01*
X0274728Y0128683D02*
X0271728Y0128683D01*
X0268728Y0128683D01*
X0268728Y0126683D02*
X0271728Y0126683D01*
X0274728Y0126683D01*
X0349978Y0119308D02*
X0352978Y0119308D01*
X0355978Y0119308D01*
X0355978Y0117308D02*
X0352978Y0117308D01*
X0349978Y0117308D01*
X0262228Y0236058D02*
X0259228Y0236058D01*
X0256228Y0236058D01*
X0256228Y0238058D02*
X0259228Y0238058D01*
X0262228Y0238058D01*
X0225853Y0255933D02*
X0225853Y0258933D01*
X0225853Y0261933D01*
X0223853Y0261933D02*
X0223853Y0258933D01*
X0223853Y0255933D01*
X0199728Y0320433D02*
X0196728Y0320433D01*
X0193728Y0320433D01*
X0193728Y0322433D02*
X0196728Y0322433D01*
X0199728Y0322433D01*
X0228103Y0339183D02*
X0231103Y0339183D01*
X0234103Y0339183D01*
X0234103Y0341183D02*
X0231103Y0341183D01*
X0228103Y0341183D01*
X0253103Y0338058D02*
X0256103Y0338058D01*
X0259103Y0338058D01*
X0259103Y0336058D02*
X0256103Y0336058D01*
X0253103Y0336058D01*
D16*
X0202978Y0300933D03*
X0190478Y0300933D03*
X0190478Y0279433D03*
X0202978Y0279433D03*
X0234228Y0238433D03*
X0246728Y0238433D03*
X0246728Y0216933D03*
X0234228Y0216933D03*
X0246728Y0194683D03*
X0259228Y0194683D03*
X0259228Y0173183D03*
X0246728Y0173183D03*
X0240478Y0138433D03*
X0252978Y0138433D03*
X0252978Y0116933D03*
X0240478Y0116933D03*
X0224853Y0116558D03*
X0224853Y0095058D03*
D17*
X0361478Y0104683D02*
X0374478Y0104683D01*
X0387478Y0104683D01*
X0400478Y0104683D01*
X0400478Y0190683D01*
X0387478Y0190683D01*
X0374478Y0190683D01*
X0361478Y0190683D01*
X0361478Y0104683D01*
X0373478Y0109683D02*
X0373478Y0115683D01*
X0388478Y0115683D01*
X0388478Y0109683D01*
X0373478Y0109683D01*
X0374478Y0106683D02*
X0374478Y0104683D01*
X0374478Y0106683D02*
X0387478Y0106683D01*
X0387478Y0104683D01*
X0388478Y0119683D02*
X0373478Y0119683D01*
X0373478Y0125683D01*
X0388478Y0125683D01*
X0388478Y0119683D01*
X0388478Y0129683D02*
X0373478Y0129683D01*
X0373478Y0135683D01*
X0388478Y0135683D01*
X0388478Y0129683D01*
X0388478Y0139683D02*
X0373478Y0139683D01*
X0373478Y0145683D01*
X0388478Y0145683D01*
X0388478Y0139683D01*
X0388478Y0149683D02*
X0373478Y0149683D01*
X0373478Y0155683D01*
X0388478Y0155683D01*
X0388478Y0149683D01*
X0388478Y0159683D02*
X0373478Y0159683D01*
X0373478Y0165683D01*
X0388478Y0165683D01*
X0388478Y0159683D01*
X0388478Y0169683D02*
X0373478Y0169683D01*
X0373478Y0175683D01*
X0388478Y0175683D01*
X0388478Y0169683D01*
X0388478Y0179683D02*
X0373478Y0179683D01*
X0373478Y0185683D01*
X0388478Y0185683D01*
X0388478Y0179683D01*
X0387478Y0188683D02*
X0387478Y0190683D01*
X0387478Y0188683D02*
X0374478Y0188683D01*
X0374478Y0190683D01*
X0375000Y0213545D02*
X0376235Y0214779D01*
X0376235Y0217248D01*
X0375000Y0218482D01*
X0375000Y0221095D02*
X0376235Y0222329D01*
X0376235Y0224798D01*
X0375000Y0226033D01*
X0373766Y0226033D01*
X0372532Y0224798D01*
X0372532Y0222329D01*
X0371297Y0221095D01*
X0370063Y0221095D01*
X0368828Y0222329D01*
X0368828Y0224798D01*
X0370063Y0226033D01*
X0370063Y0228646D02*
X0368828Y0229880D01*
X0368828Y0232349D01*
X0370063Y0233583D01*
X0376235Y0233583D01*
X0376235Y0228646D02*
X0370063Y0228646D01*
X0367594Y0223564D02*
X0377469Y0223564D01*
X0368828Y0218482D02*
X0368828Y0213545D01*
X0368828Y0218482D02*
X0373766Y0213545D01*
X0375000Y0213545D01*
X0331177Y0393746D02*
X0331177Y0399120D01*
X0334155Y0406246D02*
X0334155Y0411620D01*
X0334155Y0415621D02*
X0334155Y0420995D01*
X0256177Y0399120D02*
X0256177Y0393746D01*
X0199927Y0393746D02*
X0199927Y0399120D01*
X0165552Y0412496D02*
X0165552Y0417870D01*
X0099927Y0418746D02*
X0099927Y0424120D01*
D18*
X0375228Y0182683D03*
X0377728Y0182683D03*
X0380228Y0182683D03*
X0380228Y0172683D03*
X0377728Y0172683D03*
X0375228Y0172683D03*
X0375228Y0162683D03*
X0377728Y0162683D03*
X0380228Y0162683D03*
X0380228Y0152683D03*
X0377728Y0152683D03*
X0375228Y0152683D03*
X0375228Y0142683D03*
X0377728Y0142683D03*
X0380228Y0142683D03*
X0380228Y0132683D03*
X0377728Y0132683D03*
X0375228Y0132683D03*
X0375228Y0122683D03*
X0377728Y0122683D03*
X0380228Y0122683D03*
X0380228Y0112683D03*
X0377728Y0112683D03*
X0375228Y0112683D03*
D19*
X0364198Y0231697D02*
X0361062Y0234833D01*
X0361062Y0233265D02*
X0364198Y0233265D01*
X0364198Y0234833D02*
X0361062Y0231697D01*
X0362630Y0231697D02*
X0362630Y0234833D01*
D20*
X0314978Y0195558D02*
X0290978Y0195558D01*
X0290771Y0195555D01*
X0290564Y0195548D01*
X0290358Y0195535D01*
X0290151Y0195518D01*
X0289946Y0195495D01*
X0289740Y0195467D01*
X0289536Y0195435D01*
X0289332Y0195397D01*
X0289130Y0195355D01*
X0288928Y0195307D01*
X0288728Y0195255D01*
X0288529Y0195198D01*
X0288332Y0195136D01*
X0288136Y0195069D01*
X0287942Y0194997D01*
X0287749Y0194921D01*
X0287559Y0194840D01*
X0287370Y0194754D01*
X0287184Y0194664D01*
X0287000Y0194570D01*
X0286818Y0194470D01*
X0286639Y0194367D01*
X0286462Y0194259D01*
X0286288Y0194147D01*
X0286117Y0194031D01*
X0285948Y0193910D01*
X0285783Y0193786D01*
X0285621Y0193657D01*
X0285462Y0193525D01*
X0285306Y0193389D01*
X0285153Y0193249D01*
X0285004Y0193105D01*
X0284859Y0192958D01*
X0284717Y0192807D01*
X0284579Y0192653D01*
X0284444Y0192495D01*
X0284314Y0192335D01*
X0284188Y0192171D01*
X0284065Y0192004D01*
X0283947Y0191834D01*
X0283832Y0191661D01*
X0283722Y0191486D01*
X0283617Y0191308D01*
X0283515Y0191127D01*
X0283419Y0190945D01*
X0283326Y0190759D01*
X0283238Y0190572D01*
X0283155Y0190382D01*
X0283076Y0190191D01*
X0283002Y0189998D01*
X0282933Y0189802D01*
X0282869Y0189606D01*
X0282809Y0189408D01*
X0282754Y0189208D01*
X0282704Y0189007D01*
X0282659Y0188805D01*
X0282619Y0188602D01*
X0282584Y0188398D01*
X0282554Y0188193D01*
X0282529Y0187988D01*
X0282509Y0187782D01*
X0282494Y0187575D01*
X0282484Y0187368D01*
X0282479Y0187161D01*
X0282479Y0186955D01*
X0282484Y0186748D01*
X0282494Y0186541D01*
X0282509Y0186334D01*
X0282529Y0186128D01*
X0282554Y0185923D01*
X0282584Y0185718D01*
X0282619Y0185514D01*
X0282659Y0185311D01*
X0282704Y0185109D01*
X0282754Y0184908D01*
X0282809Y0184708D01*
X0282869Y0184510D01*
X0282933Y0184314D01*
X0283002Y0184118D01*
X0283076Y0183925D01*
X0283155Y0183734D01*
X0283238Y0183544D01*
X0283326Y0183357D01*
X0283419Y0183171D01*
X0283515Y0182989D01*
X0283617Y0182808D01*
X0283722Y0182630D01*
X0283832Y0182455D01*
X0283947Y0182282D01*
X0284065Y0182112D01*
X0284188Y0181945D01*
X0284314Y0181781D01*
X0284444Y0181621D01*
X0284579Y0181463D01*
X0284717Y0181309D01*
X0284859Y0181158D01*
X0285004Y0181011D01*
X0285153Y0180867D01*
X0285306Y0180727D01*
X0285462Y0180591D01*
X0285621Y0180459D01*
X0285783Y0180330D01*
X0285948Y0180206D01*
X0286117Y0180085D01*
X0286288Y0179969D01*
X0286462Y0179857D01*
X0286639Y0179749D01*
X0286818Y0179646D01*
X0287000Y0179546D01*
X0287184Y0179452D01*
X0287370Y0179362D01*
X0287559Y0179276D01*
X0287749Y0179195D01*
X0287942Y0179119D01*
X0288136Y0179047D01*
X0288332Y0178980D01*
X0288529Y0178918D01*
X0288728Y0178861D01*
X0288928Y0178809D01*
X0289130Y0178761D01*
X0289332Y0178719D01*
X0289536Y0178681D01*
X0289740Y0178649D01*
X0289946Y0178621D01*
X0290151Y0178598D01*
X0290358Y0178581D01*
X0290564Y0178568D01*
X0290771Y0178561D01*
X0290978Y0178558D01*
X0314978Y0178558D01*
X0315185Y0178561D01*
X0315392Y0178568D01*
X0315598Y0178581D01*
X0315805Y0178598D01*
X0316010Y0178621D01*
X0316216Y0178649D01*
X0316420Y0178681D01*
X0316624Y0178719D01*
X0316826Y0178761D01*
X0317028Y0178809D01*
X0317228Y0178861D01*
X0317427Y0178918D01*
X0317624Y0178980D01*
X0317820Y0179047D01*
X0318014Y0179119D01*
X0318207Y0179195D01*
X0318397Y0179276D01*
X0318586Y0179362D01*
X0318772Y0179452D01*
X0318956Y0179546D01*
X0319138Y0179646D01*
X0319317Y0179749D01*
X0319494Y0179857D01*
X0319668Y0179969D01*
X0319839Y0180085D01*
X0320008Y0180206D01*
X0320173Y0180330D01*
X0320335Y0180459D01*
X0320494Y0180591D01*
X0320650Y0180727D01*
X0320803Y0180867D01*
X0320952Y0181011D01*
X0321097Y0181158D01*
X0321239Y0181309D01*
X0321377Y0181463D01*
X0321512Y0181621D01*
X0321642Y0181781D01*
X0321768Y0181945D01*
X0321891Y0182112D01*
X0322009Y0182282D01*
X0322124Y0182455D01*
X0322234Y0182630D01*
X0322339Y0182808D01*
X0322441Y0182989D01*
X0322537Y0183171D01*
X0322630Y0183357D01*
X0322718Y0183544D01*
X0322801Y0183734D01*
X0322880Y0183925D01*
X0322954Y0184118D01*
X0323023Y0184314D01*
X0323087Y0184510D01*
X0323147Y0184708D01*
X0323202Y0184908D01*
X0323252Y0185109D01*
X0323297Y0185311D01*
X0323337Y0185514D01*
X0323372Y0185718D01*
X0323402Y0185923D01*
X0323427Y0186128D01*
X0323447Y0186334D01*
X0323462Y0186541D01*
X0323472Y0186748D01*
X0323477Y0186955D01*
X0323477Y0187161D01*
X0323472Y0187368D01*
X0323462Y0187575D01*
X0323447Y0187782D01*
X0323427Y0187988D01*
X0323402Y0188193D01*
X0323372Y0188398D01*
X0323337Y0188602D01*
X0323297Y0188805D01*
X0323252Y0189007D01*
X0323202Y0189208D01*
X0323147Y0189408D01*
X0323087Y0189606D01*
X0323023Y0189802D01*
X0322954Y0189998D01*
X0322880Y0190191D01*
X0322801Y0190382D01*
X0322718Y0190572D01*
X0322630Y0190759D01*
X0322537Y0190945D01*
X0322441Y0191127D01*
X0322339Y0191308D01*
X0322234Y0191486D01*
X0322124Y0191661D01*
X0322009Y0191834D01*
X0321891Y0192004D01*
X0321768Y0192171D01*
X0321642Y0192335D01*
X0321512Y0192495D01*
X0321377Y0192653D01*
X0321239Y0192807D01*
X0321097Y0192958D01*
X0320952Y0193105D01*
X0320803Y0193249D01*
X0320650Y0193389D01*
X0320494Y0193525D01*
X0320335Y0193657D01*
X0320173Y0193786D01*
X0320008Y0193910D01*
X0319839Y0194031D01*
X0319668Y0194147D01*
X0319494Y0194259D01*
X0319317Y0194367D01*
X0319138Y0194470D01*
X0318956Y0194570D01*
X0318772Y0194664D01*
X0318586Y0194754D01*
X0318397Y0194840D01*
X0318207Y0194921D01*
X0318014Y0194997D01*
X0317820Y0195069D01*
X0317624Y0195136D01*
X0317427Y0195198D01*
X0317228Y0195255D01*
X0317028Y0195307D01*
X0316826Y0195355D01*
X0316624Y0195397D01*
X0316420Y0195435D01*
X0316216Y0195467D01*
X0316010Y0195495D01*
X0315805Y0195518D01*
X0315598Y0195535D01*
X0315392Y0195548D01*
X0315185Y0195555D01*
X0314978Y0195558D01*
M02*
